<svg viewBox="0 0 700 10" xmlns="http://www.w3.org/2000/svg">
    <rect width="10" height="10" fill="#511c7d" />
    <rect width="10" height="10" x="10" fill="#af0c24" />
    <rect width="10" height="10" x="20" fill="#4a4a9b" />
    <rect width="10" height="10" x="30" fill="#7c127b" />
    <rect width="10" height="10" x="40" fill="#1e1b5e" />
    <rect width="10" height="10" x="50" fill="#ae0c24" />
    <rect width="10" height="10" x="60" fill="#e8272a" />
    <rect width="10" height="10" x="70" fill="#8c0c51" />
    <rect width="10" height="10" x="80" fill="#4a4a9b" />
    <rect width="10" height="10" x="90" fill="#7c127b" />
    <rect width="10" height="10" x="100" fill="#af0c24" />
    <rect width="10" height="10" x="110" fill="#4a4a9b" />
    <rect width="10" height="10" x="120" fill="#7c127b" />
    <rect width="10" height="10" x="130" fill="#1e1b5e" />
    <rect width="10" height="10" x="140" fill="#af0c24" />
    <rect width="10" height="10" x="150" fill="#e8272a" />
    <rect width="10" height="10" x="160" fill="#8c0c51" />
    <rect width="10" height="10" x="170" fill="#4a4a9b" />
    <rect width="10" height="10" x="180" fill="#7c127b" />
    <rect width="10" height="10" x="190" fill="#120d1e" />
    <rect width="10" height="10" x="200" fill="#7c127b" />
    <rect width="10" height="10" x="210" fill="#e8272a" />
    <rect width="10" height="10" x="220" fill="#1e1b5e" />
    <rect width="10" height="10" x="230" fill="#120d1e" />
    <rect width="10" height="10" x="240" fill="#34388f" />
    <rect width="10" height="10" x="250" fill="#511c7d" />
    <rect width="10" height="10" x="260" fill="#af0c24" />
    <rect width="10" height="10" x="270" fill="#8c0c51" />
    <rect width="10" height="10" x="280" fill="#483b90" />
    <rect width="10" height="10" x="290" fill="#120d1e" />
    <rect width="10" height="10" x="300" fill="#2e2f88" />
    <rect width="10" height="10" x="310" fill="#511c7d" />
    <rect width="10" height="10" x="320" fill="#120d1e" />
    <rect width="10" height="10" x="330" fill="#511c7d" />
    <rect width="10" height="10" x="340" fill="#e8272a" />
    <rect width="10" height="10" x="350" fill="#120d1e" />
    <rect width="10" height="10" x="360" fill="#8c0c51" />
    <rect width="10" height="10" x="370" fill="#e8272a" />
    <rect width="10" height="10" x="380" fill="#af0c24" />
    <rect width="10" height="10" x="390" fill="#511c7d" />
    <rect width="10" height="10" x="400" fill="#af0c24" />
    <rect width="10" height="10" x="410" fill="#4a4a9b" />
    <rect width="10" height="10" x="420" fill="#7c127b" />
    <rect width="10" height="10" x="430" fill="#1e1b5e" />
    <rect width="10" height="10" x="440" fill="#af0c24" />
    <rect width="10" height="10" x="450" fill="#e8272a" />
    <rect width="10" height="10" x="460" fill="#8c0c51" />
    <rect width="10" height="10" x="470" fill="#4a4a9b" />
    <rect width="10" height="10" x="480" fill="#7c127b" />
    <rect width="10" height="10" x="490" fill="#af0c24" />
    <rect width="10" height="10" x="500" fill="#4a4a9b" />
    <rect width="10" height="10" x="510" fill="#7c127b" />
    <rect width="10" height="10" x="520" fill="#1e1b5e" />
    <rect width="10" height="10" x="530" fill="#af0c24" />
    <rect width="10" height="10" x="540" fill="#e8272a" />
    <rect width="10" height="10" x="550" fill="#8c0c51" />
    <rect width="10" height="10" x="560" fill="#4a4a9b" />
    <rect width="10" height="10" x="570" fill="#7c127b" />
    <rect width="10" height="10" x="580" fill="#120d1e" />
    <rect width="10" height="10" x="590" fill="#7c127b" />
    <rect width="10" height="10" x="600" fill="#e8272a" />
    <rect width="10" height="10" x="610" fill="#1e1b5e" />
    <rect width="10" height="10" x="620" fill="#120d1e" />
    <rect width="10" height="10" x="630" fill="#34388f" />
    <rect width="10" height="10" x="640" fill="#511c7d" />
    <rect width="10" height="10" x="650" fill="#af0c24" />
    <rect width="10" height="10" x="660" fill="#8c0c51" />
    <rect width="10" height="10" x="670" fill="#483b90" />
    <rect width="10" height="10" x="680" fill="#120d1e" />
    <rect width="10" height="10" x="690" fill="#2e2f88" />
    <rect width="10" height="10" x="700" fill="#511c7d" />
</svg>
