<svg xmlns="http://www.w3.org/2000/svg" xmlns:xlink="http://www.w3.org/1999/xlink" version="1.1" width="100%" viewBox="0 0 959 593">
    <!-- Original at https://commons.wikimedia.org/wiki/File:Blank_US_Map.svg  -->
    <!-- By Theshibboleth [GFDL (http://www.gnu.org/copyleft/fdl.html) or CC-BY-SA-3.0 (http://creativecommons.org/licenses/by-sa/3.0/)], via Wikimedia Commons -->
    <style type="text/css">
        .state,.city { stroke:#646464; stroke-width:2; stroke-opacity:1; } 
        
        .wv,.wy,.ak,.al,.ar,.ca,.ct { fill:#9f2064; }
        .dc,.de,.ga,.hi,.id { fill:#292A72; }
        .tn,.az,.il,.ks,.la,.ma,.md,.mt { fill:#3c439b; }
        .co,.me,.mn,.mo,.ms,.nc,.in { fill:#3c2A72; }
        .ne,.nh,.nj,.nm,.nv,.ny,.oh,.nd,.wi { fill:#662A72; }
        .ky,.ok,.or,.pa,.ri,.sc,.sd { fill:#9f439b; }
        .fl,.tx,.ut,.va,.vt,.wa,.mi,.ia { fill:#9f209b; }
        
        .city { fill:#aaa }
        
    </style>
    <a xlink:href="/participating-orgs#Hawaii">
        <title>Hawaii</title>
        <path class="state hi" id="HI" d="m 233.08,519.30 1.93,-3.55 2.26,-0.32 0.32,0.80 -2.10,3.07 -2.42,0 z m 10.18,-3.71 6.14,2.58 2.10,-0.32 1.61,-3.87 -0.64,-3.39 -4.20,-0.48 -4.04,1.77 -0.96,3.71 z m 30.71,10.02 3.71,5.49 2.42,-0.32 1.13,-0.48 1.45,1.29 3.71,-0.16 0.96,-1.45 -2.90,-1.77 -1.93,-3.71 -2.10,-3.55 -5.81,2.90 -0.64,1.77 z m 20.20,8.89 1.29,-1.93 4.68,0.96 0.64,-0.48 6.14,0.64 -0.32,1.29 -2.58,1.45 -4.36,-0.32 -5.49,-1.61 z m 5.33,5.17 1.93,3.87 3.07,-1.13 0.32,-1.61 -1.61,-2.10 -3.71,-0.32 0,1.29 z m 6.95,-1.13 2.26,-2.90 4.68,2.42 4.36,1.13 4.36,2.74 0,1.93 -3.55,1.77 -4.84,0.96 -2.42,-1.45 -4.84,-6.62 z m 16.65,15.51 1.61,-1.29 3.39,1.61 7.59,3.55 3.39,2.10 1.61,2.42 1.93,4.36 4.04,2.58 -0.32,1.29 -3.87,3.23 -4.20,1.45 -1.45,-0.64 -3.07,1.77 -2.42,3.23 -2.26,2.90 -1.77,-0.16 -3.55,-2.58 -0.32,-4.52 0.64,-2.42 -1.61,-5.65 -2.10,-1.77 -0.16,-2.58 2.26,-0.96 2.10,-3.07 0.48,-0.96 -1.61,-1.77 -0.32,-2.10 z" />
    </a>
    <a xlink:href="/participating-orgs#Alaska">
        <title>Alaska</title>
        <path class="state ak" id="AK" d="m 158.07,453.67 -0.32,85.35 1.61,0.96 3.07,0.16 1.45,-1.13 2.58,0 0.16,2.90 6.95,6.78 0.48,2.58 3.39,-1.93 0.64,-0.16 0.32,-3.07 1.45,-1.61 1.13,-0.16 1.93,-1.45 3.07,2.10 0.64,2.90 1.93,1.13 1.13,2.42 3.87,1.77 3.39,5.98 2.74,3.87 2.26,2.74 1.45,3.71 5.01,1.77 5.17,2.10 0.96,4.36 0.48,3.07 -0.96,3.39 -1.77,2.26 -1.61,-0.80 -1.45,-3.07 -2.74,-1.45 -1.77,-1.13 -0.80,0.80 1.45,2.74 0.16,3.71 -1.13,0.48 -1.93,-1.93 -2.10,-1.29 0.48,1.61 1.29,1.77 -0.80,0.80 c 0,0 -0.80,-0.32 -1.29,-0.96 -0.48,-0.64 -2.10,-3.39 -2.10,-3.39 l -0.96,-2.26 c 0,0 -0.32,1.29 -0.96,0.96 -0.64,-0.32 -1.29,-1.45 -1.29,-1.45 l 1.77,-1.93 -1.45,-1.45 0,-5.01 -0.80,0 -0.80,3.39 -1.13,0.48 -0.96,-3.71 -0.64,-3.71 -0.80,-0.48 0.32,5.65 0,1.13 -1.45,-1.29 -3.55,-5.98 -2.10,-0.48 -0.64,-3.71 -1.61,-2.90 -1.61,-1.13 0,-2.26 2.10,-1.29 -0.48,-0.32 -2.58,0.64 -3.39,-2.42 -2.58,-2.90 -4.84,-2.58 -4.04,-2.58 1.29,-3.23 0,-1.61 -1.77,1.61 -2.90,1.13 -3.71,-1.13 -5.65,-2.42 -5.49,0 -0.64,0.48 -6.46,-3.87 -2.10,-0.32 -2.74,-5.81 -3.55,0.32 -3.55,1.45 0.48,4.52 1.13,-2.90 0.96,0.32 -1.45,4.36 3.23,-2.74 0.64,1.61 -3.87,4.36 -1.29,-0.32 -0.48,-1.93 -1.29,-0.80 -1.29,1.13 -2.74,-1.77 -3.07,2.10 -1.77,2.10 -3.39,2.10 -4.68,-0.16 -0.48,-2.10 3.71,-0.64 0,-1.29 -2.26,-0.64 0.96,-2.42 2.26,-3.87 0,-1.77 0.16,-0.80 4.36,-2.26 0.96,1.29 2.74,0 -1.29,-2.58 -3.71,-0.32 -5.01,2.74 -2.42,3.39 -1.77,2.58 -1.13,2.26 -4.20,1.45 -3.07,2.58 -0.32,1.61 2.26,0.96 0.80,2.10 -2.74,3.23 -6.46,4.20 -7.75,4.20 -2.10,1.13 -5.33,1.13 -5.33,2.26 1.77,1.29 -1.45,1.45 -0.48,1.13 -2.74,-0.96 -3.23,0.16 -0.80,2.26 -0.96,0 0.32,-2.42 -3.55,1.29 -2.90,0.96 -3.39,-1.29 -2.90,1.93 -3.23,0 -2.10,1.29 -1.61,0.80 -2.10,-0.32 -2.58,-1.13 -2.26,0.64 -0.96,0.96 -1.61,-1.13 0,-1.93 3.07,-1.29 6.30,0.64 4.36,-1.61 2.10,-2.10 2.90,-0.64 1.77,-0.80 2.74,0.16 1.61,1.29 0.96,-0.32 2.26,-2.74 3.07,-0.96 3.39,-0.64 1.29,-0.32 0.64,0.48 0.80,0 1.29,-3.71 4.04,-1.45 1.93,-3.71 2.26,-4.52 1.61,-1.45 0.32,-2.58 -1.61,1.29 -3.39,0.64 -0.64,-2.42 -1.29,-0.32 -0.96,0.96 -0.16,2.90 -1.45,-0.16 -1.45,-5.81 -1.29,1.29 -1.13,-0.48 -0.32,-1.93 -4.04,0.16 -2.10,1.13 -2.58,-0.32 1.45,-1.45 0.48,-2.58 -0.64,-1.93 1.45,-0.96 1.29,-0.16 -0.64,-1.77 0,-4.36 -0.96,-0.96 -0.80,1.45 -6.14,0 -1.45,-1.29 -0.64,-3.87 -2.10,-3.55 0,-0.96 2.10,-0.80 0.16,-2.10 1.13,-1.13 -0.80,-0.48 -1.29,0.48 -1.13,-2.74 0.96,-5.01 4.52,-3.23 2.58,-1.61 1.93,-3.71 2.74,-1.29 2.58,1.13 0.32,2.42 2.42,-0.32 3.23,-2.42 1.61,0.64 0.96,0.64 1.61,0 2.26,-1.29 0.80,-4.36 c 0,0 0.32,-2.90 0.96,-3.39 0.64,-0.48 0.96,-0.96 0.96,-0.96 l -1.13,-1.93 -2.58,0.80 -3.23,0.80 -1.93,-0.48 -3.55,-1.77 -5.01,-0.16 -3.55,-3.71 0.48,-3.87 0.64,-2.42 -2.10,-1.77 -1.93,-3.71 0.48,-0.80 6.78,-0.48 2.10,0 0.96,0.96 0.64,0 -0.16,-1.61 3.87,-0.64 2.58,0.32 1.45,1.13 -1.45,2.10 -0.48,1.45 2.74,1.61 5.01,1.77 1.77,-0.96 -2.26,-4.36 -0.96,-3.23 0.96,-0.80 -3.39,-1.93 -0.48,-1.13 0.48,-1.61 -0.80,-3.87 -2.90,-4.68 -2.42,-4.20 2.90,-1.93 3.23,0 1.77,0.64 4.20,-0.16 3.71,-3.55 1.13,-3.07 3.71,-2.42 1.61,0.96 2.74,-0.64 3.71,-2.10 1.13,-0.16 0.96,0.80 4.52,-0.16 2.74,-3.07 1.13,0 3.55,2.42 1.93,2.10 -0.48,1.13 0.64,1.13 1.61,-1.61 3.87,0.32 0.32,3.71 1.93,1.45 7.11,0.64 6.30,4.20 1.45,-0.96 5.17,2.58 2.10,-0.64 1.93,-0.80 4.84,1.93 4.36,2.90 z m -115.10,28.93 2.10,5.33 -0.16,0.96 -2.90,-0.32 -1.77,-4.04 -1.77,-1.45 -2.42,0 -0.16,-2.58 1.77,-2.42 1.13,2.42 1.45,1.45 2.74,0.64 z m -2.58,33.46 3.71,0.80 3.71,0.96 0.80,0.96 -1.61,3.71 -3.07,-0.16 -3.39,-3.55 -0.16,-2.74 z m -20.69,-14.06 1.13,2.58 1.13,1.61 -1.13,0.80 -2.10,-3.07 0,-1.93 0.96,0 z m -13.74,73.07 3.39,-2.26 3.39,-0.96 2.58,0.32 0.48,1.61 1.93,0.48 1.93,-1.93 -0.32,-1.61 2.74,-0.64 2.90,2.58 -1.13,1.77 -4.36,1.13 -2.74,-0.48 -3.71,-1.13 -4.36,1.45 -1.61,0.32 -1.13,-0.64 z m 48.98,-4.52 1.61,1.93 2.10,-1.61 -1.45,-1.29 -2.26,0.96 z m 2.90,3.07 1.13,-2.26 2.10,0.32 -0.80,1.93 -2.42,0 z m 23.60,-1.93 1.45,1.77 0.96,-1.13 -0.80,-1.93 -1.61,1.29 z m 8.72,-12.44 1.13,5.81 2.90,0.80 5.01,-2.90 4.36,-2.58 -1.61,-2.42 0.48,-2.42 -2.10,1.29 -2.90,-0.80 1.61,-1.13 1.93,0.80 3.87,-1.77 0.48,-1.45 -2.42,-0.80 0.80,-1.93 -2.74,1.93 -4.68,3.55 -4.84,2.90 -1.29,1.13 z m 42.35,-19.88 2.42,-1.45 -0.96,-1.77 -1.77,0.96 0.32,2.26 z" />
    </a>
    <a xlink:href="/participating-orgs#Florida">
        <title>Florida</title>
        <path id="FL" d="m 759.81,439.14 2.26,7.31 3.72,9.74 5.33,9.37 3.71,6.30 4.84,5.49 4.04,3.71 1.61,2.90 -1.13,1.29 -0.80,1.29 2.90,7.43 2.90,2.90 2.58,5.33 3.55,5.81 4.52,8.24 1.29,7.59 0.48,11.96 0.64,1.77 -0.32,3.39 -2.42,1.29 0.32,1.93 -0.64,1.93 0.32,2.42 0.48,1.93 -2.74,3.23 -3.07,1.45 -3.87,0.16 -1.45,1.61 -2.42,0.96 -1.29,-0.48 -1.13,-0.96 -0.32,-2.90 -0.80,-3.39 -3.39,-5.17 -3.55,-2.26 -3.87,-0.32 -0.80,1.29 -3.07,-4.36 -0.64,-3.55 -2.58,-4.04 -1.77,-1.13 -1.61,2.10 -1.77,-0.32 -2.10,-5.01 -2.90,-3.87 -2.90,-5.33 -2.58,-3.07 -3.55,-3.71 2.10,-2.42 3.23,-5.49 -0.16,-1.61 -4.52,-0.96 -1.61,0.64 0.32,0.64 2.58,0.96 -1.45,4.52 -0.80,0.48 -1.77,-4.04 -1.29,-4.84 -0.32,-2.74 1.45,-4.68 0,-9.53 -3.07,-3.71 -1.29,-3.07 -5.17,-1.29 -1.93,-0.64 -1.61,-2.58 -3.39,-1.61 -1.13,-3.39 -2.74,-0.96 -2.42,-3.71 -4.20,-1.45 -2.90,-1.45 -2.58,0 -4.04,0.80 -0.16,1.93 0.80,0.96 -0.48,1.13 -3.07,-0.16 -3.71,3.55 -3.55,1.93 -3.87,0 -3.23,1.29 -0.32,-2.74 -1.61,-1.93 -2.90,-1.13 -1.61,-1.45 -8.08,-3.87 -7.59,-1.77 -4.36,0.64 -5.98,0.48 -5.98,2.10 -3.47,0.61 -0.23,-8.04 -2.58,-1.93 -1.77,-1.77 0.32,-3.07 10.18,-1.29 25.54,-2.90 6.78,-0.64 5.43,0.28 2.58,3.87 1.45,1.45 8.09,0.51 10.81,-0.64 21.51,-1.29 5.44,-0.67 5.10,0.20 0.42,2.90 2.23,0.80 0.23,-4.63 -1.52,-4.17 1.30,-1.43 5.55,0.45 5.17,0.32 z m 12.54,132.40 2.42,-0.64 1.29,-0.24 1.45,-2.34 2.34,-1.61 1.29,0.48 1.69,0.32 0.40,1.05 -3.47,1.21 -4.20,1.45 -2.34,1.21 -0.88,-0.88 z m 13.49,-5.01 1.21,1.05 2.74,-2.10 5.33,-4.20 3.71,-3.87 2.50,-6.62 0.96,-1.69 0.16,-3.39 -0.72,0.48 -0.96,2.82 -1.45,4.60 -3.23,5.25 -4.36,4.20 -3.39,1.93 -2.50,1.53 z" class="state fl" />
    </a>
    <a xlink:href="/participating-orgs#New Hampshire">
        <title>New Hampshire</title>
        <path id="NH" d="m 880.79,142.42 0.86,-1.07 1.09,-3.29 -2.54,-0.91 -0.48,-3.07 -3.87,-1.13 -0.32,-2.74 -7.27,-23.44 -4.60,-14.54 -0.89,-0.00 -0.64,1.61 -0.64,-0.48 -0.96,-0.96 -1.45,1.93 -0.04,5.03 0.31,5.66 1.93,2.74 0,4.04 -3.71,5.06 -2.58,1.13 0,1.13 1.13,1.77 0,8.56 -0.80,9.21 -0.16,4.84 0.96,1.29 -0.16,4.52 -0.48,1.77 0.96,0.70 16.78,-4.42 2.17,-0.60 1.84,-2.77 3.60,-1.61 z" class="state nh" />
    </a>
    <a xlink:href="/participating-orgs#Michigan">
        <title>Michigan</title>
        <path class="state mi" id="SP-" d="m 697.86,177.23 -3.23,-8.24 -2.26,-9.05 -2.42,-3.23 -2.58,-1.77 -1.61,1.13 -3.87,1.77 -1.93,5.01 -2.74,3.71 -1.13,0.64 -1.45,-0.64 c 0,0 -2.58,-1.45 -2.42,-2.10 0.16,-0.64 0.48,-5.01 0.48,-5.01 l 3.39,-1.29 0.80,-3.39 0.64,-2.58 2.42,-1.61 -0.32,-10.02 -1.61,-2.26 -1.29,-0.80 -0.80,-2.10 0.80,-0.80 1.61,0.32 0.16,-1.61 -2.42,-2.26 -1.29,-2.58 -2.58,0 -4.52,-1.45 -5.49,-3.39 -2.74,0 -0.64,0.64 -0.96,-0.48 -3.07,-2.26 -2.90,1.77 -2.90,2.26 0.32,3.55 0.96,0.32 2.10,0.48 0.48,0.80 -2.58,0.80 -2.58,0.32 -1.45,1.77 -0.32,2.10 0.32,1.61 0.32,5.49 -3.55,2.10 -0.64,-0.16 0,-4.20 1.29,-2.42 0.64,-2.42 -0.80,-0.80 -1.93,0.80 -0.96,4.20 -2.74,1.13 -1.77,1.93 -0.16,0.96 0.64,0.80 -0.64,2.58 -2.26,0.48 0,1.13 0.80,2.42 -1.13,6.14 -1.61,4.04 0.64,4.68 0.48,1.13 -0.80,2.42 -0.32,0.80 -0.32,2.74 3.55,5.98 2.90,6.46 1.45,4.84 -0.80,4.68 -0.96,5.98 -2.42,5.17 -0.32,2.74 -3.25,3.08 4.40,-0.16 21.41,-2.26 7.27,-0.98 0.09,1.66 6.85,-1.21 10.29,-1.50 3.85,-0.46 0.13,-0.58 0.16,-1.45 2.10,-3.71 2.00,-1.73 -0.22,-5.05 1.59,-1.59 1.09,-0.34 0.22,-3.55 1.53,-3.03 1.05,0.60 0.16,0.64 0.80,0.16 1.93,-0.96 -0.32,-9.53 z m -116,-95 1.82,-2.05 2.17,-0.80 5.37,-3.88 2.28,-0.57 0.45,0.45 -5.14,5.14 -3.31,1.94 -2.05,0.91 -1.60,-1.14 z m 86.17,32.12 0.64,2.50 3.23,0.16 1.29,-1.21 c 0,0 -0.08,-1.45 -0.40,-1.61 -0.32,-0.16 -1.61,-1.85 -1.61,-1.85 l -2.18,0.24 -1.61,0.16 -0.32,1.13 0.96,0.48 z m -100.30,-2.97 0.71,-0.58 2.74,-0.80 3.55,-2.26 0,-0.96 0.64,-0.64 5.98,-0.96 2.42,-1.93 4.36,-2.10 0.16,-1.29 1.93,-2.90 1.77,-0.80 1.29,-1.77 2.26,-2.26 4.36,-2.42 4.68,-0.48 1.13,1.13 -0.32,0.96 -3.71,0.96 -1.45,3.07 -2.26,0.80 -0.48,2.42 -2.42,3.23 -0.32,2.58 0.80,0.48 0.96,-1.13 3.55,-2.90 1.29,1.29 2.26,0 3.23,0.96 1.45,1.13 1.45,3.07 2.74,2.74 3.87,-0.16 1.45,-0.96 1.61,1.29 1.61,0.48 1.29,-0.80 1.13,0 1.61,-0.96 4.04,-3.55 3.39,-1.13 6.62,-0.32 4.52,-1.93 2.58,-1.29 1.45,0.16 0,5.65 0.48,0.32 2.90,0.80 1.93,-0.48 6.14,-1.61 1.13,-1.13 1.45,0.48 0,6.95 3.23,3.07 1.29,0.64 1.29,0.96 -1.29,0.32 -0.80,-0.32 -3.71,-0.48 -2.10,0.64 -2.26,-0.16 -3.23,1.45 -1.77,0 -5.81,-1.29 -5.17,0.16 -1.93,2.58 -6.95,0.64 -2.42,0.80 -1.13,3.07 -1.29,1.13 -0.48,-0.16 -1.45,-1.61 -4.52,2.42 -0.64,0 -1.13,-1.61 -0.80,0.16 -1.93,4.36 -0.96,4.04 -3.18,7.00 -1.17,-1.03 -1.37,-1.03 -1.94,-10.28 -3.54,-1.37 -2.05,-2.28 -12.12,-2.74 -2.85,-1.02 -8.23,-2.17 -7.88,-1.14 -3.71,-5.14 z" />
    </a>
    <a xlink:href="/participating-orgs#Vermont">
        <title>Vermont</title>
        <path id="VT" d="m 844.48,154.05 0.31,-5.34 -2.89,-10.78 -0.64,-0.32 -2.90,-1.29 0.80,-2.90 -0.80,-2.10 -2.70,-4.63 0.96,-3.87 -0.80,-5.17 -2.42,-6.46 -0.80,-4.92 26.41,-6.73 0.30,5.52 1.91,2.74 0,4.04 -3.70,5.05 -2.58,1.14 -0.01,1.12 1.30,1.51 -0.31,8.09 -0.60,9.25 -0.22,5.55 0.96,1.29 -0.16,4.57 -0.48,1.68 1.01,0.72 -7.43,1.50 -4.50,0.72 z" class="state vt" />
    </a>
    <a xlink:href="/participating-orgs#Maine">
        <title>Maine</title>
        <path id="ME" d="m 922.83,78.83 1.93,2.10 2.26,3.71 0,1.93 -2.10,4.68 -1.93,0.64 -3.39,3.07 -4.84,5.49 c 0,0 -0.64,0 -1.29,0 -0.64,0 -0.96,-2.10 -0.96,-2.10 l -1.77,0.16 -0.96,1.45 -2.42,1.45 -0.96,1.45 1.61,1.45 -0.48,0.64 -0.48,2.74 -1.93,-0.16 0,-1.61 -0.32,-1.29 -1.45,0.32 -1.77,-3.23 -2.10,1.29 1.29,1.45 0.32,1.13 -0.80,1.29 0.32,3.07 0.16,1.61 -1.61,2.58 -2.90,0.48 -0.32,2.90 -5.33,3.07 -1.29,0.48 -1.61,-1.45 -3.07,3.55 0.96,3.23 -1.45,1.29 -0.16,4.36 -1.12,6.25 -2.46,-1.15 -0.48,-3.07 -3.87,-1.13 -0.32,-2.74 -7.27,-23.44 -4.69,-14.63 1.42,-0.11 1.51,0.40 0,-2.58 1.30,-4.49 2.58,-4.68 1.45,-4.04 -1.93,-2.42 0,-5.98 0.80,-0.96 0.80,-2.74 -0.16,-1.45 -0.16,-4.84 1.77,-4.84 2.90,-8.89 2.10,-4.20 1.29,0 1.29,0.16 0,1.13 1.29,2.26 2.74,0.64 0.80,-0.80 0,-0.96 4.04,-2.90 1.77,-1.77 1.45,0.16 5.98,2.42 1.93,0.96 9.05,29.90 5.98,0 0.80,1.93 0.16,4.84 2.90,2.26 0.80,0 0.16,-0.48 -0.48,-1.13 2.74,-0.16 z m -20.93,30.14 1.53,-1.53 1.37,1.05 0.56,2.42 -1.69,0.88 -1.77,-2.82 z m 6.70,-5.90 1.77,1.85 c 0,0 1.29,0.08 1.29,-0.24 0,-0.32 0.24,-2.02 0.24,-2.02 l 0.88,-0.80 -0.80,-1.77 -2.02,0.72 -1.37,2.26 z" class="state me" />
    </a>
    <a xlink:href="/participating-orgs#Rhode Island">
        <title>Rhode Island</title>
        <path id="RI" d="m 874.07,178.89 -3.69,-14.95 6.26,-1.84 2.19,1.92 3.30,4.32 2.68,4.40 -2.99,1.62 -1.29,-0.16 -1.13,1.77 -2.42,1.93 -2.90,0.96 z" class="state ri" />
    </a>
    <a xlink:href="/participating-orgs#New York">
        <title>New York</title>
        <path id="NY" d="m 830.37,188.74 -1.13,-0.96 -2.58,-0.16 -2.26,-1.93 -1.63,-6.12 -3.45,0.09 -2.44,-2.70 -19.38,4.38 -43.00,8.72 -7.52,1.22 -0.73,-6.46 1.42,-1.12 1.29,-1.13 0.96,-1.61 1.77,-1.13 1.93,-1.77 0.48,-1.61 2.10,-2.74 1.13,-0.96 -0.16,-0.96 -1.29,-3.07 -1.77,-0.16 -1.93,-6.14 2.90,-1.77 4.36,-1.45 4.04,-1.29 3.23,-0.48 6.30,-0.16 1.93,1.29 1.61,0.16 2.10,-1.29 2.58,-1.13 5.17,-0.48 2.10,-1.77 1.77,-3.23 1.61,-1.93 2.10,0 1.93,-1.13 0.16,-2.26 -1.45,-2.10 -0.32,-1.45 1.13,-2.10 0,-1.45 -1.77,0 -1.77,-0.80 -0.80,-1.13 -0.16,-2.58 5.81,-5.49 0.64,-0.80 1.45,-2.90 2.90,-4.52 2.74,-3.71 2.10,-2.42 2.41,-1.82 3.08,-1.24 5.49,-1.29 3.23,0.16 4.52,-1.45 7.56,-2.07 0.51,4.97 2.42,6.46 0.80,5.17 -0.96,3.87 2.58,4.52 0.80,2.10 -0.80,2.90 2.90,1.29 0.64,0.32 3.07,10.99 -0.53,5.05 -0.48,10.83 0.80,5.49 0.80,3.55 1.45,7.27 0,8.08 -1.13,2.26 1.83,1.99 0.79,1.67 -1.93,1.77 0.32,1.29 1.29,-0.32 1.45,-1.29 2.26,-2.58 1.13,-0.64 1.61,0.64 2.26,0.16 7.92,-3.87 2.90,-2.74 1.29,-1.45 4.20,1.61 -3.39,3.55 -3.87,2.90 -7.11,5.33 -2.58,0.96 -5.81,1.93 -4.04,1.13 -1.17,-0.53 -0.24,-3.68 0.48,-2.74 -0.16,-2.10 -2.81,-1.69 -4.52,-0.96 -3.87,-1.13 -3.71,-1.77 z" class="state ny" />
    </a>
    <a xlink:href="/participating-orgs#Pennsylvania">
        <title>Pennsylvania</title>
        <path id="PA" d="m 825.12,224.69 1.30,-0.27 2.32,-1.25 1.21,-2.48 1.61,-2.26 3.23,-3.07 0,-0.80 -2.42,-1.61 -3.55,-2.42 -0.96,-2.58 -2.74,-0.32 -0.16,-1.13 -0.80,-2.74 2.26,-1.13 0.16,-2.42 -1.29,-1.29 0.16,-1.61 1.93,-3.07 0,-3.07 2.69,-2.64 -0.92,-0.67 -2.52,-0.19 -2.29,-1.93 -1.54,-6.11 -3.50,0.10 -2.45,-2.70 -18.09,4.19 -43.00,8.72 -8.89,1.45 -0.62,-6.52 -5.36,5.06 -1.29,0.48 -4.20,3.00 2.91,19.13 2.48,9.72 3.57,19.26 3.26,-0.63 11.94,-1.50 37.92,-7.66 14.87,-2.82 8.30,-1.62 0.26,-0.23 2.10,-1.61 2.10,-0.68 z" class="state pa" />
    </a>
    <a xlink:href="/participating-orgs#New Jersey">
        <title>New Jersey</title>
        <path id="NJ" d="m 829.67,188.46 -2.32,2.73 0,3.07 -1.93,3.07 -0.16,1.61 1.29,1.29 -0.16,2.42 -2.26,1.13 0.80,2.74 0.16,1.13 2.74,0.32 0.96,2.58 3.55,2.42 2.42,1.61 0,0.80 -2.98,2.69 -1.61,2.26 -1.45,2.74 -2.26,1.29 -0.46,1.60 -0.24,1.21 -0.60,2.60 1.09,2.24 3.23,2.90 4.84,2.26 4.04,0.64 0.16,1.45 -0.80,0.96 0.32,2.74 0.80,0 2.10,-2.42 0.80,-4.84 2.74,-4.04 3.07,-6.46 1.13,-5.49 -0.64,-1.13 -0.16,-9.37 -1.61,-3.39 -1.13,0.80 -2.74,0.32 -0.48,-0.48 1.13,-0.96 2.10,-1.93 0.06,-1.09 -0.38,-3.43 0.57,-2.74 -0.11,-1.96 -2.80,-1.75 -5.09,-1.17 -4.13,-1.38 -3.58,-1.64 z" class="state nj" />
    </a>
    <g>
        <title>Delaware</title>
        <path id="DE" d="m 825.62,228.27 0.36,-2.14 0.37,-1.69 -1.62,0.39 -1.61,0.46 -2.20,1.76 1.72,5.04 2.26,5.65 2.10,9.69 1.61,6.30 5.01,-0.16 6.14,-1.18 -2.26,-7.38 -0.96,0.48 -3.55,-2.42 -1.77,-4.68 -1.93,-3.55 -3.14,-2.87 -0.86,-2.09 0.36,-1.61 z" class="state de" />
    </g>
    <a xlink:href="/participating-orgs#Maryland">
        <title>Maryland</title>
        <path id="MD" d="m 839.79,252.41 -6.00,1.20 -5.14,0.11 -1.84,-6.92 -1.92,-9.16 -2.57,-6.18 -1.28,-4.39 -7.50,1.62 -14.87,2.82 -37.45,7.55 1.13,5.01 0.96,5.65 0.32,-0.32 2.10,-2.42 2.26,-2.61 2.42,-0.61 1.45,-1.45 1.77,-2.58 1.29,0.64 2.90,-0.32 2.58,-2.10 2.00,-1.45 1.84,-0.48 1.64,1.12 2.90,1.45 1.93,1.77 1.21,1.53 4.12,1.69 0,2.90 5.49,1.29 1.14,0.54 1.41,-2.02 2.88,1.97 -1.27,2.48 -0.76,3.98 -1.77,2.58 0,2.10 0.64,1.77 5.06,1.35 4.31,-0.06 3.07,0.96 2.10,0.32 0.96,-2.10 -1.45,-2.10 0,-1.77 -2.42,-2.10 -2.10,-5.49 1.29,-5.33 -0.16,-2.10 -1.29,-1.29 c 0,0 1.45,-1.61 1.45,-2.26 0,-0.64 0.48,-2.10 0.48,-2.10 l 1.93,-1.29 1.93,-1.61 0.48,0.96 -1.45,1.61 -1.29,3.71 0.32,1.13 1.77,0.32 0.48,5.49 -2.10,0.96 0.32,3.55 0.48,-0.16 1.13,-1.93 1.61,1.77 -1.61,1.29 -0.32,3.39 2.58,3.39 3.87,0.48 1.61,-0.80 3.23,4.18 1.35,0.53 6.65,-2.79 2.00,-4.02 -0.43,-4.90 z m -15.96,9.02 1.13,2.50 0.16,1.77 1.13,1.85 c 0,0 0.88,-0.88 0.88,-1.21 0,-0.32 -0.72,-3.07 -0.72,-3.07 l -0.72,-2.34 -1.85,0.48 z" class="state md" />
    </a>
    <a xlink:href="/participating-orgs#Virginia">
        <title>Virginia</title>
        <path id="VA" d="m 831.63,266.06 -0.14,-1.94 6.45,-2.54 -0.77,3.21 -2.91,3.77 -0.41,4.58 0.46,3.39 -1.82,4.97 -2.16,1.91 -1.47,-4.64 0.44,-5.44 1.58,-4.18 0.76,-3.09 z m 3.34,28.30 -58.17,12.57 -37.42,5.27 -6.67,-0.37 -2.58,1.92 -7.33,0.22 -8.38,0.97 -10.91,1.61 10.46,-5.61 -0.01,-2.07 1.52,-2.14 10.55,-11.50 3.94,4.47 3.78,0.96 2.54,-1.14 2.23,-1.31 2.53,1.34 3.91,-1.42 1.87,-4.55 2.60,0.54 2.85,-2.13 1.79,0.49 2.82,-3.67 0.34,-2.08 -0.96,-1.27 1.00,-1.86 5.27,-12.27 0.61,-5.73 1.22,-0.52 2.17,2.44 3.93,-0.30 1.92,-7.57 2.79,-0.56 1.04,-2.74 2.57,-2.34 2.77,-5.69 0.08,-5.06 9.82,3.82 c 0.68,0.34 0.83,-5.04 0.83,-5.04 l 3.65,1.59 0.06,2.93 5.78,1.29 2.13,1.17 1.65,2.05 -0.65,3.64 -1.94,2.59 0.10,2.05 0.58,1.85 4.97,1.26 4.45,0.03 3.06,0.95 1.94,0.30 0.71,3.08 3.19,0.40 0.86,1.20 -0.43,4.69 1.37,1.10 -0.47,1.93 1.22,0.78 -0.22,1.38 -2.69,-0.09 0.08,1.61 2.28,1.54 0.12,1.41 1.77,1.78 0.49,2.52 -2.55,1.38 1.57,1.49 5.80,-1.68 3.60,6.01 z" class="state va" />
    </a>
    <g>
        <title>West Virginia</title>
        <path id="WV" d="m 761.18,238.96 1.11,4.94 1.08,6.03 2.13,-2.58 2.26,-3.07 2.53,-0.61 1.45,-1.45 1.77,-2.58 1.44,0.64 2.90,-0.32 2.58,-2.10 2.00,-1.45 1.84,-0.48 1.30,1.01 3.64,1.82 1.93,1.77 1.37,1.29 -0.76,5.55 -5.83,-2.54 -4.24,-1.62 -0.10,5.17 -2.74,5.53 -2.53,2.42 -1.19,2.74 -2.64,0.50 -0.89,3.60 -1.04,3.94 -3.96,0.34 -2.32,-2.43 -1.07,0.55 -0.63,5.46 -1.35,3.53 -4.95,10.95 0.89,1.16 -0.20,1.90 -2.80,3.88 -1.80,-0.54 -2.96,2.15 -2.54,-0.57 -1.99,4.55 c 0,0 -3.25,1.43 -3.92,1.36 -0.16,-0.01 -2.46,-1.24 -2.46,-1.24 l -2.33,1.37 -2.40,1.04 -3.74,-0.88 -1.12,-1.16 -2.19,-3.02 -3.14,-1.98 -1.71,-3.62 -4.28,-3.46 -0.64,-2.26 -2.58,-1.45 -0.80,-1.61 -0.24,-5.25 2.18,-0.08 1.93,-0.80 0.16,-2.74 1.61,-1.45 0.16,-5.01 0.96,-3.87 1.29,-0.64 1.29,1.13 0.48,1.77 1.77,-0.96 0.48,-1.61 -1.13,-1.77 0,-2.42 0.96,-1.29 2.26,-3.39 1.29,-1.45 2.10,0.48 2.26,-1.61 3.07,-3.39 2.26,-3.87 0.32,-5.65 0.48,-5.01 0,-4.68 -1.13,-3.07 0.96,-1.45 1.28,-1.29 3.49,19.82 4.63,-0.75 12.42,-1.79 z" class="state empty wv" />
    </g>
    <a xlink:href="/participating-orgs#Ohio">
        <title>Ohio</title>
        <path id="OH" d="m 735.32,193.32 -6.09,4.05 -3.87,2.26 -3.39,3.71 -4.04,3.87 -3.23,0.80 -2.90,0.48 -5.49,2.58 -2.10,0.16 -3.39,-3.07 -5.17,0.64 -2.58,-1.45 -2.38,-1.35 -4.89,0.70 -10.18,1.61 -11.20,2.18 1.29,14.63 1.77,13.74 2.58,23.44 0.56,4.83 4.12,-0.12 2.42,-0.80 3.36,1.50 2.07,4.36 5.13,-0.01 1.89,2.11 1.76,-0.06 2.53,-1.34 2.50,0.37 5.42,0.48 1.72,-2.13 2.34,-1.29 2.07,-0.68 0.64,2.74 1.77,0.96 3.47,2.34 2.18,-0.08 1.33,-0.49 0.18,-2.76 1.58,-1.45 0.09,-4.79 c 0,0 1.02,-4.10 1.02,-4.10 l 1.29,-0.60 1.32,1.14 0.53,1.69 1.71,-1.03 0.43,-1.46 -1.11,-1.90 0.06,-2.31 0.74,-1.07 2.15,-3.30 1.05,-1.54 2.10,0.48 2.26,-1.61 3.07,-3.39 2.77,-4.07 0.32,-5.05 0.48,-5.01 -0.17,-5.30 -0.95,-2.89 0.35,-1.18 1.80,-1.75 -2.28,-9.04 -2.90,-19.36 z" class="state oh" />
    </a>
    <a xlink:href="/participating-orgs#Indiana">
        <title>Indiana</title>
        <path id="IN" d="m 619.56,299.97 0.06,-2.85 0.48,-4.52 2.26,-2.90 1.77,-3.87 2.58,-4.20 -0.48,-5.81 -1.77,-2.74 -0.32,-3.23 0.80,-5.49 -0.48,-6.95 -1.29,-16.00 -1.29,-15.35 -0.97,-11.72 3.07,0.88 1.45,0.96 1.13,-0.32 2.10,-1.93 2.82,-1.61 5.09,-0.16 21.98,-2.26 5.57,-0.53 1.50,15.95 4.25,36.84 0.59,5.77 -0.37,2.26 1.22,1.79 0.09,1.37 -2.52,1.59 -3.53,1.55 -3.20,0.55 -0.59,4.86 -4.57,3.31 -2.79,4.01 0.32,2.37 -0.58,1.53 -3.32,0 -1.58,-1.61 -2.49,1.26 -2.68,1.50 0.16,3.05 -1.19,0.25 -0.46,-1.01 -2.16,-1.50 -3.25,1.34 -1.55,3.00 -1.43,-0.80 -1.45,-1.59 -4.46,0.48 -5.59,0.96 -2.90,1.55 z" class="state in" />
    </a>
    <a xlink:href="/participating-orgs#Illinois">
        <title>Illinois</title>
        <path id="IL" d="m 619.54,300.34 0.03,-3.22 0.56,-4.64 2.33,-2.91 1.86,-4.07 2.23,-3.99 -0.37,-5.25 -2.00,-3.54 -0.09,-3.34 0.69,-5.26 -0.82,-7.17 -1.06,-15.77 -1.29,-15.01 -0.92,-11.63 -0.27,-0.92 -0.80,-2.58 -1.29,-3.71 -1.61,-1.77 -1.45,-2.58 -0.23,-5.48 -45.79,2.59 0.22,2.37 2.28,0.68 0.91,1.14 0.45,1.82 3.88,3.42 0.68,2.28 -0.68,3.42 -1.82,3.65 -0.68,2.51 -2.28,1.82 -1.82,0.68 -5.25,1.37 -0.68,1.82 -0.68,2.05 0.68,1.37 1.82,1.60 -0.22,4.11 -1.82,1.60 -0.68,1.60 0,2.74 -1.82,0.45 -1.60,1.14 -0.22,1.37 0.22,2.05 -1.71,1.31 -1.02,2.80 0.45,3.65 2.28,7.31 7.31,7.54 5.48,3.65 -0.22,4.34 0.91,1.37 6.40,0.45 2.74,1.37 -0.68,3.65 -2.28,5.94 -0.68,3.20 2.28,3.88 6.40,5.25 4.57,0.68 2.05,5.02 2.05,3.20 -0.91,2.97 1.60,4.11 1.82,2.05 1.41,-0.88 0.90,-2.07 2.21,-1.74 2.13,-0.61 2.60,1.17 3.62,1.37 1.18,-0.29 0.19,-2.25 -1.28,-2.41 0.30,-2.37 1.83,-1.34 3.02,-0.81 1.26,-0.45 -0.61,-1.38 -0.79,-2.35 1.43,-0.98 1.15,-3.21 z" class="state il" />
    </a>
    <a xlink:href="/participating-orgs#Connecticut">
        <title>Connecticut</title>
        <path id="CT" d="m 874.06,178.86 -3.67,-14.87 -4.71,0.92 -21.22,4.74 1.00,3.22 1.45,7.27 0.17,8.96 -1.22,2.17 1.92,1.93 4.27,-3.90 3.55,-3.23 1.93,-2.10 0.80,0.64 2.74,-1.45 5.17,-1.13 7.79,-3.17 z" class="state ct" />
    </a>
    <a xlink:href="/participating-orgs#Wisconsin">
        <title>Wisconsin</title>
        <path id="WI" d="m 615.06,197.36 -0.06,-3.15 -1.17,-4.52 -0.64,-6.14 -1.13,-2.42 0.96,-3.07 0.80,-2.90 1.45,-2.58 -0.64,-3.39 -0.64,-3.55 0.48,-1.77 1.93,-2.42 0.16,-2.74 -0.80,-1.29 0.64,-2.58 -0.45,-4.17 2.74,-5.65 2.90,-6.78 0.16,-2.26 -0.32,-0.96 -0.80,0.48 -4.20,6.30 -2.74,4.04 -1.93,1.77 -0.80,2.26 -1.95,0.80 -1.13,1.93 -1.45,-0.32 -0.16,-1.77 1.29,-2.42 2.10,-4.68 1.77,-1.61 0.99,-2.35 -2.56,-1.90 -1.97,-10.36 -3.54,-1.34 -1.94,-2.30 -12.12,-2.72 -2.87,-1.01 -8.21,-2.16 -7.91,-1.15 -3.76,-5.13 -0.75,0.55 -1.19,-0.16 -0.64,-1.13 -1.33,0.29 -1.13,0.16 -1.77,0.96 -0.96,-0.64 0.64,-1.93 1.93,-3.07 1.13,-1.13 -1.93,-1.45 -2.10,0.80 -2.90,1.93 -7.43,3.23 -2.90,0.64 -2.90,-0.48 -0.98,-0.87 -2.11,2.83 -0.22,2.74 0,8.45 -1.14,1.60 -5.25,3.88 -2.28,5.94 0.45,0.22 2.51,2.05 0.68,3.20 -1.82,3.20 0,3.88 0.45,6.63 2.97,2.97 3.42,0 1.82,3.20 3.42,0.45 3.88,5.71 7.08,4.11 2.05,2.74 0.91,7.43 0.68,3.31 2.28,1.60 0.22,1.37 -2.05,3.42 0.22,3.20 2.51,3.88 2.51,1.14 2.97,0.45 1.34,1.38 45.29,-2.66 z" class="state wi" />
    </a>
    <a xlink:href="/participating-orgs#North Carolina">
        <title>North Carolina</title>
        <path id="NC" d="m 834.98,294.31 2.08,4.91 3.55,6.46 2.42,2.42 0.64,2.26 -2.42,0.16 0.80,0.64 -0.32,4.20 -2.58,1.29 -0.64,2.10 -1.29,2.90 -3.71,1.61 -2.42,-0.32 -1.45,-0.16 -1.61,-1.29 0.32,1.29 0,0.96 1.93,0 0.80,1.29 -1.93,6.30 4.20,0 0.64,1.61 2.26,-2.26 1.29,-0.48 -1.93,3.55 -3.07,4.84 -1.29,0 -1.13,-0.48 -2.74,0.64 -5.17,2.42 -6.46,5.33 -3.39,4.68 -1.93,6.46 -0.48,2.42 -4.68,0.48 -5.45,1.33 -9.94,-8.20 -12.60,-7.59 -2.90,-0.80 -12.60,1.45 -4.27,0.75 -1.61,-3.23 -2.97,-2.11 -16.48,0.48 -7.27,0.80 -9.05,4.52 -6.14,2.58 -21.17,2.58 0.50,-4.05 1.77,-1.45 2.74,-0.64 0.64,-3.71 4.20,-2.74 3.87,-1.45 4.20,-3.55 4.36,-2.10 0.64,-3.07 3.87,-3.87 0.64,-0.16 c 0,0 0,1.13 0.80,1.13 0.80,0 1.93,0.32 1.93,0.32 l 2.26,-3.55 2.10,-0.64 2.26,0.32 1.61,-3.55 2.90,-2.58 0.48,-2.10 0.18,-3.64 4.27,-0.02 7.19,-0.85 15.75,-2.25 15.13,-2.08 21.64,-4.71 19.98,-4.25 11.17,-2.40 5.04,-1.15 z m 4.27,33.20 2.58,-2.50 3.15,-2.58 1.53,-0.64 0.16,-2.02 -0.64,-6.14 -1.45,-2.34 -0.64,-1.85 0.72,-0.24 2.74,5.49 0.40,4.44 -0.16,3.39 -3.39,1.53 -2.82,2.42 -1.13,1.21 -1.05,-0.16 z" class="state nc" />
    </a>
    <a xlink:href="/participating-orgs#DC">
        <title>Washington, D.C.</title>
        <path class="state dc" d="m 805.81,250.84 -1.85,-1.82 -1.23,-0.68 1.44,-2.02 2.88,1.94 -1.24,2.58 z" />
    </a>
    <a xlink:href="/participating-orgs#Maryland">
        <title>Maryland</title>
        <path id="MA" d="m 899.62,173.25 2.17,-0.68 0.45,-1.71 1.02,0.11 1.02,2.28 -1.25,0.45 -3.88,0.11 0.45,-0.57 z m -9.37,0.80 2.28,-2.62 1.60,0 1.82,1.48 -2.40,1.02 -2.17,1.02 -1.14,-0.91 z m -34.79,-21.98 17.64,-4.64 2.26,-0.64 1.91,-2.79 3.73,-1.66 2.88,4.41 -2.42,5.17 -0.32,1.45 1.93,2.58 1.13,-0.80 1.77,0 2.26,2.58 3.87,5.98 3.55,0.48 2.26,-0.96 1.77,-1.77 -0.80,-2.74 -2.10,-1.61 -1.45,0.80 -0.96,-1.29 0.48,-0.48 2.10,-0.16 1.77,0.80 1.93,2.42 0.96,2.90 0.32,2.42 -4.20,1.45 -3.87,1.93 -3.87,4.52 -1.93,1.45 0,-0.96 2.42,-1.45 0.48,-1.77 -0.80,-3.07 -2.90,1.45 -0.80,1.45 0.48,2.26 -2.06,1.00 -2.74,-4.52 -3.39,-4.36 -2.07,-1.81 -6.53,1.87 -5.09,1.05 -20.67,4.59 -0.66,-4.76 0.64,-10.58 4.28,-0.88 6.78,-1.29 z" class="state ma" />
    </a>
    <a xlink:href="/participating-orgs#Tennessee">
        <title>Tennessee</title>
        <path id="TN" d="m 696.67,318.25 -51.89,5.01 -15.75,1.77 -4.62,0.51 -3.86,-0.02 -0.22,4.10 -8.18,0.26 -6.95,0.64 -8.09,-0.12 -1.41,7.07 -1.69,5.48 -3.29,2.75 -1.34,4.38 -0.32,2.58 -4.04,2.26 1.45,3.55 -0.96,4.36 -0.96,0.78 108.15,-10.40 0.40,-3.95 1.81,-1.49 2.83,-0.74 0.67,-3.71 4.09,-2.70 4.04,-1.49 4.08,-3.57 4.43,-2.02 0.52,-3.06 4.06,-3.98 0.55,-0.11 c 0,0 0.03,1.13 0.83,1.13 0.80,0 1.93,0.35 1.93,0.35 l 2.26,-3.58 2.07,-0.64 2.27,0.29 1.59,-3.53 2.95,-2.64 0.42,-1.93 0.30,-3.71 -2.14,-0.19 -2.60,2.02 -6.99,0.02 -18.35,2.38 -8.06,1.90 z" class="state tn" />
    </a>
    <a xlink:href="/participating-orgs#Arkansas">
        <title>Arkansas</title>
        <path id="AR" d="m 593.82,343.05 -3.97,0.71 -5.11,-0.63 0.42,-1.60 2.97,-2.56 0.94,-3.65 -1.82,-2.97 -78.41,2.51 1.60,6.85 -1e-5,8.23 1.37,10.97 0.22,37.83 2.28,1.94 2.97,-1.37 2.74,1.14 0.68,6.57 55.62,-1.14 1.14,-2.09 -0.28,-3.54 -1.82,-2.97 1.59,-1.48 -1.59,-2.51 0.68,-2.50 1.36,-5.60 2.51,-2.06 -0.68,-2.28 3.65,-5.37 2.74,-1.36 -0.11,-1.49 -0.34,-1.82 2.85,-5.59 2.40,-1.25 0.38,-3.42 1.77,-1.24 -3.14,-0.48 -1.34,-4.01 2.80,-2.37 0.55,-2.01 1.27,-4.04 1.06,-3.25 z" class="state ar" />
    </a>
    <a xlink:href="/participating-orgs#Missouri">
        <title>Missouri</title>
        <path id="MO" d="m 558.44,248.11 -2.51,-3.08 -1.14,-2.28 -64.35,2.40 -2.28,0.11 1.25,2.51 -0.22,2.28 2.51,3.88 3.08,4.11 3.08,2.74 2.16,0.22 1.49,0.91 0,2.97 -1.82,1.60 -0.45,2.28 2.05,3.42 2.51,2.97 2.51,1.82 1.37,11.65 0.31,36.07 0.22,4.68 0.45,5.38 22.43,-0.86 23.20,-0.68 20.80,-0.80 11.65,-0.23 2.16,3.42 -0.68,3.30 -3.08,2.40 -0.57,1.83 5.37,0.45 3.89,-0.68 1.71,-5.49 0.65,-5.85 2.09,-2.55 2.59,-1.48 0.05,-3.05 1.01,-1.93 -1.69,-2.54 -1.33,0.98 -1.99,-2.22 -1.28,-4.75 0.80,-2.51 -1.94,-3.42 -1.83,-4.57 -4.79,-0.79 -6.96,-5.59 -1.71,-4.11 0.79,-3.20 2.05,-6.05 0.45,-2.86 -1.94,-1.03 -6.85,-0.79 -1.02,-1.71 -0.11,-4.23 -5.48,-3.43 -6.97,-7.77 -2.28,-7.31 -0.23,-4.22 0.80,-2.28 z" class="state mo" />
    </a>
    <a xlink:href="/participating-orgs#Georgia">
        <title>Georgia</title>
        <path id="GA" d="m 672.29,355.55 0,2.18 0.16,2.10 0.64,3.39 3.39,7.92 2.42,9.86 1.45,6.14 1.61,4.84 1.45,6.95 2.10,6.30 2.58,3.39 0.48,3.39 1.93,0.80 0.16,2.10 -1.77,4.84 -0.48,3.23 -0.16,1.93 1.61,4.36 0.32,5.33 -0.80,2.42 0.64,0.80 1.45,0.80 0.20,3.21 2.23,3.34 2.25,2.16 7.92,0.16 10.81,-0.64 21.51,-1.29 5.44,-0.67 4.57,0.02 0.16,2.90 2.58,0.80 0.32,-4.36 -1.61,-4.52 1.13,-1.61 5.81,0.80 4.97,0.31 -0.77,-6.29 2.26,-10.02 1.45,-4.20 -0.48,-2.58 3.33,-6.24 -0.51,-1.35 -1.91,0.70 -2.58,-1.29 -0.64,-2.10 -1.29,-3.55 -2.26,-2.10 -2.58,-0.64 -1.61,-4.84 -2.92,-6.33 -4.20,-1.93 -2.10,-1.93 -1.29,-2.58 -2.10,-1.93 -2.26,-1.29 -2.26,-2.90 -3.07,-2.26 -4.52,-1.77 -0.48,-1.45 -2.42,-2.90 -0.48,-1.45 -3.39,-4.97 -3.51,0.09 -3.75,-2.35 -1.41,-1.29 -0.32,-1.77 0.87,-1.93 2.22,-1.11 -0.63,-2.09 -41.86,4.98 z" class="state ga" />
    </a>
    <a xlink:href="/participating-orgs#South Carolina">
        <title>South Carolina</title>
        <path id="SC" d="m 764.94,408.16 -1.77,0.96 -2.58,-1.29 -0.64,-2.10 -1.29,-3.55 -2.26,-2.10 -2.58,-0.64 -1.61,-4.84 -2.74,-5.98 -4.20,-1.93 -2.10,-1.93 -1.29,-2.58 -2.10,-1.93 -2.26,-1.29 -2.26,-2.90 -3.07,-2.26 -4.52,-1.77 -0.48,-1.45 -2.42,-2.90 -0.48,-1.45 -3.39,-5.17 -3.39,0.16 -4.04,-2.42 -1.29,-1.29 -0.32,-1.77 0.80,-1.93 2.26,-0.96 -0.51,-2.28 5.76,-2.33 9.11,-4.58 7.77,-0.80 16.11,-0.42 2.63,1.87 1.67,3.35 4.30,-0.60 12.60,-1.45 2.90,0.80 12.60,7.59 10.10,8.12 -5.42,5.45 -2.58,6.14 -0.48,6.30 -1.61,0.80 -1.13,2.74 -2.42,0.64 -2.10,3.55 -2.74,2.74 -2.26,3.39 -1.61,0.80 -3.55,3.39 -2.90,0.16 0.96,3.23 -5.01,5.49 -2.10,1.29 z" class="state sc" />
    </a>
    <a xlink:href="/participating-orgs#Kentucky">
        <title>Kentucky</title>
        <path id="KY" d="m 725.99,295.27 -2.29,2.40 -3.57,3.99 -4.92,5.46 -1.21,1.71 -0.06,2.10 -4.37,2.16 -5.65,3.39 -7.23,1.79 -51.86,4.89 -15.75,1.77 -4.62,0.51 -3.86,-0.02 -0.22,4.22 -8.17,0.14 -6.95,0.64 -7.98,-0.06 1.20,-1.32 2.49,-1.54 0.22,-3.20 0.91,-1.82 -1.60,-2.53 0.80,-1.90 2.26,-1.77 2.10,-0.64 2.74,1.29 3.55,1.29 1.13,-0.32 0.16,-2.26 -1.29,-2.42 0.32,-2.26 1.93,-1.45 2.58,-0.64 1.61,-0.64 -0.80,-1.77 -0.64,-1.93 1.50,-0.99 c 0.00,-0.03 1.25,-3.52 1.23,-3.65 l 3.05,-1.47 5.31,-0.96 4.49,-0.48 1.39,1.62 1.52,0.87 1.59,-3.10 3.18,-1.28 2.20,1.48 0.41,0.99 1.17,-0.26 -0.16,-2.95 3.13,-1.74 2.14,-1.07 1.52,1.66 3.31,-0.04 0.58,-1.57 -0.36,-2.26 2.60,-3.99 4.77,-3.43 0.70,-4.83 2.92,-0.45 3.79,-1.64 2.44,-1.70 -0.19,-1.56 -1.14,-1.45 0.56,-2.99 4.18,-0.11 2.29,-0.74 3.34,1.42 2.05,4.36 5.13,0.01 2.05,2.20 1.61,-0.14 2.60,-1.27 5.23,0.57 2.57,0.21 1.68,-2.05 2.61,-1.42 1.88,-0.70 0.64,2.83 2.04,1.05 2.64,2.08 0.11,5.67 0.80,1.57 2.58,1.55 0.77,2.29 4.15,3.43 1.80,3.62 2.45,1.65 z" class="state ky" />
    </a>
    <g>
        <title>Alabama</title>
        <path id="AL" d="m 631.30,460.41 -1.49,-14.32 -2.74,-18.75 0.16,-14.06 0.80,-31.03 -0.16,-16.65 0.16,-6.41 44.48,-3.61 -0.14,2.18 0.16,2.10 0.64,3.39 3.39,7.92 2.42,9.86 1.45,6.14 1.61,4.84 1.45,6.95 2.10,6.30 2.58,3.39 0.48,3.39 1.93,0.80 0.16,2.10 -1.77,4.84 -0.48,3.23 -0.16,1.93 1.61,4.36 0.32,5.33 -0.80,2.42 0.64,0.80 1.45,0.80 0.32,2.88 -5.59,-0.35 -6.78,0.64 -25.54,2.90 -10.41,1.40 -0.22,2.87 1.77,1.77 2.58,1.93 0.58,7.93 -5.54,2.57 -2.74,-0.32 2.74,-1.93 0,-0.96 -3.07,-5.98 -2.26,-0.64 -1.45,4.36 -1.29,2.74 -0.64,-0.16 -2.74,0 z" class="state al" />
    </g>
    <a xlink:href="/participating-orgs#Louisiana">
        <title>Louisiana</title>
        <path id="LA" d="m 607.96,459.16 -3.28,-3.16 1.00,-5.50 -0.66,-0.89 -9.26,1.00 -25.02,0.45 -0.68,-2.39 0.91,-8.45 3.31,-5.94 5.03,-8.69 -0.57,-2.39 1.25,-0.68 0.45,-1.95 -2.28,-2.05 -0.11,-1.94 -1.83,-4.34 -0.14,-6.33 -55.47,0.92 0.02,9.57 0.68,9.37 0.68,3.88 2.51,4.11 0.91,5.02 4.34,5.48 0.22,3.20 0.68,0.68 -0.68,8.45 -2.97,5.02 1.60,2.05 -0.68,2.51 -0.68,7.31 -1.37,3.20 0.12,3.61 4.68,-1.52 12.11,0.20 10.34,3.55 6.46,1.13 3.71,-1.45 3.23,1.13 3.23,0.96 0.80,-2.10 -3.23,-1.13 -2.58,0.48 -2.74,-1.61 c 0,0 0.16,-1.29 0.80,-1.45 0.64,-0.16 3.07,-0.96 3.07,-0.96 l 1.77,1.45 1.77,-0.96 3.23,0.64 1.45,2.42 0.32,2.26 4.52,0.32 1.77,1.77 -0.80,1.61 -1.29,0.80 1.61,1.61 8.40,3.55 3.55,-1.29 0.96,-2.42 2.58,-0.64 1.77,-1.45 1.29,0.96 0.80,2.90 -2.26,0.80 0.64,0.64 3.39,-1.29 2.26,-3.39 0.80,-0.48 -2.10,-0.32 0.80,-1.61 -0.16,-1.45 2.10,-0.48 1.13,-1.29 0.64,0.80 c 0,0 -0.16,3.07 0.64,3.07 0.80,0 4.20,0.64 4.20,0.64 l 4.04,1.93 0.96,1.45 2.90,0 1.13,0.96 2.26,-3.07 0,-1.45 -1.29,0 -3.39,-2.74 -5.81,-0.80 -3.23,-2.26 1.13,-2.74 2.26,0.32 0.16,-0.64 -1.77,-0.96 0,-0.48 3.23,0 1.77,-3.07 -1.29,-1.93 -0.32,-2.74 -1.45,0.16 -1.93,2.10 -0.64,2.58 -3.07,-0.64 -0.96,-1.77 1.77,-1.93 1.90,-3.44 -1.06,-2.41 -1.16,-3.98 z" class="state la" />
    </a>
    <a xlink:href="/participating-orgs#Mississippi">
        <title>Mississippi</title>
        <path id="MS" d="m 631.55,459.34 -0.25,1.25 -5.17,0 -1.45,-0.80 -2.10,-0.32 -6.78,1.93 -1.77,-0.80 -2.58,4.20 -1.10,0.77 -1.12,-2.48 -1.14,-3.88 -3.42,-3.20 1.14,-5.54 -0.68,-0.91 -1.82,0.22 -7.91,0.87 -24.54,0.37 -0.76,-2.22 0.87,-8.37 3.11,-5.67 5.22,-9.14 -0.44,-2.43 1.23,-0.65 0.43,-1.91 -2.31,-2.07 -0.11,-2.14 -1.83,-4.12 -0.10,-5.96 1.32,-2.48 -0.22,-3.41 -1.76,-3.08 1.52,-1.48 -1.57,-2.49 0.45,-1.65 1.57,-6.52 2.48,-2.03 -0.64,-2.36 3.65,-5.30 2.83,-1.35 -0.22,-1.67 -0.28,-1.68 2.87,-5.56 2.34,-1.23 0.15,-0.89 37.34,-3.88 0.18,6.28 0.16,16.65 -0.80,31.03 -0.16,14.06 2.74,18.75 1.48,13.39 z" class="state ms" />
    </a>
    <a xlink:href="/participating-orgs#Iowa">
        <title>Iowa</title>
        <path id="IA" d="m 569.19,199.58 0.26,2.78 2.22,0.57 0.95,1.22 0.50,1.85 3.79,3.35 0.68,2.39 -0.67,3.42 -1.58,3.23 -0.79,2.74 -2.17,1.60 -1.71,0.57 -5.57,1.86 -1.39,3.84 0.72,1.37 1.84,1.68 -0.28,4.03 -1.76,1.53 -0.77,1.64 0.12,2.77 -1.88,0.45 -1.62,1.10 -0.27,1.35 0.27,2.11 -1.55,1.11 -2.47,-3.13 -1.26,-2.44 -65.73,2.51 -0.91,0.16 -2.05,-4.51 -0.22,-6.63 -1.60,-4.11 -0.68,-5.25 -2.28,-3.65 -0.91,-4.80 -2.74,-7.54 -1.14,-5.37 -1.37,-2.17 -1.60,-2.74 1.95,-4.84 1.37,-5.71 -2.74,-2.05 -0.45,-2.74 0.91,-2.51 1.71,0 82.65,-1.26 0.83,4.18 2.25,1.56 0.25,1.42 -2.02,3.38 0.19,3.20 2.51,3.79 2.52,1.29 3.07,0.50 0.65,0.83 z" class="state ia" />
    </a>
    <a xlink:href="/participating-orgs#Minnesota">
        <title>Minnesota</title>
        <path id="MN" d="m 475.23,128.82 -0.45,-8.45 -1.82,-7.31 -1.82,-13.48 -0.45,-9.83 -1.82,-3.42 -1.60,-5.02 0,-10.28 0.68,-3.88 -1.82,-5.45 30.13,0.03 0.32,-8.24 0.64,-0.16 2.26,0.48 1.93,0.80 0.80,5.49 1.45,6.14 1.61,1.61 4.84,0 0.32,1.45 6.30,0.32 0,2.10 4.84,0 0.32,-1.29 1.13,-1.13 2.26,-0.64 1.29,0.96 2.90,0 3.87,2.58 5.33,2.42 2.42,0.48 0.48,-0.96 1.45,-0.48 0.48,2.90 2.58,1.29 0.48,-0.48 1.29,0.16 0,2.10 2.58,0.96 3.07,0 1.61,-0.80 3.23,-3.23 2.58,-0.48 0.80,1.77 0.48,1.29 0.96,0 0.96,-0.80 8.89,-0.32 1.77,3.07 0.64,0 0.71,-1.08 4.43,-0.37 -0.61,2.27 -3.93,1.83 -9.24,4.06 -4.77,2.00 -3.07,2.58 -2.42,3.55 -2.26,3.87 -1.77,0.80 -4.52,5.01 -1.29,0.16 -4.32,2.75 -2.46,3.20 -0.22,3.19 0.09,8.04 -1.37,1.68 -5.08,3.75 -2.23,5.98 2.87,2.23 0.67,3.22 -1.85,3.23 0.17,3.74 0.36,6.73 3.02,3.00 3.32,0 1.89,3.13 3.37,0.50 3.85,5.67 7.08,4.11 2.14,2.87 0.67,6.43 -81.21,1.14 -0.33,-35.67 -0.45,-2.97 -4.11,-3.42 -1.14,-1.82 0,-1.60 2.05,-1.60 1.37,-1.37 0.22,-3.20 z" class="state mn" />
    </a>
    <g>
        <title>Oklahoma</title>
        <path id="OK" d="m 380.34,320.82 -16.68,-1.27 -0.88,10.95 20.46,1.15 32.05,1.30 -2.33,24.41 -0.45,17.83 0.22,1.60 4.34,3.65 2.05,1.14 0.68,-0.22 0.68,-2.05 1.37,1.82 2.05,0 0,-1.37 2.74,1.37 -0.45,3.88 4.11,0.22 2.51,1.14 4.11,0.68 2.51,1.82 2.28,-2.05 3.42,0.68 2.51,3.42 0.91,0 0,2.28 2.28,0.68 2.28,-2.28 1.82,0.68 2.51,0 0.91,2.51 6.30,2.07 1.37,-0.68 1.82,-4.11 1.14,0 1.14,2.05 4.11,0.68 3.65,1.37 2.97,0.91 1.82,-0.91 0.68,-2.51 4.34,0 2.05,0.91 2.74,-2.05 1.14,0 0.68,1.60 4.11,0 1.60,-2.05 1.82,0.45 2.05,2.51 3.20,1.82 3.20,0.91 1.94,1.11 -0.38,-37.21 -1.37,-10.97 -0.16,-8.87 -1.43,-6.53 -0.77,-7.17 -0.06,-3.81 -12.13,0.31 -46.41,-0.45 -45.03,-2.05 -24.29,-1.37 z" class="state ok" />
    </g>
    <a xlink:href="/participating-orgs#Texas">
        <title>Texas</title>
        <path id="TX" d="m 361.46,330.57 22.69,1.08 31.09,1.14 -2.33,23.45 -0.29,18.15 0.06,2.08 4.34,3.81 1.98,1.44 1.18,-0.55 0.37,-1.81 1.14,1.80 2.11,0.04 -0.00,-1.44 1.66,0.96 1.13,0.40 -0.35,3.96 4.08,0.09 2.92,1.19 3.95,0.52 2.38,2.07 2.12,-2.07 3.72,0.61 2.22,3.22 1.07,0.32 -0.16,1.96 2.21,0.79 2.33,-2.05 2.13,0.61 2.22,0.03 0.93,2.43 6.32,2.11 1.59,-0.76 1.48,-4.17 0.34,0 0.90,0.08 1.22,2.06 3.92,0.66 3.33,1.12 3.42,1.19 1.84,-0.97 0.71,-2.51 4.45,0.04 1.80,0.93 2.79,-2.10 1.10,0.04 0.85,1.60 4.05,0 1.51,-2.02 1.86,0.40 1.94,2.40 3.52,2.04 2.85,0.80 1.51,0.79 2.44,1.99 3.04,-1.32 2.69,1.13 0.56,6.10 -0.03,9.70 0.68,9.53 0.70,3.60 2.67,4.41 0.89,4.95 4.21,5.53 0.19,3.14 0.74,0.78 -0.73,8.38 -2.87,5.00 1.53,2.15 -0.63,2.33 -0.66,7.40 -1.50,3.33 0.29,3.50 -5.66,1.58 -9.86,4.52 -0.96,1.93 -2.58,1.93 -2.10,1.45 -1.29,0.80 -5.65,5.33 -2.74,2.10 -5.33,3.23 -5.65,2.42 -6.30,3.39 -1.77,1.45 -5.81,3.55 -3.39,0.64 -3.87,5.49 -4.04,0.32 -0.96,1.93 2.26,1.93 -1.45,5.49 -1.29,4.52 -1.13,3.87 -0.80,4.52 0.80,2.42 1.77,6.95 0.96,6.14 1.77,2.74 -0.96,1.45 -3.07,1.93 -5.65,-3.87 -5.49,-1.13 -1.29,0.48 -3.23,-0.64 -4.20,-3.07 -5.17,-1.13 -7.59,-3.39 -2.10,-3.87 -1.29,-6.46 -3.23,-1.93 -0.64,-2.26 0.64,-0.64 0.32,-3.39 -1.29,-0.64 -0.64,-0.96 1.29,-4.36 -1.61,-2.26 -3.23,-1.29 -3.39,-4.36 -3.55,-6.62 -4.20,-2.58 0.16,-1.93 -5.33,-12.28 -0.80,-4.20 -1.77,-1.93 -0.16,-1.45 -5.98,-5.33 -2.58,-3.07 0,-1.13 -2.58,-2.10 -6.78,-1.13 -7.43,-0.64 -3.07,-2.26 -4.52,1.77 -3.55,1.45 -2.26,3.23 -0.96,3.71 -4.36,6.14 -2.42,2.42 -2.58,-0.96 -1.77,-1.13 -1.93,-0.64 -3.87,-2.26 0,-0.64 -1.77,-1.93 -5.17,-2.10 -7.43,-7.75 -2.26,-4.68 0,-8.08 -3.23,-6.46 -0.48,-2.74 -1.61,-0.96 -1.13,-2.10 -5.01,-2.10 -1.29,-1.61 -7.11,-7.92 -1.29,-3.23 -4.68,-2.26 -1.45,-4.36 -2.58,-2.90 -1.93,-0.48 -0.64,-4.67 8.00,0.68 29.03,2.74 29.03,1.60 2.23,-19.46 3.88,-55.55 1.60,-18.74 1.37,0.02 m 99.02,229.66 -0.56,-7.11 -2.74,-7.19 -0.56,-7.03 1.53,-8.24 3.31,-6.87 3.47,-5.41 3.15,-3.55 0.64,0.24 -4.76,6.62 -4.36,6.54 -2.02,6.62 -0.32,5.17 0.88,6.14 2.58,7.19 0.48,5.17 0.16,1.45 -0.88,0.24 z" class="state tx" />
    </a>
    <a xlink:href="/participating-orgs#New Mexico">
        <title>New Mexico</title>
        <path id="NM" d="m 288.15,424.01 -0.77,-4.74 8.64,0.52 30.17,2.94 27.26,1.68 2.21,-18.70 3.85,-55.87 1.73,-19.38 1.57,0.12 0.82,-11.16 -104.00,-10.63 -17.49,120.43 15.46,1.98 1.29,-10.02 29.23,2.82 z" class="state nm" />
    </a>
    <g>
        <title>Kansas</title>
        <path id="KS" d="m 507.88,324.38 -12.61,0.20 -46.08,-0.45 -44.55,-2.05 -24.62,-1.25 3.89,-64.59 22.08,0.67 40.28,0.84 44.30,0.98 5.09,0 2.18,2.16 2.01,-0.02 1.64,1.01 -0.06,3.00 -1.82,1.72 -0.33,2.23 1.84,3.40 2.95,3.19 2.32,1.61 1.30,11.24 0.18,36.08 z" class="state ks" />
    </g>
    <g>
        <title>Nebraska</title>
        <path id="NE" d="m 486.09,240.70 3.23,7.01 -0.12,2.30 3.45,5.49 2.71,3.15 -5.04,0 -43.48,-0.93 -40.78,-0.89 -22.25,-0.78 1.07,-21.32 -32.31,-2.92 4.34,-44.00 15.54,1.02 20.11,1.14 17.83,1.14 23.77,1.14 10.74,-0.45 2.05,2.28 4.80,2.97 1.14,0.91 4.34,-1.37 3.88,-0.45 2.74,-0.22 1.82,1.37 4.05,1.60 2.97,1.60 0.45,1.60 0.91,2.05 1.82,0 0.79,0.04 0.89,4.68 2.92,8.46 0.57,3.75 2.52,3.77 0.56,5.11 1.60,4.24 0.25,6.47 z" class="state ne" />
    </g>
    <g>
        <title>South Dakota</title>
        <path id="SD" d="m 476.44,204.02 -0.04,-0.58 -2.89,-4.84 1.86,-4.71 1.49,-5.88 -2.78,-2.07 -0.38,-2.74 0.79,-2.55 3.18,0.01 -0.12,-5.00 -0.33,-30.17 -0.61,-3.76 -4.07,-3.33 -0.98,-1.67 -0.06,-1.60 2.02,-1.52 1.53,-1.66 0.24,-2.65 -58.25,-1.60 -54.79,-3.44 -5.32,63.69 14.59,0.90 19.94,1.20 17.74,0.92 23.77,1.30 11.98,-0.42 1.96,2.24 5.19,3.25 0.76,0.72 4.54,-1.45 6.54,-0.61 1.67,1.33 4.20,1.59 2.94,1.63 0.39,1.48 1.03,2.24 2.23,-0.20 z" class="state sd" />
    </g>
    <a xlink:href="/participating-orgs#North Dakota">
        <title>North Dakota</title>
        <path id="ND" d="m 475.30,128.91 -0.61,-8.43 -1.67,-6.81 -1.89,-13.02 -0.45,-10.98 -1.73,-3.07 -1.75,-5.19 0.03,-10.44 0.62,-3.82 -1.83,-5.46 -28.64,-0.56 -18.59,-0.64 -26.51,-1.29 -22.94,-2.13 -6.99,67.17 54.93,3.34 58.06,1.38 z" class="state nd" />
    </a>
    <a xlink:href="/participating-orgs#Wyoming">
        <title>Wyoming</title>
        <path id="WY" d="m 360.37,143.27 -106.74,-13.45 -14.08,88.45 113.26,13.58 7.56,-88.58 z" class="state wy" />
    </a>
    <a xlink:href="/participating-orgs#Montana">
        <title>Montana</title>
        <path id="MT" d="M 369.20,56.96 338.53,54.16 l -29.26,-3.55 -29.26,-4.04 -32.33,-5.33 -18.42,-3.39 -32.72,-6.93 -4.47,21.34 3.42,7.54 -1.37,4.57 1.82,4.57 3.20,1.37 4.62,10.76 2.69,3.17 0.45,1.14 3.42,1.14 0.45,2.05 -7.08,17.60 0,2.51 2.51,3.20 0.91,0 4.80,-2.97 0.68,-1.14 1.60,0.68 -0.22,5.25 2.74,12.57 2.97,2.51 0.91,0.68 1.82,2.28 -0.45,3.42 0.68,3.42 1.14,0.91 2.28,-2.28 2.74,0 3.20,1.60 2.51,-0.91 4.11,0 3.65,1.60 2.74,-0.45 0.45,-2.97 2.97,-0.68 1.37,1.37 0.45,3.20 1.42,0.83 1.88,-11.03 106.74,13.42 8.80,-86.29 z" class="state mt" />
    </a>
    <a xlink:href="/participating-orgs#Colorado">
        <title>Colorado</title>
        <path id="CO" d="m 380.03,320.96 4.90,-86.32 -113.38,-12.64 -12.21,87.93 120.69,11.02 z" class="state co" />
    </a>
    <a xlink:href="/participating-orgs#Idaho">
        <title>Idaho</title>
        <path id="ID" d="m 148.47,176.48 8.77,-35.22 1.37,-4.22 2.51,-5.94 -1.25,-2.28 -2.51,0.11 -0.80,-1.02 0.45,-1.14 0.34,-3.08 4.45,-5.48 1.82,-0.45 1.14,-1.14 0.57,-3.20 0.91,-0.68 3.88,-5.82 3.88,-4.34 0.22,-3.77 -3.42,-2.62 -1.53,-4.40 13.62,-63.34 13.51,2.52 -4.40,21.38 3.56,7.48 -1.58,4.66 1.96,4.64 3.13,1.25 3.83,9.55 3.51,4.43 0.50,1.14 3.34,1.14 0.36,2.09 -6.97,17.37 -0.16,2.56 2.63,3.32 0.90,-0.04 4.91,-3.02 0.67,-1.09 1.56,0.65 -0.27,5.35 2.73,12.58 3.91,3.17 1.68,2.16 -0.71,4.08 1.06,2.80 1.06,1.09 2.47,-2.35 2.84,0.04 2.91,1.33 2.78,-0.68 3.79,-0.16 3.97,1.60 2.74,-0.29 0.49,-3.03 2.93,-0.76 1.26,1.51 0.44,2.94 1.42,1.21 -8.38,53.60 c 0,0 -87.96,-16.70 -94.95,-18.20 z" class="state id" />
    </a>
    <a xlink:href="/participating-orgs#Utah">
        <title>Utah</title>
        <path id="UT" d="m 259.49,310.10 -83.74,-11.87 20.58,-112.54 46.78,8.74 -1.48,10.63 -2.31,13.17 7.80,0.92 16.40,1.80 8.21,0.85 -12.24,88.27 z" class="state ut" />
    </a>
    <a xlink:href="/participating-orgs#Arizona">
        <title>Arizona</title>
        <path id="AZ" d="m 144.91,382.62 -2.62,2.15 -0.32,1.45 0.48,0.96 18.91,10.66 12.12,7.59 14.71,8.56 16.81,10.02 12.28,2.42 24.95,2.70 17.25,-119.12 -83.73,-11.91 -3.09,16.41 -1.60,0.01 -1.71,2.62 -2.51,-0.11 -1.25,-2.74 -2.74,-0.34 -0.91,-1.14 -0.91,0 -0.91,0.57 -1.94,1.02 -0.11,6.97 -0.22,1.71 -0.57,12.57 -1.48,2.17 -0.57,3.31 2.74,4.91 1.25,5.82 0.80,1.02 1.02,0.57 -0.11,2.28 -1.60,1.37 -3.42,1.71 -1.94,1.94 -1.48,3.65 -0.57,4.91 -2.85,2.74 -2.05,0.68 0.13,0.82 -0.45,1.71 0.45,0.80 3.65,0.57 -0.57,2.74 -1.48,2.17 -3.77,0.91 z" class="state az" />
    </a>
    <a xlink:href="/participating-orgs#Nevada">
        <title>Nevada</title>
        <path id="NV" d="m 196.39,185.57 -23.63,128.82 -1.83,0.34 -1.57,2.40 -2.37,0.01 -1.47,-2.74 -2.61,-0.37 -0.77,-1.10 -1.03,-0.05 -2.77,1.64 -0.31,6.78 -0.36,5.77 -0.34,8.59 -1.44,2.08 -2.43,-1.07 -69.07,-104.20 18.98,-67.58 93.09,20.66 z" class="state nv" />
    </a>
    <a xlink:href="/participating-orgs#Oregon">
        <title>Oregon</title>
        <path id="OR" d="m 148.72,175.53 8.84,-34.80 1.05,-4.22 2.35,-5.62 -0.61,-1.16 -2.51,-0.04 -1.28,-1.67 0.45,-1.46 0.50,-3.24 4.45,-5.48 1.82,-1.09 1.14,-1.14 1.48,-3.56 4.04,-5.66 3.56,-3.86 0.22,-3.45 -3.26,-2.46 -1.78,-4.64 -12.66,-3.61 -15.08,-3.54 -15.43,0.11 -0.45,-1.37 -5.48,2.05 -4.45,-0.57 -2.40,-1.60 -1.25,0.68 -4.68,-0.22 -1.71,-1.37 -5.25,-2.05 -0.80,0.11 -4.34,-1.48 -1.94,1.82 -6.17,-0.34 -5.94,-4.11 0.68,-0.80 0.22,-7.77 -2.28,-3.88 -4.11,-0.57 -0.68,-2.51 -2.35,-0.46 -5.79,2.05 -2.26,6.46 -3.23,10.02 -3.23,6.46 -5.01,14.06 -6.46,13.57 -8.08,12.60 -1.93,2.90 -0.80,8.56 0.38,12.08 112.57,26.32 z" class="state or" />
    </a>
    <a xlink:href="/participating-orgs#Washington">
        <title>Washington</title>
        <path id="WA" d="m 102.07,7.61 4.36,1.45 9.69,2.74 8.56,1.93 20.04,5.65 22.95,5.65 15.22,3.20 -13.63,63.58 -12.44,-3.52 -15.50,-3.57 -15.22,0.03 -0.45,-1.34 -5.59,2.17 -4.59,-0.73 -2.14,-1.58 -1.31,0.65 -4.73,-0.14 -1.69,-1.34 -5.26,-2.11 -0.73,0.14 -4.38,-1.52 -1.89,1.81 -6.26,-0.29 -5.92,-4.12 0.77,-0.93 0.12,-7.67 -2.28,-3.83 -4.11,-0.60 -0.67,-2.51 -2.27,-0.45 -3.55,1.23 -2.26,-3.21 0.32,-2.90 2.74,-0.32 1.61,-4.04 -2.58,-1.13 0.16,-3.71 4.36,-0.64 -2.74,-2.74 -1.45,-7.11 0.64,-2.90 0,-7.92 -1.77,-3.23 2.26,-9.37 2.10,0.48 2.42,2.90 2.74,2.58 3.23,1.93 4.52,2.10 3.07,0.64 2.90,1.45 3.39,0.96 2.26,-0.16 0,-2.42 1.29,-1.13 2.10,-1.29 0.32,1.13 0.32,1.77 -2.26,0.48 -0.32,2.10 1.77,1.45 1.13,2.42 0.64,1.93 1.45,-0.16 0.16,-1.29 -0.96,-1.29 -0.48,-3.23 0.80,-1.77 -0.64,-1.45 0,-2.26 1.77,-3.55 -1.13,-2.58 -2.42,-4.84 0.32,-0.80 1.13,-0.80 z m -9.45,5.97 2.02,-0.16 0.48,1.37 1.53,-1.61 2.34,0 0.80,1.53 -1.53,1.69 0.64,0.80 -0.72,2.02 -1.37,0.40 c 0,0 -0.88,0.08 -0.88,-0.24 0,-0.32 1.45,-2.58 1.45,-2.58 l -1.69,-0.56 -0.32,1.45 -0.72,0.64 -1.53,-2.26 -0.48,-2.50 z" class="state wa" />
    </a>
    <a xlink:href="/participating-orgs#California">
        <title>California</title>
        <path id="CA" d="m 144.69,382.19 3.94,-0.48 1.48,-2.01 0.54,-2.94 -3.55,-0.59 -0.51,-0.66 0.47,-2.03 -0.15,-0.58 1.92,-0.61 3.04,-2.83 0.58,-4.99 1.37,-3.40 1.94,-2.16 3.51,-1.58 1.65,-1.60 0.06,-2.10 -0.99,-0.58 -1.02,-1.07 -1.15,-5.84 -2.68,-4.83 0.56,-3.50 -2.41,-1.02 -69.06,-104.17 18.90,-67.60 -67.07,-15.69 -1.50,4.73 -0.16,7.43 -5.17,11.80 -3.07,2.58 -0.32,1.13 -1.77,0.80 -1.45,4.20 -0.80,3.23 2.74,4.20 1.61,4.20 1.13,3.55 -0.32,6.46 -1.77,3.07 -0.64,5.81 -0.96,3.71 1.77,3.87 2.74,4.52 2.26,4.84 1.29,4.04 -0.32,3.23 -0.32,0.48 0,2.10 5.65,6.30 -0.48,2.42 -0.64,2.26 -0.64,1.93 0.16,8.24 2.10,3.71 1.93,2.58 2.74,0.48 0.96,2.74 -1.13,3.55 -2.10,1.61 -1.13,0 -0.80,3.87 0.48,2.90 3.23,4.36 1.61,5.33 1.45,4.68 1.29,3.07 3.39,5.81 1.45,2.58 0.48,2.90 1.61,0.96 0,2.42 -0.80,1.93 -1.77,7.11 -0.48,1.93 2.42,2.74 4.20,0.48 4.52,1.77 3.87,2.10 2.90,0 2.90,3.07 2.58,4.84 1.13,2.26 3.87,2.10 4.84,0.80 1.45,2.10 0.64,3.23 -1.45,0.64 0.32,0.96 3.23,0.80 2.74,0.16 3.15,-1.68 3.87,4.20 0.80,2.26 2.58,4.20 0.32,3.23 0,9.37 0.48,1.77 10.02,1.45 19.72,2.74 13.84,1.34 z m -88.13,-43.71 1.29,1.53 -0.16,1.29 -3.23,-0.08 -0.56,-1.21 -0.64,-1.45 3.31,-0.08 z m 1.93,0 1.21,-0.64 3.55,2.10 3.07,1.21 -0.88,0.64 -4.52,-0.24 -1.61,-1.61 -0.80,-1.45 z m 20.69,19.80 1.77,2.34 0.80,0.96 1.53,0.56 0.56,-1.45 -0.96,-1.77 -2.66,-2.02 -1.05,0.16 0,1.21 z m -1.45,8.64 1.77,3.15 1.21,1.93 -1.45,0.24 -1.29,-1.21 c 0,0 -0.72,-1.45 -0.72,-1.85 0,-0.40 0,-2.18 0,-2.18 l 0.48,-0.08 z" class="state ca" />
    </a>
    
    <defs>
      <circle id='dot' class='city' cx='3' cy='3' r='7' />
    </defs>
    <a xlink:href='/participating-orgs#Alaska'><title>Dillingham, AK: KDLG</title><use x='75' y='535' xlink:href='#dot'/></a>
    <a xlink:href='/participating-orgs#Alaska'><title>Bethel, AK: KYUK</title><use xlink:href='#dot' x='63' y='517'/></a>
    <a xlink:href='/participating-orgs#Alaska'><title>Anchorage, AK: KAKM Alaska Public Media + Koahnic Broadcast Corporation</title><use xlink:href='#dot' x='113' y='530'/></a>
    <a xlink:href='/participating-orgs#Alaska'><title>Unalaska, AK: KUCB</title><use xlink:href='#dot' x='15' y='570'/></a>
    <a xlink:href='/participating-orgs#Alaska'><title>Sitka, AK: KCAW</title><use xlink:href='#dot' x='185' y='570'/></a>
    <a xlink:href='/participating-orgs#Arizona'><title>Tucson, AZ: KXCI Community Radio</title><use xlink:href='#dot' x='212' y='404'/></a>
    <a xlink:href='/participating-orgs#Arkansas'><title>Conway, AR: Arkansas Educational TV Network</title><use xlink:href='#dot' x='546' y='357'/></a>
    <a xlink:href='/participating-orgs#California'><title>Eureka, CA: KEET</title><use xlink:href='#dot' x='28' y='174'/></a>
    <a xlink:href='/participating-orgs#California'><title>San Bernardino, CA: KVCR</title><use xlink:href='#dot' x='102' y='344'/></a>
    <a xlink:href='/participating-orgs#California'><title>Costa Mesa, CA: PBS SoCaL</title><use xlink:href='#dot' x='90' y='352'/></a>
    <a xlink:href='/participating-orgs#California'><title>Los Angeles, CA: KUSC</title><use xlink:href='#dot' x='83' y='340'/></a>
    <a xlink:href='/participating-orgs#California'><title>North Hollywood, CA: Pacifica Radio Archives</title><use xlink:href='#dot' x='84' y='339'/></a>
    <a xlink:href='/participating-orgs#California'><title>Santa Cruz, CA: KUSP</title><use xlink:href='#dot' x='39' y='264'/></a>
    <a xlink:href='/participating-orgs#California'><title>Fresno, CA: Radio Bilingue</title><use xlink:href='#dot' x='73' y='278'/></a>
    <a xlink:href='/participating-orgs#California'><title>Sacramento, CA: KVIE</title><use xlink:href='#dot' x='58' y='232'/></a>
    <a xlink:href='/participating-orgs#California'><title>Rohnert Park, CA: KRCB</title><use xlink:href='#dot' x='35' y='232'/></a>
    <a xlink:href='/participating-orgs#California'><title>San Francisco, CA: KQED</title><use xlink:href='#dot' x='36' y='247'/></a>
    <a xlink:href='/participating-orgs#Colorado'><title>Boulder, CO: KGNU</title><use xlink:href='#dot' x='329' y='241'/></a>
    <a xlink:href='/participating-orgs#Colorado'><title>Denver, CO: Rocky Mountain PBS + KUVO + Colorado Public Television</title><use xlink:href='#dot' x='337' y='247'/></a>
    <a xlink:href='/participating-orgs#Connecticut'><title>Hartford, CT: Connecticut Public Broadcasting Network</title><use xlink:href='#dot' x='854' y='169'/></a>
    <a xlink:href='/participating-orgs#DC'><title>Washington, DC: WHUT</title><use xlink:href='#dot' x='800' y='247'/></a>
    <a xlink:href='/participating-orgs#Florida'><title>Tampa, FL: WUSF + WEDU</title><use xlink:href='#dot' x='745' y='499'/></a>
    <a xlink:href='/participating-orgs#Florida'><title>Jacksonville, FL: WJCT</title><use xlink:href='#dot' x='753' y='453'/></a>
    <a xlink:href='/participating-orgs#Florida'><title>Fort Myers, FL: WGCU Public Media</title><use xlink:href='#dot' x='759' y='529'/></a>
    <a xlink:href='/participating-orgs#Florida'><title>Miami, FL: WPBT2</title><use xlink:href='#dot' x='789' y='548'/></a>
    <a xlink:href='/participating-orgs#Florida'><title>Gainesville, FL: WUFT</title><use xlink:href='#dot' x='741' y='464'/></a>
    <a xlink:href='/participating-orgs#Georgia'><title>Atlanta, GA: Public Broadcasting Atlanta</title><use xlink:href='#dot' x='693' y='373'/></a>
    <a xlink:href='/participating-orgs#Guam'><title>Mangilao, GU: PBS Guam</title><use xlink:href='#dot' x='240' y='470'/></a>
    <a xlink:href='/participating-orgs#Hawaii'><title>Honolulu, HI: PBS Hawaii</title><use xlink:href='#dot' x='285' y='525'/></a>
    <a xlink:href='/participating-orgs#Idaho'><title>Boise, ID: Idaho Public Television</title><use xlink:href='#dot' x='169' y='139'/></a>
    <a xlink:href='/participating-orgs#Illinois'><title>Carbondale, IL: WSIU</title><use xlink:href='#dot' x='598' y='295'/></a>
    <a xlink:href='/participating-orgs#Illinois'><title>Urbana, IL: WILL Illinois Public Media</title><use xlink:href='#dot' x='611' y='240'/></a>
    <a xlink:href='/participating-orgs#Illinois'><title>Chicago, IL: WYCC PBS Chicago + WBEZ</title><use xlink:href='#dot' x='616' y='200'/></a>
    <a xlink:href='/participating-orgs#Indiana'><title>Indianapolis, IN: WFYI</title><use xlink:href='#dot' x='646' y='246'/></a>
    <a xlink:href='/participating-orgs#Indiana'><title>Bloomington, IN: WTIU + WFIU</title><use xlink:href='#dot' x='640' y='259'/></a>
    <a xlink:href='/participating-orgs#Iowa'><title>Johnston, IA: Iowa Public Television</title><use xlink:href='#dot' x='519' y='209'/></a>
    <a xlink:href='/participating-orgs#Iowa'><title>Des Moines, IA: Iowa Public Radio</title><use xlink:href='#dot' x='520' y='212'/></a>
    <a xlink:href='/participating-orgs#Kentucky'><title>Lexington, KY: KET - Kentucky Educational Television</title><use xlink:href='#dot' x='678' y='283'/></a>
    <a xlink:href='/participating-orgs#Kentucky'><title>Whitesburg, KY: Appalshop, Inc.</title><use xlink:href='#dot' x='724' y='300'/></a>
    <a xlink:href='/participating-orgs#Louisiana'><title>Baton Rouge, LA: Louisiana Public Broadcasting</title><use xlink:href='#dot' x='573' y='462'/></a>
    <a xlink:href='/participating-orgs#Louisiana'><title>New Orleans, LA: WWOZ</title><use xlink:href='#dot' x='596' y='472'/></a>
    <a xlink:href='/participating-orgs#Maine'><title>Lewiston, ME: Maine Public Broadcasting Network</title><use xlink:href='#dot' x='877' y='110'/></a>
    <a xlink:href='/participating-orgs#Maine'><title>East Orland, ME: WERU Community Radio</title><use xlink:href='#dot' x='896' y='95'/></a>
    <a xlink:href='/participating-orgs#Maryland'><title>Owings Mills, MD: Maryland Public Television</title><use xlink:href='#dot' x='801' y='233'/></a>
    <a xlink:href='/participating-orgs#Maryland'><title>College Park, MD: University of Maryland</title><use xlink:href='#dot' x='800' y='243'/></a>
    <a xlink:href='/participating-orgs#Massachusetts'><title>Springfield, MA: WGBY</title><use xlink:href='#dot' x='855' y='161'/></a>
    <a xlink:href='/participating-orgs#Massachusetts'><title>Amherst, MA: New England Public Radio</title><use xlink:href='#dot' x='852' y='153'/></a>
    <a xlink:href='/participating-orgs#Massachusetts'><title>Boston, MA: WUMB + WGBH</title><use xlink:href='#dot' x='875' y='151'/></a>
    <a xlink:href='/participating-orgs#Michigan'><title>Twin Lake, MI: Blue Lake Public Radio</title><use xlink:href='#dot' x='636' y='165'/></a>
    <a xlink:href='/participating-orgs#Michigan'><title>Grand Rapids, MI: WGVU Public TV and Radio</title><use xlink:href='#dot' x='647' y='174'/></a>
    <a xlink:href='/participating-orgs#Michigan'><title>Interlochen, MI: WIAA</title><use xlink:href='#dot' x='638' y='136'/></a>
    <a xlink:href='/participating-orgs#Michigan'><title>East Lansing, MI: WKAR</title><use xlink:href='#dot' x='664' y='176'/></a>
    <a xlink:href='/participating-orgs#Michigan'><title>Wixom, MI: Detroit Public Television</title><use xlink:href='#dot' x='680' y='179'/></a>
    <a xlink:href='/participating-orgs#Minnesota'><title>Appleton, MN: Pioneer Public Television</title><use xlink:href='#dot' x='482' y='130'/></a>
    <a xlink:href='/participating-orgs#Minnesota'><title>St. Paul, MN: Minnesota Public Radio + Twin Cities Public Television</title><use xlink:href='#dot' x='525' y='155'/></a>
    <a xlink:href='/participating-orgs#Minnesota'><title>Grand Marais, MN: WTIP</title><use xlink:href='#dot' x='564' y='70'/></a>
    <a xlink:href='/participating-orgs#Mississippi'><title>Jackson, MS: Mississippi Public Broadcasting</title><use xlink:href='#dot' x='589' y='418'/></a>
    <a xlink:href='/participating-orgs#Missouri'><title>St. Louis, MO: The Nine Network of Public Media + Film and Media Archive, Washington University in St. Louis</title><use xlink:href='#dot' x='573' y='280'/></a>
    <a xlink:href='/participating-orgs#Missouri'><title>Kansas City, MO: KCPT</title><use xlink:href='#dot' x='508' y='263'/></a>
    <a xlink:href='/participating-orgs#Missouri'><title>Warrensburg, MO: KMOS</title><use xlink:href='#dot' x='520' y='275'/></a>
    <a xlink:href='/participating-orgs#Missouri'><title>Springfield, MO: Ozarks Public Television</title><use xlink:href='#dot' x='529' y='312'/></a>
    <a xlink:href='/participating-orgs#Montana'><title>Bozeman, MT: KGLT</title><use xlink:href='#dot' x='256' y='105'/></a>
    <a xlink:href='/participating-orgs#Nevada'><title>Las Vegas, NV: Vegas PBS</title><use xlink:href='#dot' x='147' y='305'/></a>
    <a xlink:href='/participating-orgs#New Hampshire'><title>Concord, NH: New Hampshire Public Radio</title><use xlink:href='#dot' x='863' y='134'/></a>
    <a xlink:href='/participating-orgs#New Hampshire'><title>Durham, NH: New Hampshire Public Television</title><use xlink:href='#dot' x='861' y='137'/></a>
    <a xlink:href='/participating-orgs#New Jersey'><title>Jersey City, NJ: WFMU</title><use xlink:href='#dot' x='838' y='196'/></a>
    <a xlink:href='/participating-orgs#New Jersey'><title>Trenton, NJ: New Jersey Network</title><use xlink:href='#dot' x='829' y='209'/></a>
    <a xlink:href='/participating-orgs#New Mexico'><title>Albuquerque, NM: KUNM + New Mexico PBS</title><use xlink:href='#dot' x='296' y='350'/></a>
    <a xlink:href='/participating-orgs#New York'><title>Vestal, NY: WSKG Public Broadcasting</title><use xlink:href='#dot' x='800' y='173'/></a>
    <a xlink:href='/participating-orgs#New York'><title>Watertown, NY: WPBS</title><use xlink:href='#dot' x='792' y='131'/></a>
    <a xlink:href='/participating-orgs#New York'><title>Buffalo, NY: WNED</title><use xlink:href='#dot' x='752' y='160'/></a>
    <a xlink:href='/participating-orgs#New York'><title>New York, NY: Thirteen WNET + WNYC</title><use xlink:href='#dot' x='839' y='197'/></a>
    <a xlink:href='/participating-orgs#New York'><title>Rochester, NY: WXXI Public Broadcasting</title><use xlink:href='#dot' x='768' y='152'/></a>
    <a xlink:href='/participating-orgs#New York'><title>Plattsburgh, NY: Mountain Lake PBS</title><use xlink:href='#dot' x='824' y='108'/></a>
    <a xlink:href='/participating-orgs#New York'><title>Troy, NY: WMHT</title><use xlink:href='#dot' x='833' y='150'/></a>
    <a xlink:href='/participating-orgs#New York'><title>Jamestown, NY: WRFA</title><use xlink:href='#dot' x='749' y='180'/></a>
    <a xlink:href='/participating-orgs#New York'><title>Liverpool, NY: WCNY</title><use xlink:href='#dot' x='792' y='150'/></a>
    <a xlink:href='/participating-orgs#North Carolina'><title>Research Triangle Park, NC: UNC-TV</title><use xlink:href='#dot' x='795' y='325'/></a>
    <a xlink:href='/participating-orgs#North Dakota'><title>Fargo, ND: Prairie Public Broadcasting</title><use xlink:href='#dot' x='470' y='93'/></a>
    <a xlink:href='/participating-orgs#Ohio'><title>Columbus, OH: WOSU Public Media</title><use xlink:href='#dot' x='699' y='236'/></a>
    <a xlink:href='/participating-orgs#Ohio'><title>Cleveland, OH: ideastream</title><use xlink:href='#dot' x='711' y='201'/></a>
    <a xlink:href='/participating-orgs#Ohio'><title>Yellow Springs, OH: WYSO</title><use xlink:href='#dot' x='683' y='241'/></a>
    <a xlink:href='/participating-orgs#Ohio'><title>Youngstown, OH: WYSU</title><use xlink:href='#dot' x='730' y='206'/></a>
    <a xlink:href='/participating-orgs#Ohio'><title>Cincinnati, OH: Cincinnati Public Radio</title><use xlink:href='#dot' x='672' y='254'/></a>
    <a xlink:href='/participating-orgs#Oregon'><title>Medford, OR: Southern Oregon Public Television</title><use xlink:href='#dot' x='59' y='146'/></a>
    <a xlink:href='/participating-orgs#Oregon'><title>Portland, OR: Oregon Public Broadcasting</title><use xlink:href='#dot' x='85' y='79'/></a>
    <a xlink:href='/participating-orgs#Oregon'><title>Warm Springs, OR: KWSO</title><use xlink:href='#dot' x='99' y='99'/></a>
    <a xlink:href='/participating-orgs#Pennsylvania'><title>Bethlehem, PA: WDIY + PBS39</title><use xlink:href='#dot' x='817' y='203'/></a>
    <a xlink:href='/participating-orgs#Pennsylvania'><title>Philadelphia, PA: WHYY + WXPN</title><use xlink:href='#dot' x='827' y='213'/></a>
    <a xlink:href='/participating-orgs#Pennsylvania'><title>Pittsburgh, PA: WQED</title><use xlink:href='#dot' x='744' y='218'/></a>
    <a xlink:href='/participating-orgs#Pennsylvania'><title>Pittston, PA: WVIA Public Media</title><use xlink:href='#dot' x='807' y='189'/></a>
    <a xlink:href='/participating-orgs#Rhode Island'><title>Providence, RI: Rhode Island Public Radio</title><use xlink:href='#dot' x='873' y='164'/></a>
    <a xlink:href='/participating-orgs#South Carolina'><title>Columbia, SC: South Carolina ETV</title><use xlink:href='#dot' x='752' y='362'/></a>
    <a xlink:href='/participating-orgs#Tennessee'><title>Cookeville, TN: WCTE</title><use xlink:href='#dot' x='670' y='329'/></a>
    <a xlink:href='/participating-orgs#Tennessee'><title>Knoxville, TN: WDVX</title><use xlink:href='#dot' x='693' y='324'/></a>
    <a xlink:href='/participating-orgs#Texas'><title>Houston, TX: KUHF-FM</title><use xlink:href='#dot' x='490' y='480'/></a>
    <a xlink:href='/participating-orgs#Texas'><title>Austin, TX: KUT Radio</title><use xlink:href='#dot' x='449' y='464'/></a>
    <a xlink:href='/participating-orgs#Utah'><title>Salt Lake City, UT: KUED</title><use xlink:href='#dot' x='222' y='212'/></a>
    <a xlink:href='/participating-orgs#Vermont'><title>Colchester, VT: Vermont Public Radio + Vermont Public Television</title><use xlink:href='#dot' x='829' y='111'/></a>
    <a xlink:href='/participating-orgs#Virginia'><title>Norfolk, VA: WHRO</title><use xlink:href='#dot' x='822' y='289'/></a>
    <a xlink:href='/participating-orgs#Virginia'><title>Roanoke, VA: Blue Ridge PBS</title><use xlink:href='#dot' x='757' y='289'/></a>
    <a xlink:href='/participating-orgs#Washington'><title>Pullman, WA: Northwest Public Television</title><use xlink:href='#dot' x='171' y='68'/></a>
    <a xlink:href='/participating-orgs#Washington'><title>Seattle, WA: KUOW Puget Sound Public Radio + KEXP + KCTS 9</title><use xlink:href='#dot' x='103' y='33'/></a>
    <a xlink:href='/participating-orgs#Washington'><title>Granger, WA: KDNA</title><use xlink:href='#dot' x='125' y='68'/></a>
    <a xlink:href='/participating-orgs#Wisconsin'><title>Madison, WI: Wisconsin Public Radio + Wisconsin Public Television</title><use xlink:href='#dot' x='585' y='176'/></a>
    <a xlink:href='/participating-orgs#Wisconsin'><title>Hayward, WI: WOJB</title><use xlink:href='#dot' x='546' y='111'/></a>
    <a xlink:href='/participating-orgs#Wyoming'><title>Riverton, WY: Wyoming PBS</title><use xlink:href='#dot' x='291' y='169'/></a>

    <!--
    # http://simplemaps.com/files/cities.csv
    cities = Hash[File.readlines('/Users/chuck_mccallum/Downloads/cities.csv').
      map{|l| l.strip.split(',')}.
      map{|row| ["#{row[2]}, #{row[1]}",[row[3].to_f,row[4].to_f]]}]
    state_city_orgs = Organization.all.
      group_by{|s| [s.state, "#{s.city}, #{s.state_abbreviation}"]}.
      map{|state_city,orgs| [
        state_city[0], state_city[1],
        state_city[1] + ': ' +    orgs.map{|org| org.short_name}.join(' + ')]}
    def to_xy(lat,long)
      dx = 480
      dy = -880
      r_mult = 24
      long_shift = 27.5
      x_mult = 1.2
      long_mult = 0.65
      y_mult = 0.94
      x = (1+(lat-37)/200)*(90-lat) * r_mult * Math::cos((long*long_mult+long_shift)*3.14159/180)*x_mult +dx
      y = (90-lat) * r_mult * Math::sin((long*long_mult+long_shift)*3.14159/180)*y_mult +dy
      [x,y]
    end
    state_city_orgs.select{|sco| sco}.each{|sco|
      ll = cities[sco[1]] 
      xy = to_xy(ll[0],-ll[1]) rescue [0,0]
      puts "<a xlink:href='##{sco[0]}'><title>#{sco[2]}</title><circle class='city' cx='#{xy[0]}' cy='#{xy[1]}' r='10' /></a>"
    } 
    -->
</svg>
