<svg xmlns="http://www.w3.org/2000/svg" xmlns:xlink="http://www.w3.org/1999/xlink" version="1.1" style="width: 750px;" viewBox="0 0 959 593">
    <!-- Original at https://commons.wikimedia.org/wiki/File:Blank_US_Map.svg  -->
    <!-- By Theshibboleth [GFDL (http://www.gnu.org/copyleft/fdl.html) or CC-BY-SA-3.0 (http://creativecommons.org/licenses/by-sa/3.0/)], via Wikimedia Commons -->
    <style type="text/css">
        .state,.territory,.city { fill:#E0E0E0; stroke:#646464; stroke-width:1.5; stroke-opacity:1; } 
        a .state:hover,.territory:hover { fill:#ef3f37 }
        
        a .city:hover { fill:#3c439b }

        .border { opacity:1; fill:none; stroke:#A9A9A9; stroke-width:2; } 
    </style>
    <a xlink:href="#Hawaii">
        <title>Hawaii</title>
        <path class="state hi" id="HI" d="m 233.08,519.30 1.93,-3.55 2.26,-0.32 0.32,0.80 -2.10,3.07 -2.42,0 z m 10.18,-3.71 6.14,2.58 2.10,-0.32 1.61,-3.87 -0.64,-3.39 -4.20,-0.48 -4.04,1.77 -0.96,3.71 z m 30.71,10.02 3.71,5.49 2.42,-0.32 1.13,-0.48 1.45,1.29 3.71,-0.16 0.96,-1.45 -2.90,-1.77 -1.93,-3.71 -2.10,-3.55 -5.81,2.90 -0.64,1.77 z m 20.20,8.89 1.29,-1.93 4.68,0.96 0.64,-0.48 6.14,0.64 -0.32,1.29 -2.58,1.45 -4.36,-0.32 -5.49,-1.61 z m 5.33,5.17 1.93,3.87 3.07,-1.13 0.32,-1.61 -1.61,-2.10 -3.71,-0.32 0,1.29 z m 6.95,-1.13 2.26,-2.90 4.68,2.42 4.36,1.13 4.36,2.74 0,1.93 -3.55,1.77 -4.84,0.96 -2.42,-1.45 -4.84,-6.62 z m 16.65,15.51 1.61,-1.29 3.39,1.61 7.59,3.55 3.39,2.10 1.61,2.42 1.93,4.36 4.04,2.58 -0.32,1.29 -3.87,3.23 -4.20,1.45 -1.45,-0.64 -3.07,1.77 -2.42,3.23 -2.26,2.90 -1.77,-0.16 -3.55,-2.58 -0.32,-4.52 0.64,-2.42 -1.61,-5.65 -2.10,-1.77 -0.16,-2.58 2.26,-0.96 2.10,-3.07 0.48,-0.96 -1.61,-1.77 -0.32,-2.10 z" />
    </a>
    <a xlink:href="#Alaska">
        <title>Alaska</title>
        <path class="state ak" id="AK" d="m 158.07,453.67 -0.32,85.35 1.61,0.96 3.07,0.16 1.45,-1.13 2.58,0 0.16,2.90 6.95,6.78 0.48,2.58 3.39,-1.93 0.64,-0.16 0.32,-3.07 1.45,-1.61 1.13,-0.16 1.93,-1.45 3.07,2.10 0.64,2.90 1.93,1.13 1.13,2.42 3.87,1.77 3.39,5.98 2.74,3.87 2.26,2.74 1.45,3.71 5.01,1.77 5.17,2.10 0.96,4.36 0.48,3.07 -0.96,3.39 -1.77,2.26 -1.61,-0.80 -1.45,-3.07 -2.74,-1.45 -1.77,-1.13 -0.80,0.80 1.45,2.74 0.16,3.71 -1.13,0.48 -1.93,-1.93 -2.10,-1.29 0.48,1.61 1.29,1.77 -0.80,0.80 c 0,0 -0.80,-0.32 -1.29,-0.96 -0.48,-0.64 -2.10,-3.39 -2.10,-3.39 l -0.96,-2.26 c 0,0 -0.32,1.29 -0.96,0.96 -0.64,-0.32 -1.29,-1.45 -1.29,-1.45 l 1.77,-1.93 -1.45,-1.45 0,-5.01 -0.80,0 -0.80,3.39 -1.13,0.48 -0.96,-3.71 -0.64,-3.71 -0.80,-0.48 0.32,5.65 0,1.13 -1.45,-1.29 -3.55,-5.98 -2.10,-0.48 -0.64,-3.71 -1.61,-2.90 -1.61,-1.13 0,-2.26 2.10,-1.29 -0.48,-0.32 -2.58,0.64 -3.39,-2.42 -2.58,-2.90 -4.84,-2.58 -4.04,-2.58 1.29,-3.23 0,-1.61 -1.77,1.61 -2.90,1.13 -3.71,-1.13 -5.65,-2.42 -5.49,0 -0.64,0.48 -6.46,-3.87 -2.10,-0.32 -2.74,-5.81 -3.55,0.32 -3.55,1.45 0.48,4.52 1.13,-2.90 0.96,0.32 -1.45,4.36 3.23,-2.74 0.64,1.61 -3.87,4.36 -1.29,-0.32 -0.48,-1.93 -1.29,-0.80 -1.29,1.13 -2.74,-1.77 -3.07,2.10 -1.77,2.10 -3.39,2.10 -4.68,-0.16 -0.48,-2.10 3.71,-0.64 0,-1.29 -2.26,-0.64 0.96,-2.42 2.26,-3.87 0,-1.77 0.16,-0.80 4.36,-2.26 0.96,1.29 2.74,0 -1.29,-2.58 -3.71,-0.32 -5.01,2.74 -2.42,3.39 -1.77,2.58 -1.13,2.26 -4.20,1.45 -3.07,2.58 -0.32,1.61 2.26,0.96 0.80,2.10 -2.74,3.23 -6.46,4.20 -7.75,4.20 -2.10,1.13 -5.33,1.13 -5.33,2.26 1.77,1.29 -1.45,1.45 -0.48,1.13 -2.74,-0.96 -3.23,0.16 -0.80,2.26 -0.96,0 0.32,-2.42 -3.55,1.29 -2.90,0.96 -3.39,-1.29 -2.90,1.93 -3.23,0 -2.10,1.29 -1.61,0.80 -2.10,-0.32 -2.58,-1.13 -2.26,0.64 -0.96,0.96 -1.61,-1.13 0,-1.93 3.07,-1.29 6.30,0.64 4.36,-1.61 2.10,-2.10 2.90,-0.64 1.77,-0.80 2.74,0.16 1.61,1.29 0.96,-0.32 2.26,-2.74 3.07,-0.96 3.39,-0.64 1.29,-0.32 0.64,0.48 0.80,0 1.29,-3.71 4.04,-1.45 1.93,-3.71 2.26,-4.52 1.61,-1.45 0.32,-2.58 -1.61,1.29 -3.39,0.64 -0.64,-2.42 -1.29,-0.32 -0.96,0.96 -0.16,2.90 -1.45,-0.16 -1.45,-5.81 -1.29,1.29 -1.13,-0.48 -0.32,-1.93 -4.04,0.16 -2.10,1.13 -2.58,-0.32 1.45,-1.45 0.48,-2.58 -0.64,-1.93 1.45,-0.96 1.29,-0.16 -0.64,-1.77 0,-4.36 -0.96,-0.96 -0.80,1.45 -6.14,0 -1.45,-1.29 -0.64,-3.87 -2.10,-3.55 0,-0.96 2.10,-0.80 0.16,-2.10 1.13,-1.13 -0.80,-0.48 -1.29,0.48 -1.13,-2.74 0.96,-5.01 4.52,-3.23 2.58,-1.61 1.93,-3.71 2.74,-1.29 2.58,1.13 0.32,2.42 2.42,-0.32 3.23,-2.42 1.61,0.64 0.96,0.64 1.61,0 2.26,-1.29 0.80,-4.36 c 0,0 0.32,-2.90 0.96,-3.39 0.64,-0.48 0.96,-0.96 0.96,-0.96 l -1.13,-1.93 -2.58,0.80 -3.23,0.80 -1.93,-0.48 -3.55,-1.77 -5.01,-0.16 -3.55,-3.71 0.48,-3.87 0.64,-2.42 -2.10,-1.77 -1.93,-3.71 0.48,-0.80 6.78,-0.48 2.10,0 0.96,0.96 0.64,0 -0.16,-1.61 3.87,-0.64 2.58,0.32 1.45,1.13 -1.45,2.10 -0.48,1.45 2.74,1.61 5.01,1.77 1.77,-0.96 -2.26,-4.36 -0.96,-3.23 0.96,-0.80 -3.39,-1.93 -0.48,-1.13 0.48,-1.61 -0.80,-3.87 -2.90,-4.68 -2.42,-4.20 2.90,-1.93 3.23,0 1.77,0.64 4.20,-0.16 3.71,-3.55 1.13,-3.07 3.71,-2.42 1.61,0.96 2.74,-0.64 3.71,-2.10 1.13,-0.16 0.96,0.80 4.52,-0.16 2.74,-3.07 1.13,0 3.55,2.42 1.93,2.10 -0.48,1.13 0.64,1.13 1.61,-1.61 3.87,0.32 0.32,3.71 1.93,1.45 7.11,0.64 6.30,4.20 1.45,-0.96 5.17,2.58 2.10,-0.64 1.93,-0.80 4.84,1.93 4.36,2.90 z m -115.10,28.93 2.10,5.33 -0.16,0.96 -2.90,-0.32 -1.77,-4.04 -1.77,-1.45 -2.42,0 -0.16,-2.58 1.77,-2.42 1.13,2.42 1.45,1.45 2.74,0.64 z m -2.58,33.46 3.71,0.80 3.71,0.96 0.80,0.96 -1.61,3.71 -3.07,-0.16 -3.39,-3.55 -0.16,-2.74 z m -20.69,-14.06 1.13,2.58 1.13,1.61 -1.13,0.80 -2.10,-3.07 0,-1.93 0.96,0 z m -13.74,73.07 3.39,-2.26 3.39,-0.96 2.58,0.32 0.48,1.61 1.93,0.48 1.93,-1.93 -0.32,-1.61 2.74,-0.64 2.90,2.58 -1.13,1.77 -4.36,1.13 -2.74,-0.48 -3.71,-1.13 -4.36,1.45 -1.61,0.32 -1.13,-0.64 z m 48.98,-4.52 1.61,1.93 2.10,-1.61 -1.45,-1.29 -2.26,0.96 z m 2.90,3.07 1.13,-2.26 2.10,0.32 -0.80,1.93 -2.42,0 z m 23.60,-1.93 1.45,1.77 0.96,-1.13 -0.80,-1.93 -1.61,1.29 z m 8.72,-12.44 1.13,5.81 2.90,0.80 5.01,-2.90 4.36,-2.58 -1.61,-2.42 0.48,-2.42 -2.10,1.29 -2.90,-0.80 1.61,-1.13 1.93,0.80 3.87,-1.77 0.48,-1.45 -2.42,-0.80 0.80,-1.93 -2.74,1.93 -4.68,3.55 -4.84,2.90 -1.29,1.13 z m 42.35,-19.88 2.42,-1.45 -0.96,-1.77 -1.77,0.96 0.32,2.26 z" />
    </a>
    <a xlink:href="#Florida">
        <title>Florida</title>
        <path id="FL" d="m 759.81,439.14 2.26,7.31 3.72,9.74 5.33,9.37 3.71,6.30 4.84,5.49 4.04,3.71 1.61,2.90 -1.13,1.29 -0.80,1.29 2.90,7.43 2.90,2.90 2.58,5.33 3.55,5.81 4.52,8.24 1.29,7.59 0.48,11.96 0.64,1.77 -0.32,3.39 -2.42,1.29 0.32,1.93 -0.64,1.93 0.32,2.42 0.48,1.93 -2.74,3.23 -3.07,1.45 -3.87,0.16 -1.45,1.61 -2.42,0.96 -1.29,-0.48 -1.13,-0.96 -0.32,-2.90 -0.80,-3.39 -3.39,-5.17 -3.55,-2.26 -3.87,-0.32 -0.80,1.29 -3.07,-4.36 -0.64,-3.55 -2.58,-4.04 -1.77,-1.13 -1.61,2.10 -1.77,-0.32 -2.10,-5.01 -2.90,-3.87 -2.90,-5.33 -2.58,-3.07 -3.55,-3.71 2.10,-2.42 3.23,-5.49 -0.16,-1.61 -4.52,-0.96 -1.61,0.64 0.32,0.64 2.58,0.96 -1.45,4.52 -0.80,0.48 -1.77,-4.04 -1.29,-4.84 -0.32,-2.74 1.45,-4.68 0,-9.53 -3.07,-3.71 -1.29,-3.07 -5.17,-1.29 -1.93,-0.64 -1.61,-2.58 -3.39,-1.61 -1.13,-3.39 -2.74,-0.96 -2.42,-3.71 -4.20,-1.45 -2.90,-1.45 -2.58,0 -4.04,0.80 -0.16,1.93 0.80,0.96 -0.48,1.13 -3.07,-0.16 -3.71,3.55 -3.55,1.93 -3.87,0 -3.23,1.29 -0.32,-2.74 -1.61,-1.93 -2.90,-1.13 -1.61,-1.45 -8.08,-3.87 -7.59,-1.77 -4.36,0.64 -5.98,0.48 -5.98,2.10 -3.47,0.61 -0.23,-8.04 -2.58,-1.93 -1.77,-1.77 0.32,-3.07 10.18,-1.29 25.54,-2.90 6.78,-0.64 5.43,0.28 2.58,3.87 1.45,1.45 8.09,0.51 10.81,-0.64 21.51,-1.29 5.44,-0.67 5.10,0.20 0.42,2.90 2.23,0.80 0.23,-4.63 -1.52,-4.17 1.30,-1.43 5.55,0.45 5.17,0.32 z m 12.54,132.40 2.42,-0.64 1.29,-0.24 1.45,-2.34 2.34,-1.61 1.29,0.48 1.69,0.32 0.40,1.05 -3.47,1.21 -4.20,1.45 -2.34,1.21 -0.88,-0.88 z m 13.49,-5.01 1.21,1.05 2.74,-2.10 5.33,-4.20 3.71,-3.87 2.50,-6.62 0.96,-1.69 0.16,-3.39 -0.72,0.48 -0.96,2.82 -1.45,4.60 -3.23,5.25 -4.36,4.20 -3.39,1.93 -2.50,1.53 z" class="state fl" />
    </a>
    <a xlink:href="#New Hampshire">
        <title>New Hampshire</title>
        <path id="NH" d="m 880.79,142.42 0.86,-1.07 1.09,-3.29 -2.54,-0.91 -0.48,-3.07 -3.87,-1.13 -0.32,-2.74 -7.27,-23.44 -4.60,-14.54 -0.89,-0.00 -0.64,1.61 -0.64,-0.48 -0.96,-0.96 -1.45,1.93 -0.04,5.03 0.31,5.66 1.93,2.74 0,4.04 -3.71,5.06 -2.58,1.13 0,1.13 1.13,1.77 0,8.56 -0.80,9.21 -0.16,4.84 0.96,1.29 -0.16,4.52 -0.48,1.77 0.96,0.70 16.78,-4.42 2.17,-0.60 1.84,-2.77 3.60,-1.61 z" class="state nh" />
    </a>
    <a xlink:href="#Michigan">
        <title>Michigan</title>
        <path class="state" id="SP-" d="m 697.86,177.23 -3.23,-8.24 -2.26,-9.05 -2.42,-3.23 -2.58,-1.77 -1.61,1.13 -3.87,1.77 -1.93,5.01 -2.74,3.71 -1.13,0.64 -1.45,-0.64 c 0,0 -2.58,-1.45 -2.42,-2.10 0.16,-0.64 0.48,-5.01 0.48,-5.01 l 3.39,-1.29 0.80,-3.39 0.64,-2.58 2.42,-1.61 -0.32,-10.02 -1.61,-2.26 -1.29,-0.80 -0.80,-2.10 0.80,-0.80 1.61,0.32 0.16,-1.61 -2.42,-2.26 -1.29,-2.58 -2.58,0 -4.52,-1.45 -5.49,-3.39 -2.74,0 -0.64,0.64 -0.96,-0.48 -3.07,-2.26 -2.90,1.77 -2.90,2.26 0.32,3.55 0.96,0.32 2.10,0.48 0.48,0.80 -2.58,0.80 -2.58,0.32 -1.45,1.77 -0.32,2.10 0.32,1.61 0.32,5.49 -3.55,2.10 -0.64,-0.16 0,-4.20 1.29,-2.42 0.64,-2.42 -0.80,-0.80 -1.93,0.80 -0.96,4.20 -2.74,1.13 -1.77,1.93 -0.16,0.96 0.64,0.80 -0.64,2.58 -2.26,0.48 0,1.13 0.80,2.42 -1.13,6.14 -1.61,4.04 0.64,4.68 0.48,1.13 -0.80,2.42 -0.32,0.80 -0.32,2.74 3.55,5.98 2.90,6.46 1.45,4.84 -0.80,4.68 -0.96,5.98 -2.42,5.17 -0.32,2.74 -3.25,3.08 4.40,-0.16 21.41,-2.26 7.27,-0.98 0.09,1.66 6.85,-1.21 10.29,-1.50 3.85,-0.46 0.13,-0.58 0.16,-1.45 2.10,-3.71 2.00,-1.73 -0.22,-5.05 1.59,-1.59 1.09,-0.34 0.22,-3.55 1.53,-3.03 1.05,0.60 0.16,0.64 0.80,0.16 1.93,-0.96 -0.32,-9.53 z m -116,-95 1.82,-2.05 2.17,-0.80 5.37,-3.88 2.28,-0.57 0.45,0.45 -5.14,5.14 -3.31,1.94 -2.05,0.91 -1.60,-1.14 z m 86.17,32.12 0.64,2.50 3.23,0.16 1.29,-1.21 c 0,0 -0.08,-1.45 -0.40,-1.61 -0.32,-0.16 -1.61,-1.85 -1.61,-1.85 l -2.18,0.24 -1.61,0.16 -0.32,1.13 0.96,0.48 z m -100.30,-2.97 0.71,-0.58 2.74,-0.80 3.55,-2.26 0,-0.96 0.64,-0.64 5.98,-0.96 2.42,-1.93 4.36,-2.10 0.16,-1.29 1.93,-2.90 1.77,-0.80 1.29,-1.77 2.26,-2.26 4.36,-2.42 4.68,-0.48 1.13,1.13 -0.32,0.96 -3.71,0.96 -1.45,3.07 -2.26,0.80 -0.48,2.42 -2.42,3.23 -0.32,2.58 0.80,0.48 0.96,-1.13 3.55,-2.90 1.29,1.29 2.26,0 3.23,0.96 1.45,1.13 1.45,3.07 2.74,2.74 3.87,-0.16 1.45,-0.96 1.61,1.29 1.61,0.48 1.29,-0.80 1.13,0 1.61,-0.96 4.04,-3.55 3.39,-1.13 6.62,-0.32 4.52,-1.93 2.58,-1.29 1.45,0.16 0,5.65 0.48,0.32 2.90,0.80 1.93,-0.48 6.14,-1.61 1.13,-1.13 1.45,0.48 0,6.95 3.23,3.07 1.29,0.64 1.29,0.96 -1.29,0.32 -0.80,-0.32 -3.71,-0.48 -2.10,0.64 -2.26,-0.16 -3.23,1.45 -1.77,0 -5.81,-1.29 -5.17,0.16 -1.93,2.58 -6.95,0.64 -2.42,0.80 -1.13,3.07 -1.29,1.13 -0.48,-0.16 -1.45,-1.61 -4.52,2.42 -0.64,0 -1.13,-1.61 -0.80,0.16 -1.93,4.36 -0.96,4.04 -3.18,7.00 -1.17,-1.03 -1.37,-1.03 -1.94,-10.28 -3.54,-1.37 -2.05,-2.28 -12.12,-2.74 -2.85,-1.02 -8.23,-2.17 -7.88,-1.14 -3.71,-5.14 z" />
    </a>
    <a xlink:href="#Vermont">
        <title>Vermont</title>
        <path id="VT" d="m 844.48,154.05 0.31,-5.34 -2.89,-10.78 -0.64,-0.32 -2.90,-1.29 0.80,-2.90 -0.80,-2.10 -2.70,-4.63 0.96,-3.87 -0.80,-5.17 -2.42,-6.46 -0.80,-4.92 26.41,-6.73 0.30,5.52 1.91,2.74 0,4.04 -3.70,5.05 -2.58,1.14 -0.01,1.12 1.30,1.51 -0.31,8.09 -0.60,9.25 -0.22,5.55 0.96,1.29 -0.16,4.57 -0.48,1.68 1.01,0.72 -7.43,1.50 -4.50,0.72 z" class="state vt" />
    </a>
    <a xlink:href="#Maine">
        <title>Maine</title>
        <path id="ME" d="m 922.83,78.83 1.93,2.10 2.26,3.71 0,1.93 -2.10,4.68 -1.93,0.64 -3.39,3.07 -4.84,5.49 c 0,0 -0.64,0 -1.29,0 -0.64,0 -0.96,-2.10 -0.96,-2.10 l -1.77,0.16 -0.96,1.45 -2.42,1.45 -0.96,1.45 1.61,1.45 -0.48,0.64 -0.48,2.74 -1.93,-0.16 0,-1.61 -0.32,-1.29 -1.45,0.32 -1.77,-3.23 -2.10,1.29 1.29,1.45 0.32,1.13 -0.80,1.29 0.32,3.07 0.16,1.61 -1.61,2.58 -2.90,0.48 -0.32,2.90 -5.33,3.07 -1.29,0.48 -1.61,-1.45 -3.07,3.55 0.96,3.23 -1.45,1.29 -0.16,4.36 -1.12,6.25 -2.46,-1.15 -0.48,-3.07 -3.87,-1.13 -0.32,-2.74 -7.27,-23.44 -4.69,-14.63 1.42,-0.11 1.51,0.40 0,-2.58 1.30,-4.49 2.58,-4.68 1.45,-4.04 -1.93,-2.42 0,-5.98 0.80,-0.96 0.80,-2.74 -0.16,-1.45 -0.16,-4.84 1.77,-4.84 2.90,-8.89 2.10,-4.20 1.29,0 1.29,0.16 0,1.13 1.29,2.26 2.74,0.64 0.80,-0.80 0,-0.96 4.04,-2.90 1.77,-1.77 1.45,0.16 5.98,2.42 1.93,0.96 9.05,29.90 5.98,0 0.80,1.93 0.16,4.84 2.90,2.26 0.80,0 0.16,-0.48 -0.48,-1.13 2.74,-0.16 z m -20.93,30.14 1.53,-1.53 1.37,1.05 0.56,2.42 -1.69,0.88 -1.77,-2.82 z m 6.70,-5.90 1.77,1.85 c 0,0 1.29,0.08 1.29,-0.24 0,-0.32 0.24,-2.02 0.24,-2.02 l 0.88,-0.80 -0.80,-1.77 -2.02,0.72 -1.37,2.26 z" class="state me" />
    </a>
    <a xlink:href="#Rhode Island">
        <title>Rhode Island</title>
        <path id="RI" d="m 874.07,178.89 -3.69,-14.95 6.26,-1.84 2.19,1.92 3.30,4.32 2.68,4.40 -2.99,1.62 -1.29,-0.16 -1.13,1.77 -2.42,1.93 -2.90,0.96 z" class="state ri" />
    </a>
    <a xlink:href="#New York">
        <title>New York</title>
        <path id="NY" d="m 830.37,188.74 -1.13,-0.96 -2.58,-0.16 -2.26,-1.93 -1.63,-6.12 -3.45,0.09 -2.44,-2.70 -19.38,4.38 -43.00,8.72 -7.52,1.22 -0.73,-6.46 1.42,-1.12 1.29,-1.13 0.96,-1.61 1.77,-1.13 1.93,-1.77 0.48,-1.61 2.10,-2.74 1.13,-0.96 -0.16,-0.96 -1.29,-3.07 -1.77,-0.16 -1.93,-6.14 2.90,-1.77 4.36,-1.45 4.04,-1.29 3.23,-0.48 6.30,-0.16 1.93,1.29 1.61,0.16 2.10,-1.29 2.58,-1.13 5.17,-0.48 2.10,-1.77 1.77,-3.23 1.61,-1.93 2.10,0 1.93,-1.13 0.16,-2.26 -1.45,-2.10 -0.32,-1.45 1.13,-2.10 0,-1.45 -1.77,0 -1.77,-0.80 -0.80,-1.13 -0.16,-2.58 5.81,-5.49 0.64,-0.80 1.45,-2.90 2.90,-4.52 2.74,-3.71 2.10,-2.42 2.41,-1.82 3.08,-1.24 5.49,-1.29 3.23,0.16 4.52,-1.45 7.56,-2.07 0.51,4.97 2.42,6.46 0.80,5.17 -0.96,3.87 2.58,4.52 0.80,2.10 -0.80,2.90 2.90,1.29 0.64,0.32 3.07,10.99 -0.53,5.05 -0.48,10.83 0.80,5.49 0.80,3.55 1.45,7.27 0,8.08 -1.13,2.26 1.83,1.99 0.79,1.67 -1.93,1.77 0.32,1.29 1.29,-0.32 1.45,-1.29 2.26,-2.58 1.13,-0.64 1.61,0.64 2.26,0.16 7.92,-3.87 2.90,-2.74 1.29,-1.45 4.20,1.61 -3.39,3.55 -3.87,2.90 -7.11,5.33 -2.58,0.96 -5.81,1.93 -4.04,1.13 -1.17,-0.53 -0.24,-3.68 0.48,-2.74 -0.16,-2.10 -2.81,-1.69 -4.52,-0.96 -3.87,-1.13 -3.71,-1.77 z" class="state ny" />
    </a>
    <a xlink:href="#Pennsylvania">
        <title>Pennsylvania</title>
        <path id="PA" d="m 825.12,224.69 1.30,-0.27 2.32,-1.25 1.21,-2.48 1.61,-2.26 3.23,-3.07 0,-0.80 -2.42,-1.61 -3.55,-2.42 -0.96,-2.58 -2.74,-0.32 -0.16,-1.13 -0.80,-2.74 2.26,-1.13 0.16,-2.42 -1.29,-1.29 0.16,-1.61 1.93,-3.07 0,-3.07 2.69,-2.64 -0.92,-0.67 -2.52,-0.19 -2.29,-1.93 -1.54,-6.11 -3.50,0.10 -2.45,-2.70 -18.09,4.19 -43.00,8.72 -8.89,1.45 -0.62,-6.52 -5.36,5.06 -1.29,0.48 -4.20,3.00 2.91,19.13 2.48,9.72 3.57,19.26 3.26,-0.63 11.94,-1.50 37.92,-7.66 14.87,-2.82 8.30,-1.62 0.26,-0.23 2.10,-1.61 2.10,-0.68 z" class="state pa" />
    </a>
    <a xlink:href="#New Jersey">
        <title>New Jersey</title>
        <path id="NJ" d="m 829.67,188.46 -2.32,2.73 0,3.07 -1.93,3.07 -0.16,1.61 1.29,1.29 -0.16,2.42 -2.26,1.13 0.80,2.74 0.16,1.13 2.74,0.32 0.96,2.58 3.55,2.42 2.42,1.61 0,0.80 -2.98,2.69 -1.61,2.26 -1.45,2.74 -2.26,1.29 -0.46,1.60 -0.24,1.21 -0.60,2.60 1.09,2.24 3.23,2.90 4.84,2.26 4.04,0.64 0.16,1.45 -0.80,0.96 0.32,2.74 0.80,0 2.10,-2.42 0.80,-4.84 2.74,-4.04 3.07,-6.46 1.13,-5.49 -0.64,-1.13 -0.16,-9.37 -1.61,-3.39 -1.13,0.80 -2.74,0.32 -0.48,-0.48 1.13,-0.96 2.10,-1.93 0.06,-1.09 -0.38,-3.43 0.57,-2.74 -0.11,-1.96 -2.80,-1.75 -5.09,-1.17 -4.13,-1.38 -3.58,-1.64 z" class="state nj" />
    </a>
    <a xlink:href="#Delaware">
        <title>Delaware</title>
        <path id="DE" d="m 825.62,228.27 0.36,-2.14 0.37,-1.69 -1.62,0.39 -1.61,0.46 -2.20,1.76 1.72,5.04 2.26,5.65 2.10,9.69 1.61,6.30 5.01,-0.16 6.14,-1.18 -2.26,-7.38 -0.96,0.48 -3.55,-2.42 -1.77,-4.68 -1.93,-3.55 -3.14,-2.87 -0.86,-2.09 0.36,-1.61 z" class="state de" />
    </a>
    <a xlink:href="#Maryland">
        <title>Maryland</title>
        <path id="MD" d="m 839.79,252.41 -6.00,1.20 -5.14,0.11 -1.84,-6.92 -1.92,-9.16 -2.57,-6.18 -1.28,-4.39 -7.50,1.62 -14.87,2.82 -37.45,7.55 1.13,5.01 0.96,5.65 0.32,-0.32 2.10,-2.42 2.26,-2.61 2.42,-0.61 1.45,-1.45 1.77,-2.58 1.29,0.64 2.90,-0.32 2.58,-2.10 2.00,-1.45 1.84,-0.48 1.64,1.12 2.90,1.45 1.93,1.77 1.21,1.53 4.12,1.69 0,2.90 5.49,1.29 1.14,0.54 1.41,-2.02 2.88,1.97 -1.27,2.48 -0.76,3.98 -1.77,2.58 0,2.10 0.64,1.77 5.06,1.35 4.31,-0.06 3.07,0.96 2.10,0.32 0.96,-2.10 -1.45,-2.10 0,-1.77 -2.42,-2.10 -2.10,-5.49 1.29,-5.33 -0.16,-2.10 -1.29,-1.29 c 0,0 1.45,-1.61 1.45,-2.26 0,-0.64 0.48,-2.10 0.48,-2.10 l 1.93,-1.29 1.93,-1.61 0.48,0.96 -1.45,1.61 -1.29,3.71 0.32,1.13 1.77,0.32 0.48,5.49 -2.10,0.96 0.32,3.55 0.48,-0.16 1.13,-1.93 1.61,1.77 -1.61,1.29 -0.32,3.39 2.58,3.39 3.87,0.48 1.61,-0.80 3.23,4.18 1.35,0.53 6.65,-2.79 2.00,-4.02 -0.43,-4.90 z m -15.96,9.02 1.13,2.50 0.16,1.77 1.13,1.85 c 0,0 0.88,-0.88 0.88,-1.21 0,-0.32 -0.72,-3.07 -0.72,-3.07 l -0.72,-2.34 -1.85,0.48 z" class="state md" />
    </a>
    <a xlink:href="#Virginia">
        <title>Virginia</title>
        <path id="VA" d="m 831.63,266.06 -0.14,-1.94 6.45,-2.54 -0.77,3.21 -2.91,3.77 -0.41,4.58 0.46,3.39 -1.82,4.97 -2.16,1.91 -1.47,-4.64 0.44,-5.44 1.58,-4.18 0.76,-3.09 z m 3.34,28.30 -58.17,12.57 -37.42,5.27 -6.67,-0.37 -2.58,1.92 -7.33,0.22 -8.38,0.97 -10.91,1.61 10.46,-5.61 -0.01,-2.07 1.52,-2.14 10.55,-11.50 3.94,4.47 3.78,0.96 2.54,-1.14 2.23,-1.31 2.53,1.34 3.91,-1.42 1.87,-4.55 2.60,0.54 2.85,-2.13 1.79,0.49 2.82,-3.67 0.34,-2.08 -0.96,-1.27 1.00,-1.86 5.27,-12.27 0.61,-5.73 1.22,-0.52 2.17,2.44 3.93,-0.30 1.92,-7.57 2.79,-0.56 1.04,-2.74 2.57,-2.34 2.77,-5.69 0.08,-5.06 9.82,3.82 c 0.68,0.34 0.83,-5.04 0.83,-5.04 l 3.65,1.59 0.06,2.93 5.78,1.29 2.13,1.17 1.65,2.05 -0.65,3.64 -1.94,2.59 0.10,2.05 0.58,1.85 4.97,1.26 4.45,0.03 3.06,0.95 1.94,0.30 0.71,3.08 3.19,0.40 0.86,1.20 -0.43,4.69 1.37,1.10 -0.47,1.93 1.22,0.78 -0.22,1.38 -2.69,-0.09 0.08,1.61 2.28,1.54 0.12,1.41 1.77,1.78 0.49,2.52 -2.55,1.38 1.57,1.49 5.80,-1.68 3.60,6.01 z" class="state va" />
    </a>
    
        <title>West Virginia</title>
        <path id="WV" d="m 761.18,238.96 1.11,4.94 1.08,6.03 2.13,-2.58 2.26,-3.07 2.53,-0.61 1.45,-1.45 1.77,-2.58 1.44,0.64 2.90,-0.32 2.58,-2.10 2.00,-1.45 1.84,-0.48 1.30,1.01 3.64,1.82 1.93,1.77 1.37,1.29 -0.76,5.55 -5.83,-2.54 -4.24,-1.62 -0.10,5.17 -2.74,5.53 -2.53,2.42 -1.19,2.74 -2.64,0.50 -0.89,3.60 -1.04,3.94 -3.96,0.34 -2.32,-2.43 -1.07,0.55 -0.63,5.46 -1.35,3.53 -4.95,10.95 0.89,1.16 -0.20,1.90 -2.80,3.88 -1.80,-0.54 -2.96,2.15 -2.54,-0.57 -1.99,4.55 c 0,0 -3.25,1.43 -3.92,1.36 -0.16,-0.01 -2.46,-1.24 -2.46,-1.24 l -2.33,1.37 -2.40,1.04 -3.74,-0.88 -1.12,-1.16 -2.19,-3.02 -3.14,-1.98 -1.71,-3.62 -4.28,-3.46 -0.64,-2.26 -2.58,-1.45 -0.80,-1.61 -0.24,-5.25 2.18,-0.08 1.93,-0.80 0.16,-2.74 1.61,-1.45 0.16,-5.01 0.96,-3.87 1.29,-0.64 1.29,1.13 0.48,1.77 1.77,-0.96 0.48,-1.61 -1.13,-1.77 0,-2.42 0.96,-1.29 2.26,-3.39 1.29,-1.45 2.10,0.48 2.26,-1.61 3.07,-3.39 2.26,-3.87 0.32,-5.65 0.48,-5.01 0,-4.68 -1.13,-3.07 0.96,-1.45 1.28,-1.29 3.49,19.82 4.63,-0.75 12.42,-1.79 z" class="state empty wv" />
    
    <a xlink:href="#Ohio">
        <title>Ohio</title>
        <path id="OH" d="m 735.32,193.32 -6.09,4.05 -3.87,2.26 -3.39,3.71 -4.04,3.87 -3.23,0.80 -2.90,0.48 -5.49,2.58 -2.10,0.16 -3.39,-3.07 -5.17,0.64 -2.58,-1.45 -2.38,-1.35 -4.89,0.70 -10.18,1.61 -11.20,2.18 1.29,14.63 1.77,13.74 2.58,23.44 0.56,4.83 4.12,-0.12 2.42,-0.80 3.36,1.50 2.07,4.36 5.13,-0.01 1.89,2.11 1.76,-0.06 2.53,-1.34 2.50,0.37 5.42,0.48 1.72,-2.13 2.34,-1.29 2.07,-0.68 0.64,2.74 1.77,0.96 3.47,2.34 2.18,-0.08 1.33,-0.49 0.18,-2.76 1.58,-1.45 0.09,-4.79 c 0,0 1.02,-4.10 1.02,-4.10 l 1.29,-0.60 1.32,1.14 0.53,1.69 1.71,-1.03 0.43,-1.46 -1.11,-1.90 0.06,-2.31 0.74,-1.07 2.15,-3.30 1.05,-1.54 2.10,0.48 2.26,-1.61 3.07,-3.39 2.77,-4.07 0.32,-5.05 0.48,-5.01 -0.17,-5.30 -0.95,-2.89 0.35,-1.18 1.80,-1.75 -2.28,-9.04 -2.90,-19.36 z" class="state oh" />
    </a>
    <a xlink:href="#Indiana">
        <title>Indiana</title>
        <path id="IN" d="m 619.56,299.97 0.06,-2.85 0.48,-4.52 2.26,-2.90 1.77,-3.87 2.58,-4.20 -0.48,-5.81 -1.77,-2.74 -0.32,-3.23 0.80,-5.49 -0.48,-6.95 -1.29,-16.00 -1.29,-15.35 -0.97,-11.72 3.07,0.88 1.45,0.96 1.13,-0.32 2.10,-1.93 2.82,-1.61 5.09,-0.16 21.98,-2.26 5.57,-0.53 1.50,15.95 4.25,36.84 0.59,5.77 -0.37,2.26 1.22,1.79 0.09,1.37 -2.52,1.59 -3.53,1.55 -3.20,0.55 -0.59,4.86 -4.57,3.31 -2.79,4.01 0.32,2.37 -0.58,1.53 -3.32,0 -1.58,-1.61 -2.49,1.26 -2.68,1.50 0.16,3.05 -1.19,0.25 -0.46,-1.01 -2.16,-1.50 -3.25,1.34 -1.55,3.00 -1.43,-0.80 -1.45,-1.59 -4.46,0.48 -5.59,0.96 -2.90,1.55 z" class="state in" />
    </a>
    <a xlink:href="#Illinois">
        <title>Illinois</title>
        <path id="IL" d="m 619.54,300.34 0.03,-3.22 0.56,-4.64 2.33,-2.91 1.86,-4.07 2.23,-3.99 -0.37,-5.25 -2.00,-3.54 -0.09,-3.34 0.69,-5.26 -0.82,-7.17 -1.06,-15.77 -1.29,-15.01 -0.92,-11.63 -0.27,-0.92 -0.80,-2.58 -1.29,-3.71 -1.61,-1.77 -1.45,-2.58 -0.23,-5.48 -45.79,2.59 0.22,2.37 2.28,0.68 0.91,1.14 0.45,1.82 3.88,3.42 0.68,2.28 -0.68,3.42 -1.82,3.65 -0.68,2.51 -2.28,1.82 -1.82,0.68 -5.25,1.37 -0.68,1.82 -0.68,2.05 0.68,1.37 1.82,1.60 -0.22,4.11 -1.82,1.60 -0.68,1.60 0,2.74 -1.82,0.45 -1.60,1.14 -0.22,1.37 0.22,2.05 -1.71,1.31 -1.02,2.80 0.45,3.65 2.28,7.31 7.31,7.54 5.48,3.65 -0.22,4.34 0.91,1.37 6.40,0.45 2.74,1.37 -0.68,3.65 -2.28,5.94 -0.68,3.20 2.28,3.88 6.40,5.25 4.57,0.68 2.05,5.02 2.05,3.20 -0.91,2.97 1.60,4.11 1.82,2.05 1.41,-0.88 0.90,-2.07 2.21,-1.74 2.13,-0.61 2.60,1.17 3.62,1.37 1.18,-0.29 0.19,-2.25 -1.28,-2.41 0.30,-2.37 1.83,-1.34 3.02,-0.81 1.26,-0.45 -0.61,-1.38 -0.79,-2.35 1.43,-0.98 1.15,-3.21 z" class="state il" />
    </a>
    <a xlink:href="#Connecticut">
        <title>Connecticut</title>
        <path id="CT" d="m 874.06,178.86 -3.67,-14.87 -4.71,0.92 -21.22,4.74 1.00,3.22 1.45,7.27 0.17,8.96 -1.22,2.17 1.92,1.93 4.27,-3.90 3.55,-3.23 1.93,-2.10 0.80,0.64 2.74,-1.45 5.17,-1.13 7.79,-3.17 z" class="state ct" />
    </a>
    <a xlink:href="#Wisconsin">
        <title>Wisconsin</title>
        <path id="WI" d="m 615.06,197.36 -0.06,-3.15 -1.17,-4.52 -0.64,-6.14 -1.13,-2.42 0.96,-3.07 0.80,-2.90 1.45,-2.58 -0.64,-3.39 -0.64,-3.55 0.48,-1.77 1.93,-2.42 0.16,-2.74 -0.80,-1.29 0.64,-2.58 -0.45,-4.17 2.74,-5.65 2.90,-6.78 0.16,-2.26 -0.32,-0.96 -0.80,0.48 -4.20,6.30 -2.74,4.04 -1.93,1.77 -0.80,2.26 -1.95,0.80 -1.13,1.93 -1.45,-0.32 -0.16,-1.77 1.29,-2.42 2.10,-4.68 1.77,-1.61 0.99,-2.35 -2.56,-1.90 -1.97,-10.36 -3.54,-1.34 -1.94,-2.30 -12.12,-2.72 -2.87,-1.01 -8.21,-2.16 -7.91,-1.15 -3.76,-5.13 -0.75,0.55 -1.19,-0.16 -0.64,-1.13 -1.33,0.29 -1.13,0.16 -1.77,0.96 -0.96,-0.64 0.64,-1.93 1.93,-3.07 1.13,-1.13 -1.93,-1.45 -2.10,0.80 -2.90,1.93 -7.43,3.23 -2.90,0.64 -2.90,-0.48 -0.98,-0.87 -2.11,2.83 -0.22,2.74 0,8.45 -1.14,1.60 -5.25,3.88 -2.28,5.94 0.45,0.22 2.51,2.05 0.68,3.20 -1.82,3.20 0,3.88 0.45,6.63 2.97,2.97 3.42,0 1.82,3.20 3.42,0.45 3.88,5.71 7.08,4.11 2.05,2.74 0.91,7.43 0.68,3.31 2.28,1.60 0.22,1.37 -2.05,3.42 0.22,3.20 2.51,3.88 2.51,1.14 2.97,0.45 1.34,1.38 45.29,-2.66 z" class="state wi" />
    </a>
    <a xlink:href="#North Carolina">
        <title>North Carolina</title>
        <path id="NC" d="m 834.98,294.31 2.08,4.91 3.55,6.46 2.42,2.42 0.64,2.26 -2.42,0.16 0.80,0.64 -0.32,4.20 -2.58,1.29 -0.64,2.10 -1.29,2.90 -3.71,1.61 -2.42,-0.32 -1.45,-0.16 -1.61,-1.29 0.32,1.29 0,0.96 1.93,0 0.80,1.29 -1.93,6.30 4.20,0 0.64,1.61 2.26,-2.26 1.29,-0.48 -1.93,3.55 -3.07,4.84 -1.29,0 -1.13,-0.48 -2.74,0.64 -5.17,2.42 -6.46,5.33 -3.39,4.68 -1.93,6.46 -0.48,2.42 -4.68,0.48 -5.45,1.33 -9.94,-8.20 -12.60,-7.59 -2.90,-0.80 -12.60,1.45 -4.27,0.75 -1.61,-3.23 -2.97,-2.11 -16.48,0.48 -7.27,0.80 -9.05,4.52 -6.14,2.58 -21.17,2.58 0.50,-4.05 1.77,-1.45 2.74,-0.64 0.64,-3.71 4.20,-2.74 3.87,-1.45 4.20,-3.55 4.36,-2.10 0.64,-3.07 3.87,-3.87 0.64,-0.16 c 0,0 0,1.13 0.80,1.13 0.80,0 1.93,0.32 1.93,0.32 l 2.26,-3.55 2.10,-0.64 2.26,0.32 1.61,-3.55 2.90,-2.58 0.48,-2.10 0.18,-3.64 4.27,-0.02 7.19,-0.85 15.75,-2.25 15.13,-2.08 21.64,-4.71 19.98,-4.25 11.17,-2.40 5.04,-1.15 z m 4.27,33.20 2.58,-2.50 3.15,-2.58 1.53,-0.64 0.16,-2.02 -0.64,-6.14 -1.45,-2.34 -0.64,-1.85 0.72,-0.24 2.74,5.49 0.40,4.44 -0.16,3.39 -3.39,1.53 -2.82,2.42 -1.13,1.21 -1.05,-0.16 z" class="state nc" />
    </a>
    <a xlink:href="#DC">
        <title>Washington, D.C.</title>
        <!--<path class="state dc" id="DC" d="m 805.81,250.84 -1.85,-1.82 -1.23,-0.68 1.44,-2.02 2.88,1.94 -1.24,2.58 z" />-->
        <circle class="state city dc" cx="805.81" cy="250.84" r="10" />
    </a>
    <a xlink:href="#Maryland">
        <title>Maryland</title>
        <path id="MA" d="m 899.62,173.25 2.17,-0.68 0.45,-1.71 1.02,0.11 1.02,2.28 -1.25,0.45 -3.88,0.11 0.45,-0.57 z m -9.37,0.80 2.28,-2.62 1.60,0 1.82,1.48 -2.40,1.02 -2.17,1.02 -1.14,-0.91 z m -34.79,-21.98 17.64,-4.64 2.26,-0.64 1.91,-2.79 3.73,-1.66 2.88,4.41 -2.42,5.17 -0.32,1.45 1.93,2.58 1.13,-0.80 1.77,0 2.26,2.58 3.87,5.98 3.55,0.48 2.26,-0.96 1.77,-1.77 -0.80,-2.74 -2.10,-1.61 -1.45,0.80 -0.96,-1.29 0.48,-0.48 2.10,-0.16 1.77,0.80 1.93,2.42 0.96,2.90 0.32,2.42 -4.20,1.45 -3.87,1.93 -3.87,4.52 -1.93,1.45 0,-0.96 2.42,-1.45 0.48,-1.77 -0.80,-3.07 -2.90,1.45 -0.80,1.45 0.48,2.26 -2.06,1.00 -2.74,-4.52 -3.39,-4.36 -2.07,-1.81 -6.53,1.87 -5.09,1.05 -20.67,4.59 -0.66,-4.76 0.64,-10.58 4.28,-0.88 6.78,-1.29 z" class="state ma" />
    </a>
    <a xlink:href="#Tennessee">
        <title>Tennessee</title>
        <path id="TN" d="m 696.67,318.25 -51.89,5.01 -15.75,1.77 -4.62,0.51 -3.86,-0.02 -0.22,4.10 -8.18,0.26 -6.95,0.64 -8.09,-0.12 -1.41,7.07 -1.69,5.48 -3.29,2.75 -1.34,4.38 -0.32,2.58 -4.04,2.26 1.45,3.55 -0.96,4.36 -0.96,0.78 108.15,-10.40 0.40,-3.95 1.81,-1.49 2.83,-0.74 0.67,-3.71 4.09,-2.70 4.04,-1.49 4.08,-3.57 4.43,-2.02 0.52,-3.06 4.06,-3.98 0.55,-0.11 c 0,0 0.03,1.13 0.83,1.13 0.80,0 1.93,0.35 1.93,0.35 l 2.26,-3.58 2.07,-0.64 2.27,0.29 1.59,-3.53 2.95,-2.64 0.42,-1.93 0.30,-3.71 -2.14,-0.19 -2.60,2.02 -6.99,0.02 -18.35,2.38 -8.06,1.90 z" class="state tn" />
    </a>
    <a xlink:href="#Arkansas">
        <title>Arkansas</title>
        <path id="AR" d="m 593.82,343.05 -3.97,0.71 -5.11,-0.63 0.42,-1.60 2.97,-2.56 0.94,-3.65 -1.82,-2.97 -78.41,2.51 1.60,6.85 -1e-5,8.23 1.37,10.97 0.22,37.83 2.28,1.94 2.97,-1.37 2.74,1.14 0.68,6.57 55.62,-1.14 1.14,-2.09 -0.28,-3.54 -1.82,-2.97 1.59,-1.48 -1.59,-2.51 0.68,-2.50 1.36,-5.60 2.51,-2.06 -0.68,-2.28 3.65,-5.37 2.74,-1.36 -0.11,-1.49 -0.34,-1.82 2.85,-5.59 2.40,-1.25 0.38,-3.42 1.77,-1.24 -3.14,-0.48 -1.34,-4.01 2.80,-2.37 0.55,-2.01 1.27,-4.04 1.06,-3.25 z" class="state ar" />
    </a>
    <a xlink:href="#Missouri">
        <title>Missouri</title>
        <path id="MO" d="m 558.44,248.11 -2.51,-3.08 -1.14,-2.28 -64.35,2.40 -2.28,0.11 1.25,2.51 -0.22,2.28 2.51,3.88 3.08,4.11 3.08,2.74 2.16,0.22 1.49,0.91 0,2.97 -1.82,1.60 -0.45,2.28 2.05,3.42 2.51,2.97 2.51,1.82 1.37,11.65 0.31,36.07 0.22,4.68 0.45,5.38 22.43,-0.86 23.20,-0.68 20.80,-0.80 11.65,-0.23 2.16,3.42 -0.68,3.30 -3.08,2.40 -0.57,1.83 5.37,0.45 3.89,-0.68 1.71,-5.49 0.65,-5.85 2.09,-2.55 2.59,-1.48 0.05,-3.05 1.01,-1.93 -1.69,-2.54 -1.33,0.98 -1.99,-2.22 -1.28,-4.75 0.80,-2.51 -1.94,-3.42 -1.83,-4.57 -4.79,-0.79 -6.96,-5.59 -1.71,-4.11 0.79,-3.20 2.05,-6.05 0.45,-2.86 -1.94,-1.03 -6.85,-0.79 -1.02,-1.71 -0.11,-4.23 -5.48,-3.43 -6.97,-7.77 -2.28,-7.31 -0.23,-4.22 0.80,-2.28 z" class="state mo" />
    </a>
    <a xlink:href="#Georgia">
        <title>Georgia</title>
        <path id="GA" d="m 672.29,355.55 0,2.18 0.16,2.10 0.64,3.39 3.39,7.92 2.42,9.86 1.45,6.14 1.61,4.84 1.45,6.95 2.10,6.30 2.58,3.39 0.48,3.39 1.93,0.80 0.16,2.10 -1.77,4.84 -0.48,3.23 -0.16,1.93 1.61,4.36 0.32,5.33 -0.80,2.42 0.64,0.80 1.45,0.80 0.20,3.21 2.23,3.34 2.25,2.16 7.92,0.16 10.81,-0.64 21.51,-1.29 5.44,-0.67 4.57,0.02 0.16,2.90 2.58,0.80 0.32,-4.36 -1.61,-4.52 1.13,-1.61 5.81,0.80 4.97,0.31 -0.77,-6.29 2.26,-10.02 1.45,-4.20 -0.48,-2.58 3.33,-6.24 -0.51,-1.35 -1.91,0.70 -2.58,-1.29 -0.64,-2.10 -1.29,-3.55 -2.26,-2.10 -2.58,-0.64 -1.61,-4.84 -2.92,-6.33 -4.20,-1.93 -2.10,-1.93 -1.29,-2.58 -2.10,-1.93 -2.26,-1.29 -2.26,-2.90 -3.07,-2.26 -4.52,-1.77 -0.48,-1.45 -2.42,-2.90 -0.48,-1.45 -3.39,-4.97 -3.51,0.09 -3.75,-2.35 -1.41,-1.29 -0.32,-1.77 0.87,-1.93 2.22,-1.11 -0.63,-2.09 -41.86,4.98 z" class="state ga" />
    </a>
    <a xlink:href="#South Carolina">
        <title>South Carolina</title>
        <path id="SC" d="m 764.94,408.16 -1.77,0.96 -2.58,-1.29 -0.64,-2.10 -1.29,-3.55 -2.26,-2.10 -2.58,-0.64 -1.61,-4.84 -2.74,-5.98 -4.20,-1.93 -2.10,-1.93 -1.29,-2.58 -2.10,-1.93 -2.26,-1.29 -2.26,-2.90 -3.07,-2.26 -4.52,-1.77 -0.48,-1.45 -2.42,-2.90 -0.48,-1.45 -3.39,-5.17 -3.39,0.16 -4.04,-2.42 -1.29,-1.29 -0.32,-1.77 0.80,-1.93 2.26,-0.96 -0.51,-2.28 5.76,-2.33 9.11,-4.58 7.77,-0.80 16.11,-0.42 2.63,1.87 1.67,3.35 4.30,-0.60 12.60,-1.45 2.90,0.80 12.60,7.59 10.10,8.12 -5.42,5.45 -2.58,6.14 -0.48,6.30 -1.61,0.80 -1.13,2.74 -2.42,0.64 -2.10,3.55 -2.74,2.74 -2.26,3.39 -1.61,0.80 -3.55,3.39 -2.90,0.16 0.96,3.23 -5.01,5.49 -2.10,1.29 z" class="state sc" />
    </a>
    <a xlink:href="#Kentucky">
        <title>Kentucky</title>
        <path id="KY" d="m 725.99,295.27 -2.29,2.40 -3.57,3.99 -4.92,5.46 -1.21,1.71 -0.06,2.10 -4.37,2.16 -5.65,3.39 -7.23,1.79 -51.86,4.89 -15.75,1.77 -4.62,0.51 -3.86,-0.02 -0.22,4.22 -8.17,0.14 -6.95,0.64 -7.98,-0.06 1.20,-1.32 2.49,-1.54 0.22,-3.20 0.91,-1.82 -1.60,-2.53 0.80,-1.90 2.26,-1.77 2.10,-0.64 2.74,1.29 3.55,1.29 1.13,-0.32 0.16,-2.26 -1.29,-2.42 0.32,-2.26 1.93,-1.45 2.58,-0.64 1.61,-0.64 -0.80,-1.77 -0.64,-1.93 1.50,-0.99 c 0.00,-0.03 1.25,-3.52 1.23,-3.65 l 3.05,-1.47 5.31,-0.96 4.49,-0.48 1.39,1.62 1.52,0.87 1.59,-3.10 3.18,-1.28 2.20,1.48 0.41,0.99 1.17,-0.26 -0.16,-2.95 3.13,-1.74 2.14,-1.07 1.52,1.66 3.31,-0.04 0.58,-1.57 -0.36,-2.26 2.60,-3.99 4.77,-3.43 0.70,-4.83 2.92,-0.45 3.79,-1.64 2.44,-1.70 -0.19,-1.56 -1.14,-1.45 0.56,-2.99 4.18,-0.11 2.29,-0.74 3.34,1.42 2.05,4.36 5.13,0.01 2.05,2.20 1.61,-0.14 2.60,-1.27 5.23,0.57 2.57,0.21 1.68,-2.05 2.61,-1.42 1.88,-0.70 0.64,2.83 2.04,1.05 2.64,2.08 0.11,5.67 0.80,1.57 2.58,1.55 0.77,2.29 4.15,3.43 1.80,3.62 2.45,1.65 z" class="state ky" />
    </a>
    <a xlink:href="#Alabama">
        <title>Alabama</title>
        <path id="AL" d="m 631.30,460.41 -1.49,-14.32 -2.74,-18.75 0.16,-14.06 0.80,-31.03 -0.16,-16.65 0.16,-6.41 44.48,-3.61 -0.14,2.18 0.16,2.10 0.64,3.39 3.39,7.92 2.42,9.86 1.45,6.14 1.61,4.84 1.45,6.95 2.10,6.30 2.58,3.39 0.48,3.39 1.93,0.80 0.16,2.10 -1.77,4.84 -0.48,3.23 -0.16,1.93 1.61,4.36 0.32,5.33 -0.80,2.42 0.64,0.80 1.45,0.80 0.32,2.88 -5.59,-0.35 -6.78,0.64 -25.54,2.90 -10.41,1.40 -0.22,2.87 1.77,1.77 2.58,1.93 0.58,7.93 -5.54,2.57 -2.74,-0.32 2.74,-1.93 0,-0.96 -3.07,-5.98 -2.26,-0.64 -1.45,4.36 -1.29,2.74 -0.64,-0.16 -2.74,0 z" class="state al" />
    </a>
    <a xlink:href="#Louisiana">
        <title>Louisiana</title>
        <path id="LA" d="m 607.96,459.16 -3.28,-3.16 1.00,-5.50 -0.66,-0.89 -9.26,1.00 -25.02,0.45 -0.68,-2.39 0.91,-8.45 3.31,-5.94 5.03,-8.69 -0.57,-2.39 1.25,-0.68 0.45,-1.95 -2.28,-2.05 -0.11,-1.94 -1.83,-4.34 -0.14,-6.33 -55.47,0.92 0.02,9.57 0.68,9.37 0.68,3.88 2.51,4.11 0.91,5.02 4.34,5.48 0.22,3.20 0.68,0.68 -0.68,8.45 -2.97,5.02 1.60,2.05 -0.68,2.51 -0.68,7.31 -1.37,3.20 0.12,3.61 4.68,-1.52 12.11,0.20 10.34,3.55 6.46,1.13 3.71,-1.45 3.23,1.13 3.23,0.96 0.80,-2.10 -3.23,-1.13 -2.58,0.48 -2.74,-1.61 c 0,0 0.16,-1.29 0.80,-1.45 0.64,-0.16 3.07,-0.96 3.07,-0.96 l 1.77,1.45 1.77,-0.96 3.23,0.64 1.45,2.42 0.32,2.26 4.52,0.32 1.77,1.77 -0.80,1.61 -1.29,0.80 1.61,1.61 8.40,3.55 3.55,-1.29 0.96,-2.42 2.58,-0.64 1.77,-1.45 1.29,0.96 0.80,2.90 -2.26,0.80 0.64,0.64 3.39,-1.29 2.26,-3.39 0.80,-0.48 -2.10,-0.32 0.80,-1.61 -0.16,-1.45 2.10,-0.48 1.13,-1.29 0.64,0.80 c 0,0 -0.16,3.07 0.64,3.07 0.80,0 4.20,0.64 4.20,0.64 l 4.04,1.93 0.96,1.45 2.90,0 1.13,0.96 2.26,-3.07 0,-1.45 -1.29,0 -3.39,-2.74 -5.81,-0.80 -3.23,-2.26 1.13,-2.74 2.26,0.32 0.16,-0.64 -1.77,-0.96 0,-0.48 3.23,0 1.77,-3.07 -1.29,-1.93 -0.32,-2.74 -1.45,0.16 -1.93,2.10 -0.64,2.58 -3.07,-0.64 -0.96,-1.77 1.77,-1.93 1.90,-3.44 -1.06,-2.41 -1.16,-3.98 z" class="state la" />
    </a>
    <a xlink:href="#Mississippi">
        <title>Mississippi</title>
        <path id="MS" d="m 631.55,459.34 -0.25,1.25 -5.17,0 -1.45,-0.80 -2.10,-0.32 -6.78,1.93 -1.77,-0.80 -2.58,4.20 -1.10,0.77 -1.12,-2.48 -1.14,-3.88 -3.42,-3.20 1.14,-5.54 -0.68,-0.91 -1.82,0.22 -7.91,0.87 -24.54,0.37 -0.76,-2.22 0.87,-8.37 3.11,-5.67 5.22,-9.14 -0.44,-2.43 1.23,-0.65 0.43,-1.91 -2.31,-2.07 -0.11,-2.14 -1.83,-4.12 -0.10,-5.96 1.32,-2.48 -0.22,-3.41 -1.76,-3.08 1.52,-1.48 -1.57,-2.49 0.45,-1.65 1.57,-6.52 2.48,-2.03 -0.64,-2.36 3.65,-5.30 2.83,-1.35 -0.22,-1.67 -0.28,-1.68 2.87,-5.56 2.34,-1.23 0.15,-0.89 37.34,-3.88 0.18,6.28 0.16,16.65 -0.80,31.03 -0.16,14.06 2.74,18.75 1.48,13.39 z" class="state ms" />
    </a>
    <a xlink:href="#Iowa">
        <title>Iowa</title>
        <path id="IA" d="m 569.19,199.58 0.26,2.78 2.22,0.57 0.95,1.22 0.50,1.85 3.79,3.35 0.68,2.39 -0.67,3.42 -1.58,3.23 -0.79,2.74 -2.17,1.60 -1.71,0.57 -5.57,1.86 -1.39,3.84 0.72,1.37 1.84,1.68 -0.28,4.03 -1.76,1.53 -0.77,1.64 0.12,2.77 -1.88,0.45 -1.62,1.10 -0.27,1.35 0.27,2.11 -1.55,1.11 -2.47,-3.13 -1.26,-2.44 -65.73,2.51 -0.91,0.16 -2.05,-4.51 -0.22,-6.63 -1.60,-4.11 -0.68,-5.25 -2.28,-3.65 -0.91,-4.80 -2.74,-7.54 -1.14,-5.37 -1.37,-2.17 -1.60,-2.74 1.95,-4.84 1.37,-5.71 -2.74,-2.05 -0.45,-2.74 0.91,-2.51 1.71,0 82.65,-1.26 0.83,4.18 2.25,1.56 0.25,1.42 -2.02,3.38 0.19,3.20 2.51,3.79 2.52,1.29 3.07,0.50 0.65,0.83 z" class="state ia" />
    </a>
    <a xlink:href="#Minnesota">
        <title>Minnesota</title>
        <path id="MN" d="m 475.23,128.82 -0.45,-8.45 -1.82,-7.31 -1.82,-13.48 -0.45,-9.83 -1.82,-3.42 -1.60,-5.02 0,-10.28 0.68,-3.88 -1.82,-5.45 30.13,0.03 0.32,-8.24 0.64,-0.16 2.26,0.48 1.93,0.80 0.80,5.49 1.45,6.14 1.61,1.61 4.84,0 0.32,1.45 6.30,0.32 0,2.10 4.84,0 0.32,-1.29 1.13,-1.13 2.26,-0.64 1.29,0.96 2.90,0 3.87,2.58 5.33,2.42 2.42,0.48 0.48,-0.96 1.45,-0.48 0.48,2.90 2.58,1.29 0.48,-0.48 1.29,0.16 0,2.10 2.58,0.96 3.07,0 1.61,-0.80 3.23,-3.23 2.58,-0.48 0.80,1.77 0.48,1.29 0.96,0 0.96,-0.80 8.89,-0.32 1.77,3.07 0.64,0 0.71,-1.08 4.43,-0.37 -0.61,2.27 -3.93,1.83 -9.24,4.06 -4.77,2.00 -3.07,2.58 -2.42,3.55 -2.26,3.87 -1.77,0.80 -4.52,5.01 -1.29,0.16 -4.32,2.75 -2.46,3.20 -0.22,3.19 0.09,8.04 -1.37,1.68 -5.08,3.75 -2.23,5.98 2.87,2.23 0.67,3.22 -1.85,3.23 0.17,3.74 0.36,6.73 3.02,3.00 3.32,0 1.89,3.13 3.37,0.50 3.85,5.67 7.08,4.11 2.14,2.87 0.67,6.43 -81.21,1.14 -0.33,-35.67 -0.45,-2.97 -4.11,-3.42 -1.14,-1.82 0,-1.60 2.05,-1.60 1.37,-1.37 0.22,-3.20 z" class="state mn" />
    </a>
    <a xlink:href="#Oklahoma">
        <title>Oklahoma</title>
        <path id="OK" d="m 380.34,320.82 -16.68,-1.27 -0.88,10.95 20.46,1.15 32.05,1.30 -2.33,24.41 -0.45,17.83 0.22,1.60 4.34,3.65 2.05,1.14 0.68,-0.22 0.68,-2.05 1.37,1.82 2.05,0 0,-1.37 2.74,1.37 -0.45,3.88 4.11,0.22 2.51,1.14 4.11,0.68 2.51,1.82 2.28,-2.05 3.42,0.68 2.51,3.42 0.91,0 0,2.28 2.28,0.68 2.28,-2.28 1.82,0.68 2.51,0 0.91,2.51 6.30,2.07 1.37,-0.68 1.82,-4.11 1.14,0 1.14,2.05 4.11,0.68 3.65,1.37 2.97,0.91 1.82,-0.91 0.68,-2.51 4.34,0 2.05,0.91 2.74,-2.05 1.14,0 0.68,1.60 4.11,0 1.60,-2.05 1.82,0.45 2.05,2.51 3.20,1.82 3.20,0.91 1.94,1.11 -0.38,-37.21 -1.37,-10.97 -0.16,-8.87 -1.43,-6.53 -0.77,-7.17 -0.06,-3.81 -12.13,0.31 -46.41,-0.45 -45.03,-2.05 -24.29,-1.37 z" class="state ok" />
    </a>
    <a xlink:href="#Texas">
        <title>Texas</title>
        <path id="TX" d="m 361.46,330.57 22.69,1.08 31.09,1.14 -2.33,23.45 -0.29,18.15 0.06,2.08 4.34,3.81 1.98,1.44 1.18,-0.55 0.37,-1.81 1.14,1.80 2.11,0.04 -0.00,-1.44 1.66,0.96 1.13,0.40 -0.35,3.96 4.08,0.09 2.92,1.19 3.95,0.52 2.38,2.07 2.12,-2.07 3.72,0.61 2.22,3.22 1.07,0.32 -0.16,1.96 2.21,0.79 2.33,-2.05 2.13,0.61 2.22,0.03 0.93,2.43 6.32,2.11 1.59,-0.76 1.48,-4.17 0.34,0 0.90,0.08 1.22,2.06 3.92,0.66 3.33,1.12 3.42,1.19 1.84,-0.97 0.71,-2.51 4.45,0.04 1.80,0.93 2.79,-2.10 1.10,0.04 0.85,1.60 4.05,0 1.51,-2.02 1.86,0.40 1.94,2.40 3.52,2.04 2.85,0.80 1.51,0.79 2.44,1.99 3.04,-1.32 2.69,1.13 0.56,6.10 -0.03,9.70 0.68,9.53 0.70,3.60 2.67,4.41 0.89,4.95 4.21,5.53 0.19,3.14 0.74,0.78 -0.73,8.38 -2.87,5.00 1.53,2.15 -0.63,2.33 -0.66,7.40 -1.50,3.33 0.29,3.50 -5.66,1.58 -9.86,4.52 -0.96,1.93 -2.58,1.93 -2.10,1.45 -1.29,0.80 -5.65,5.33 -2.74,2.10 -5.33,3.23 -5.65,2.42 -6.30,3.39 -1.77,1.45 -5.81,3.55 -3.39,0.64 -3.87,5.49 -4.04,0.32 -0.96,1.93 2.26,1.93 -1.45,5.49 -1.29,4.52 -1.13,3.87 -0.80,4.52 0.80,2.42 1.77,6.95 0.96,6.14 1.77,2.74 -0.96,1.45 -3.07,1.93 -5.65,-3.87 -5.49,-1.13 -1.29,0.48 -3.23,-0.64 -4.20,-3.07 -5.17,-1.13 -7.59,-3.39 -2.10,-3.87 -1.29,-6.46 -3.23,-1.93 -0.64,-2.26 0.64,-0.64 0.32,-3.39 -1.29,-0.64 -0.64,-0.96 1.29,-4.36 -1.61,-2.26 -3.23,-1.29 -3.39,-4.36 -3.55,-6.62 -4.20,-2.58 0.16,-1.93 -5.33,-12.28 -0.80,-4.20 -1.77,-1.93 -0.16,-1.45 -5.98,-5.33 -2.58,-3.07 0,-1.13 -2.58,-2.10 -6.78,-1.13 -7.43,-0.64 -3.07,-2.26 -4.52,1.77 -3.55,1.45 -2.26,3.23 -0.96,3.71 -4.36,6.14 -2.42,2.42 -2.58,-0.96 -1.77,-1.13 -1.93,-0.64 -3.87,-2.26 0,-0.64 -1.77,-1.93 -5.17,-2.10 -7.43,-7.75 -2.26,-4.68 0,-8.08 -3.23,-6.46 -0.48,-2.74 -1.61,-0.96 -1.13,-2.10 -5.01,-2.10 -1.29,-1.61 -7.11,-7.92 -1.29,-3.23 -4.68,-2.26 -1.45,-4.36 -2.58,-2.90 -1.93,-0.48 -0.64,-4.67 8.00,0.68 29.03,2.74 29.03,1.60 2.23,-19.46 3.88,-55.55 1.60,-18.74 1.37,0.02 m 99.02,229.66 -0.56,-7.11 -2.74,-7.19 -0.56,-7.03 1.53,-8.24 3.31,-6.87 3.47,-5.41 3.15,-3.55 0.64,0.24 -4.76,6.62 -4.36,6.54 -2.02,6.62 -0.32,5.17 0.88,6.14 2.58,7.19 0.48,5.17 0.16,1.45 -0.88,0.24 z" class="state tx" />
    </a>
    <a xlink:href="#New Mexico">
        <title>New Mexico</title>
        <path id="NM" d="m 288.15,424.01 -0.77,-4.74 8.64,0.52 30.17,2.94 27.26,1.68 2.21,-18.70 3.85,-55.87 1.73,-19.38 1.57,0.12 0.82,-11.16 -104.00,-10.63 -17.49,120.43 15.46,1.98 1.29,-10.02 29.23,2.82 z" class="state nm" />
    </a>
    <a xlink:href="#Kansas">
        <title>Kansas</title>
        <path id="KS" d="m 507.88,324.38 -12.61,0.20 -46.08,-0.45 -44.55,-2.05 -24.62,-1.25 3.89,-64.59 22.08,0.67 40.28,0.84 44.30,0.98 5.09,0 2.18,2.16 2.01,-0.02 1.64,1.01 -0.06,3.00 -1.82,1.72 -0.33,2.23 1.84,3.40 2.95,3.19 2.32,1.61 1.30,11.24 0.18,36.08 z" class="state ks" />
    </a>
    <a xlink:href="#Nebraska">
        <title>Nebraska</title>
        <path id="NE" d="m 486.09,240.70 3.23,7.01 -0.12,2.30 3.45,5.49 2.71,3.15 -5.04,0 -43.48,-0.93 -40.78,-0.89 -22.25,-0.78 1.07,-21.32 -32.31,-2.92 4.34,-44.00 15.54,1.02 20.11,1.14 17.83,1.14 23.77,1.14 10.74,-0.45 2.05,2.28 4.80,2.97 1.14,0.91 4.34,-1.37 3.88,-0.45 2.74,-0.22 1.82,1.37 4.05,1.60 2.97,1.60 0.45,1.60 0.91,2.05 1.82,0 0.79,0.04 0.89,4.68 2.92,8.46 0.57,3.75 2.52,3.77 0.56,5.11 1.60,4.24 0.25,6.47 z" class="state ne" />
    </a>
    <a xlink:href="#South Dakota">
        <title>South Dakota</title>
        <path id="SD" d="m 476.44,204.02 -0.04,-0.58 -2.89,-4.84 1.86,-4.71 1.49,-5.88 -2.78,-2.07 -0.38,-2.74 0.79,-2.55 3.18,0.01 -0.12,-5.00 -0.33,-30.17 -0.61,-3.76 -4.07,-3.33 -0.98,-1.67 -0.06,-1.60 2.02,-1.52 1.53,-1.66 0.24,-2.65 -58.25,-1.60 -54.79,-3.44 -5.32,63.69 14.59,0.90 19.94,1.20 17.74,0.92 23.77,1.30 11.98,-0.42 1.96,2.24 5.19,3.25 0.76,0.72 4.54,-1.45 6.54,-0.61 1.67,1.33 4.20,1.59 2.94,1.63 0.39,1.48 1.03,2.24 2.23,-0.20 z" class="state sd" />
    </a>
    <a xlink:href="#North Dakota">
        <title>North Dakota</title>
        <path id="ND" d="m 475.30,128.91 -0.61,-8.43 -1.67,-6.81 -1.89,-13.02 -0.45,-10.98 -1.73,-3.07 -1.75,-5.19 0.03,-10.44 0.62,-3.82 -1.83,-5.46 -28.64,-0.56 -18.59,-0.64 -26.51,-1.29 -22.94,-2.13 -6.99,67.17 54.93,3.34 58.06,1.38 z" class="state nd" />
    </a>
    <a xlink:href="#Wyoming">
        <title>Wyoming</title>
        <path id="WY" d="m 360.37,143.27 -106.74,-13.45 -14.08,88.45 113.26,13.58 7.56,-88.58 z" class="state wy" />
    </a>
    <a xlink:href="#Montana">
        <title>Montana</title>
        <path id="MT" d="M 369.20,56.96 338.53,54.16 l -29.26,-3.55 -29.26,-4.04 -32.33,-5.33 -18.42,-3.39 -32.72,-6.93 -4.47,21.34 3.42,7.54 -1.37,4.57 1.82,4.57 3.20,1.37 4.62,10.76 2.69,3.17 0.45,1.14 3.42,1.14 0.45,2.05 -7.08,17.60 0,2.51 2.51,3.20 0.91,0 4.80,-2.97 0.68,-1.14 1.60,0.68 -0.22,5.25 2.74,12.57 2.97,2.51 0.91,0.68 1.82,2.28 -0.45,3.42 0.68,3.42 1.14,0.91 2.28,-2.28 2.74,0 3.20,1.60 2.51,-0.91 4.11,0 3.65,1.60 2.74,-0.45 0.45,-2.97 2.97,-0.68 1.37,1.37 0.45,3.20 1.42,0.83 1.88,-11.03 106.74,13.42 8.80,-86.29 z" class="state mt" />
    </a>
    <a xlink:href="#Colorado">
        <title>Colorado</title>
        <path id="CO" d="m 380.03,320.96 4.90,-86.32 -113.38,-12.64 -12.21,87.93 120.69,11.02 z" class="state co" />
    </a>
    <a xlink:href="#Idaho">
        <title>Idaho</title>
        <path id="ID" d="m 148.47,176.48 8.77,-35.22 1.37,-4.22 2.51,-5.94 -1.25,-2.28 -2.51,0.11 -0.80,-1.02 0.45,-1.14 0.34,-3.08 4.45,-5.48 1.82,-0.45 1.14,-1.14 0.57,-3.20 0.91,-0.68 3.88,-5.82 3.88,-4.34 0.22,-3.77 -3.42,-2.62 -1.53,-4.40 13.62,-63.34 13.51,2.52 -4.40,21.38 3.56,7.48 -1.58,4.66 1.96,4.64 3.13,1.25 3.83,9.55 3.51,4.43 0.50,1.14 3.34,1.14 0.36,2.09 -6.97,17.37 -0.16,2.56 2.63,3.32 0.90,-0.04 4.91,-3.02 0.67,-1.09 1.56,0.65 -0.27,5.35 2.73,12.58 3.91,3.17 1.68,2.16 -0.71,4.08 1.06,2.80 1.06,1.09 2.47,-2.35 2.84,0.04 2.91,1.33 2.78,-0.68 3.79,-0.16 3.97,1.60 2.74,-0.29 0.49,-3.03 2.93,-0.76 1.26,1.51 0.44,2.94 1.42,1.21 -8.38,53.60 c 0,0 -87.96,-16.70 -94.95,-18.20 z" class="state id" />
    </a>
    <a xlink:href="#Utah">
        <title>Utah</title>
        <path id="UT" d="m 259.49,310.10 -83.74,-11.87 20.58,-112.54 46.78,8.74 -1.48,10.63 -2.31,13.17 7.80,0.92 16.40,1.80 8.21,0.85 -12.24,88.27 z" class="state ut" />
    </a>
    <a xlink:href="#Arizona">
        <title>Arizona</title>
        <path id="AZ" d="m 144.91,382.62 -2.62,2.15 -0.32,1.45 0.48,0.96 18.91,10.66 12.12,7.59 14.71,8.56 16.81,10.02 12.28,2.42 24.95,2.70 17.25,-119.12 -83.73,-11.91 -3.09,16.41 -1.60,0.01 -1.71,2.62 -2.51,-0.11 -1.25,-2.74 -2.74,-0.34 -0.91,-1.14 -0.91,0 -0.91,0.57 -1.94,1.02 -0.11,6.97 -0.22,1.71 -0.57,12.57 -1.48,2.17 -0.57,3.31 2.74,4.91 1.25,5.82 0.80,1.02 1.02,0.57 -0.11,2.28 -1.60,1.37 -3.42,1.71 -1.94,1.94 -1.48,3.65 -0.57,4.91 -2.85,2.74 -2.05,0.68 0.13,0.82 -0.45,1.71 0.45,0.80 3.65,0.57 -0.57,2.74 -1.48,2.17 -3.77,0.91 z" class="state az" />
    </a>
    <a xlink:href="#Nevada">
        <title>Nevada</title>
        <path id="NV" d="m 196.39,185.57 -23.63,128.82 -1.83,0.34 -1.57,2.40 -2.37,0.01 -1.47,-2.74 -2.61,-0.37 -0.77,-1.10 -1.03,-0.05 -2.77,1.64 -0.31,6.78 -0.36,5.77 -0.34,8.59 -1.44,2.08 -2.43,-1.07 -69.07,-104.20 18.98,-67.58 93.09,20.66 z" class="state nv" />
    </a>
    <a xlink:href="#Oregon">
        <title>Oregon</title>
        <path id="OR" d="m 148.72,175.53 8.84,-34.80 1.05,-4.22 2.35,-5.62 -0.61,-1.16 -2.51,-0.04 -1.28,-1.67 0.45,-1.46 0.50,-3.24 4.45,-5.48 1.82,-1.09 1.14,-1.14 1.48,-3.56 4.04,-5.66 3.56,-3.86 0.22,-3.45 -3.26,-2.46 -1.78,-4.64 -12.66,-3.61 -15.08,-3.54 -15.43,0.11 -0.45,-1.37 -5.48,2.05 -4.45,-0.57 -2.40,-1.60 -1.25,0.68 -4.68,-0.22 -1.71,-1.37 -5.25,-2.05 -0.80,0.11 -4.34,-1.48 -1.94,1.82 -6.17,-0.34 -5.94,-4.11 0.68,-0.80 0.22,-7.77 -2.28,-3.88 -4.11,-0.57 -0.68,-2.51 -2.35,-0.46 -5.79,2.05 -2.26,6.46 -3.23,10.02 -3.23,6.46 -5.01,14.06 -6.46,13.57 -8.08,12.60 -1.93,2.90 -0.80,8.56 0.38,12.08 112.57,26.32 z" class="state or" />
    </a>
    <a xlink:href="#Washington">
        <title>Washington</title>
        <path id="WA" d="m 102.07,7.61 4.36,1.45 9.69,2.74 8.56,1.93 20.04,5.65 22.95,5.65 15.22,3.20 -13.63,63.58 -12.44,-3.52 -15.50,-3.57 -15.22,0.03 -0.45,-1.34 -5.59,2.17 -4.59,-0.73 -2.14,-1.58 -1.31,0.65 -4.73,-0.14 -1.69,-1.34 -5.26,-2.11 -0.73,0.14 -4.38,-1.52 -1.89,1.81 -6.26,-0.29 -5.92,-4.12 0.77,-0.93 0.12,-7.67 -2.28,-3.83 -4.11,-0.60 -0.67,-2.51 -2.27,-0.45 -3.55,1.23 -2.26,-3.21 0.32,-2.90 2.74,-0.32 1.61,-4.04 -2.58,-1.13 0.16,-3.71 4.36,-0.64 -2.74,-2.74 -1.45,-7.11 0.64,-2.90 0,-7.92 -1.77,-3.23 2.26,-9.37 2.10,0.48 2.42,2.90 2.74,2.58 3.23,1.93 4.52,2.10 3.07,0.64 2.90,1.45 3.39,0.96 2.26,-0.16 0,-2.42 1.29,-1.13 2.10,-1.29 0.32,1.13 0.32,1.77 -2.26,0.48 -0.32,2.10 1.77,1.45 1.13,2.42 0.64,1.93 1.45,-0.16 0.16,-1.29 -0.96,-1.29 -0.48,-3.23 0.80,-1.77 -0.64,-1.45 0,-2.26 1.77,-3.55 -1.13,-2.58 -2.42,-4.84 0.32,-0.80 1.13,-0.80 z m -9.45,5.97 2.02,-0.16 0.48,1.37 1.53,-1.61 2.34,0 0.80,1.53 -1.53,1.69 0.64,0.80 -0.72,2.02 -1.37,0.40 c 0,0 -0.88,0.08 -0.88,-0.24 0,-0.32 1.45,-2.58 1.45,-2.58 l -1.69,-0.56 -0.32,1.45 -0.72,0.64 -1.53,-2.26 -0.48,-2.50 z" class="state wa" />
    </a>
    <a xlink:href="#California">
        <title>California</title>
        <path id="CA" d="m 144.69,382.19 3.94,-0.48 1.48,-2.01 0.54,-2.94 -3.55,-0.59 -0.51,-0.66 0.47,-2.03 -0.15,-0.58 1.92,-0.61 3.04,-2.83 0.58,-4.99 1.37,-3.40 1.94,-2.16 3.51,-1.58 1.65,-1.60 0.06,-2.10 -0.99,-0.58 -1.02,-1.07 -1.15,-5.84 -2.68,-4.83 0.56,-3.50 -2.41,-1.02 -69.06,-104.17 18.90,-67.60 -67.07,-15.69 -1.50,4.73 -0.16,7.43 -5.17,11.80 -3.07,2.58 -0.32,1.13 -1.77,0.80 -1.45,4.20 -0.80,3.23 2.74,4.20 1.61,4.20 1.13,3.55 -0.32,6.46 -1.77,3.07 -0.64,5.81 -0.96,3.71 1.77,3.87 2.74,4.52 2.26,4.84 1.29,4.04 -0.32,3.23 -0.32,0.48 0,2.10 5.65,6.30 -0.48,2.42 -0.64,2.26 -0.64,1.93 0.16,8.24 2.10,3.71 1.93,2.58 2.74,0.48 0.96,2.74 -1.13,3.55 -2.10,1.61 -1.13,0 -0.80,3.87 0.48,2.90 3.23,4.36 1.61,5.33 1.45,4.68 1.29,3.07 3.39,5.81 1.45,2.58 0.48,2.90 1.61,0.96 0,2.42 -0.80,1.93 -1.77,7.11 -0.48,1.93 2.42,2.74 4.20,0.48 4.52,1.77 3.87,2.10 2.90,0 2.90,3.07 2.58,4.84 1.13,2.26 3.87,2.10 4.84,0.80 1.45,2.10 0.64,3.23 -1.45,0.64 0.32,0.96 3.23,0.80 2.74,0.16 3.15,-1.68 3.87,4.20 0.80,2.26 2.58,4.20 0.32,3.23 0,9.37 0.48,1.77 10.02,1.45 19.72,2.74 13.84,1.34 z m -88.13,-43.71 1.29,1.53 -0.16,1.29 -3.23,-0.08 -0.56,-1.21 -0.64,-1.45 3.31,-0.08 z m 1.93,0 1.21,-0.64 3.55,2.10 3.07,1.21 -0.88,0.64 -4.52,-0.24 -1.61,-1.61 -0.80,-1.45 z m 20.69,19.80 1.77,2.34 0.80,0.96 1.53,0.56 0.56,-1.45 -0.96,-1.77 -2.66,-2.02 -1.05,0.16 0,1.21 z m -1.45,8.64 1.77,3.15 1.21,1.93 -1.45,0.24 -1.29,-1.21 c 0,0 -0.72,-1.45 -0.72,-1.85 0,-0.40 0,-2.18 0,-2.18 l 0.48,-0.08 z" class="state ca" />
    </a>
    <a xlink:href="#Puerto Rico">
        <title>Puerto Rico</title>
        <path id="PR" class="territory pr" d="M 569.21,530.23 C 569.21,530.23 570.07,528.08 570.07,528.08 C 570.07,528.08 571.78,528.51 571.78,528.51 C 571.78,528.51 573.50,529.80 573.50,529.80 C 573.50,529.80 580.78,530.65 580.78,530.65 C 580.78,530.65 588.06,530.23 588.06,530.23 C 588.06,530.23 591.06,530.23 591.06,530.23 C 591.06,530.23 593.63,531.08 593.63,531.08 C 593.63,531.08 595.35,529.80 595.35,529.80 C 595.35,529.80 597.49,529.80 597.49,529.80 C 597.49,529.80 602.63,530.23 602.63,530.23 C 602.63,530.23 607.77,531.51 607.77,531.51 C 607.77,531.51 609.49,533.23 609.49,533.23 C 609.49,533.23 612.48,533.23 612.48,533.23 C 612.48,533.23 612.91,535.80 612.91,535.80 C 612.91,535.80 612.48,537.51 612.48,537.51 C 612.48,537.51 609.06,537.94 609.06,537.94 C 609.06,537.94 606.91,538.80 606.91,538.80 C 606.91,538.80 606.06,540.94 606.06,540.94 C 606.06,540.94 604.77,543.08 604.77,543.08 C 604.77,543.08 602.20,544.36 602.20,544.36 C 602.20,544.36 597.06,544.36 597.06,544.36 C 597.06,544.36 592.78,544.36 592.78,544.36 C 592.78,544.36 590.63,543.51 590.63,543.51 C 590.63,543.51 590.63,543.51 590.63,543.51 C 590.63,543.51 586.35,543.51 586.35,543.51 C 586.35,543.51 584.21,542.65 584.21,542.65 C 584.21,542.65 580.78,543.51 580.78,543.51 C 580.78,543.51 576.49,543.51 576.49,543.51 C 576.49,543.51 574.35,541.79 574.35,541.79 C 574.35,541.79 571.78,542.65 571.78,542.65 C 571.78,542.65 568.35,543.08 568.35,543.08 C 568.35,543.08 567.93,540.94 567.93,540.94 C 567.93,540.94 568.78,539.65 568.78,539.65 C 568.78,539.65 569.64,537.51 569.64,537.51 C 569.64,537.51 568.78,534.94 568.78,534.94 C 568.78,534.94 565.36,532.37 565.36,532.37 C 565.36,532.37 566.64,531.51 566.64,531.51 C 566.64,531.51 569.21,530.23 569.21,530.23 z M 615.92,541.80 C 615.92,541.80 614.06,542.42 614.06,542.42 C 614.06,542.42 617.78,543.66 617.78,543.66 C 617.78,543.66 622.74,542.42 622.74,542.42 C 622.74,542.42 623.98,540.56 623.98,540.56 C 623.98,540.56 620.88,541.18 620.88,541.18 C 620.88,541.18 615.92,541.80 615.92,541.80 z M 624.60,537.46 C 624.60,537.46 623.05,536.54 623.05,536.54 C 623.05,536.54 625.22,534.99 625.22,534.99 C 625.22,534.99 625.83,536.54 625.83,536.54 C 625.83,536.54 624.60,537.46 624.60,537.46 z" />
    </a>
    <a xlink:href="#U.S. Virgin Islands">
        <title>U.S. Virgin Islands</title>
        <path id="VI" class="territory vi" d="M 645.38,524.06 C 645.38,524.06 643.92,525.16 643.92,525.16 C 643.92,525.16 642.09,526.25 642.09,526.25 C 642.09,526.25 642.46,527.71 642.46,527.71 C 642.46,527.71 644.28,528.44 644.28,528.44 C 644.28,528.44 646.84,528.07 646.84,528.07 C 646.84,528.07 647.93,529.90 647.93,529.90 C 647.93,529.90 649.75,529.90 649.75,529.90 C 649.75,529.90 650.85,528.81 650.85,528.81 C 650.85,528.81 654.86,528.07 654.86,528.07 C 654.86,528.07 656.68,527.71 656.68,527.71 C 656.68,527.71 658.14,526.62 658.14,526.62 C 658.14,526.62 657.41,525.16 657.41,525.16 C 657.41,525.16 655.22,525.16 655.22,525.16 C 655.22,525.16 650.12,524.06 650.12,524.06 C 650.12,524.06 645.38,524.06 645.38,524.06 z M 659.83,525.46 C 659.83,525.46 659.54,526.46 659.54,526.46 C 659.54,526.46 660.40,526.95 660.40,526.95 C 660.40,526.95 662.39,526.71 662.39,526.71 C 662.39,526.71 663.81,527.45 663.81,527.45 C 663.81,527.45 664.95,527.20 664.95,527.20 C 664.95,527.20 665.24,525.96 665.24,525.96 C 665.24,525.96 665.24,525.96 665.24,525.96 C 665.24,525.96 666.66,524.97 666.66,524.97 C 666.66,524.97 666.95,523.97 666.95,523.97 C 666.95,523.97 665.81,523.48 665.81,523.48 C 665.81,523.48 664.10,523.97 664.10,523.97 C 664.10,523.97 662.11,523.23 662.11,523.23 C 662.11,523.23 661.25,523.97 661.25,523.97 C 661.25,523.97 660.97,524.97 660.97,524.97 C 660.97,524.97 659.83,525.46 659.83,525.46 z M 654.52,545.88 C 654.52,545.88 657.13,545.23 657.13,545.23 C 657.13,545.23 658.76,545.56 658.76,545.56 C 658.76,545.56 661.04,544.26 661.04,544.26 C 661.04,544.26 662.02,544.58 662.02,544.58 C 662.02,544.58 662.67,545.56 662.67,545.56 C 662.67,545.56 663.65,547.19 663.65,547.19 C 663.65,547.19 665.60,546.21 665.60,546.21 C 665.60,546.21 666.58,546.86 666.58,546.86 C 666.58,546.86 670.85,546.27 670.85,546.27 C 670.85,546.27 671.33,548.70 671.33,548.70 C 671.33,548.70 669.51,549.47 669.51,549.47 C 669.51,549.47 666.25,549.47 666.25,549.47 C 666.25,549.47 660.71,551.10 660.71,551.10 C 660.71,551.10 658.43,550.77 658.43,550.77 C 658.43,550.77 654.52,551.42 654.52,551.42 C 654.52,551.42 653.22,550.77 653.22,550.77 C 653.22,550.77 652.24,551.42 652.24,551.42 C 652.24,551.42 649.64,551.75 649.64,551.75 C 649.64,551.75 648.10,551.25 649.31,550.44 C 651.26,549.14 650.29,546.86 650.29,546.86 C 650.29,546.86 654.52,545.88 654.52,545.88 z" />
    </a>
    <a xlink:href="#Guam">
        <title>Guam</title>
        <path id="GU" class="territory gu" d="M 584.94,560.61 C 584.98,560.61 585.02,560.61 585.06,560.61 C 585.49,560.61 585.90,560.75 586.32,560.82 C 586.87,560.91 587.12,561.57 587.58,561.76 C 588.08,561.97 588.22,562.40 588.59,562.70 C 588.70,562.79 588.81,562.98 588.84,563.02 C 589.56,563.62 588.09,564.20 589.72,563.86 C 589.76,563.85 591.02,564.34 591.23,564.38 C 591.85,564.51 592.52,564.49 593.00,564.59 C 593.60,564.72 592.39,565.50 592.12,565.96 C 591.85,566.39 591.99,567.05 591.99,567.53 C 591.99,568.15 591.86,568.50 591.74,568.90 C 591.59,569.38 591.28,569.70 590.98,569.95 C 590.67,570.21 590.08,570.48 589.60,570.58 C 588.95,570.71 589.00,571.10 588.09,571.10 C 587.65,571.10 587.59,572.14 587.46,572.36 C 587.07,573.00 586.32,572.36 586.07,573.20 C 585.91,573.74 585.57,573.72 585.19,574.04 C 584.83,574.34 584.29,574.52 583.93,574.67 C 583.32,574.92 582.94,575.19 582.17,575.19 C 581.86,575.19 581.27,576.12 581.16,576.24 C 580.79,576.65 580.62,576.91 580.28,577.19 C 580.13,577.31 579.09,577.10 578.64,577.19 C 578.58,577.20 578.64,578.62 578.64,578.76 C 578.64,579.01 577.82,579.40 577.76,579.50 C 577.64,579.69 578.01,580.74 578.01,581.07 C 578.01,581.59 577.99,582.18 577.89,582.54 C 577.74,583.02 577.76,583.59 577.13,583.59 C 576.47,583.59 577.49,584.42 577.63,584.54 C 577.85,584.72 577.81,585.64 577.89,585.90 C 578.09,586.59 577.51,586.83 577.51,587.37 C 577.51,587.40 576.49,587.95 576.37,588.00 C 576.01,588.15 575.68,588.58 575.37,588.84 C 574.88,589.24 574.78,589.43 574.36,589.78 C 573.95,590.13 573.36,590.10 572.72,590.20 C 572.14,590.30 571.65,590.41 570.96,590.41 C 570.57,590.41 570.07,589.77 569.83,589.57 C 569.28,589.12 569.11,589.82 568.82,588.84 C 568.79,588.75 568.41,588.00 568.31,587.68 C 568.14,587.12 568.19,586.75 568.06,586.32 C 567.95,585.95 567.57,585.73 567.43,585.27 C 567.27,584.73 567.35,584.19 567.06,583.70 C 566.75,583.19 566.17,583.39 566.17,582.54 C 566.17,581.82 566.52,581.76 566.80,581.28 C 567.00,580.95 567.20,580.37 567.31,580.02 C 567.41,579.67 567.86,579.10 568.06,578.76 C 568.11,578.68 567.94,578.34 567.94,578.13 L 564.79,575.72 C 565.34,574.79 565.48,575.13 566.43,575.72 C 566.94,576.04 567.36,576.05 567.94,575.93 C 568.41,575.83 568.38,574.67 568.38,575.66 C 568.38,576.39 568.22,575.55 568.89,575.35 C 570.06,574.99 569.94,575.06 568.94,575.61 C 568.72,575.74 570.00,576.08 569.70,575.09 C 569.54,574.57 568.69,575.10 568.94,574.25 C 569.04,573.94 570.86,574.33 570.96,574.35 C 571.51,574.47 571.91,573.73 572.47,573.73 C 573.02,573.73 573.70,573.52 574.36,573.52 C 574.84,573.52 575.74,573.28 576.12,573.20 C 576.90,573.04 577.24,573.00 577.76,572.68 C 578.11,572.45 577.54,571.31 577.51,571.21 C 577.34,570.66 579.25,571.20 579.27,571.21 C 580.08,571.34 580.18,570.50 580.28,570.16 C 580.48,569.48 580.59,569.29 581.29,569.00 C 582.06,568.68 582.29,568.19 582.29,567.53 C 582.29,566.55 582.73,566.24 582.92,565.43 C 583.07,564.82 582.78,564.65 583.30,564.07 C 583.85,563.46 584.25,563.23 584.56,562.70 C 584.84,562.23 584.81,561.84 584.81,561.24 C 584.81,560.68 584.97,560.63 584.43,560.19" />
    </a>
    <a xlink:href="#Northern Mariana Islands">
        <title>Northern Mariana Islands</title>
        <path id="MP" class="territory mp" d="M 644.48,558.69 C 644.48,558.69 645.55,557.97 645.55,557.97 C 645.55,557.97 646.45,557.37 646.45,557.37 C 646.45,557.37 644.48,558.69 644.48,558.69 z M 644.56,564.25 C 644.56,564.25 646.53,566.22 646.53,566.22 C 646.53,566.22 646.36,564.35 646.36,564.35 C 646.36,564.35 644.56,564.25 644.56,564.25 z M 649.17,570.18 C 649.17,570.18 650.48,573.47 650.48,573.47 C 650.48,573.47 650.48,573.47 650.48,573.47 C 650.48,573.47 651.80,570.18 651.80,570.18 C 651.80,570.18 649.17,570.18 649.17,570.18 z M 654.44,576.76 C 654.44,576.76 654.44,580.06 654.44,580.06 C 654.44,580.06 656.41,580.72 656.41,580.72 C 656.41,580.72 657.07,577.42 657.07,577.42 C 657.07,577.42 654.44,576.76 654.44,576.76 z M 663.08,585.20 C 663.08,585.20 661.35,588.29 661.35,588.29 C 661.35,588.29 661.93,590.14 661.93,590.14 C 661.93,590.14 664.81,591.38 664.81,591.38 C 664.81,591.38 665.97,589.53 665.97,589.53 C 665.97,589.53 665.97,586.44 665.97,586.44 C 665.97,586.44 663.08,585.20 663.08,585.20 z" />
    </a>
    <a xlink:href="#American Samoa">
        <title>American Samoa</title>
        <path id="AS" class="territory as" d="M 609.49,582.49 C 609.72,582.39 610.04,581.85 610.19,581.57 C 610.45,581.10 609.94,581.01 610.58,580.86 C 610.90,580.79 611.26,581.27 611.36,581.36 C 611.61,581.58 611.77,581.79 611.91,581.29 C 611.97,581.08 612.62,580.38 612.85,580.22 C 613.15,580.01 613.41,580.00 613.71,579.72 C 613.96,579.50 614.18,579.29 614.41,579.08 C 614.69,578.83 614.84,578.73 615.03,578.37 C 615.21,578.05 615.47,577.83 615.66,577.66 C 616.07,577.28 614.64,577.45 614.02,577.45 C 613.86,577.45 614.30,576.81 614.33,576.67 C 614.43,576.24 614.54,576.26 614.96,576.17 C 615.54,576.04 615.58,576.31 615.58,576.74 C 615.58,577.03 616.05,576.31 616.13,576.03 C 616.23,575.64 616.49,575.47 616.83,575.32 C 617.16,575.17 617.53,575.07 617.77,574.96 C 618.18,574.77 618.17,574.80 618.08,574.47 C 618.02,574.26 618.14,573.83 618.08,573.61 C 617.95,573.16 618.58,573.54 618.31,573.04 C 618.19,572.83 617.51,572.68 617.37,572.62 C 616.98,572.44 616.63,572.49 616.28,572.33 C 615.86,572.14 615.94,572.01 616.20,571.77 C 616.35,571.63 617.17,571.81 617.30,571.84 C 617.67,571.92 618.06,571.91 618.47,571.91 C 618.99,571.91 619.29,571.93 619.72,572.12 C 620.04,572.27 619.95,572.55 619.95,572.97 C 619.95,573.44 619.81,573.65 620.26,573.76 C 620.81,573.88 620.92,573.78 621.28,573.54 C 621.42,573.44 622.42,573.35 622.53,573.33 C 622.95,573.25 623.19,573.08 623.38,572.90 C 623.67,572.64 624.05,572.44 624.24,572.26 C 624.54,572.00 624.81,571.92 625.18,571.84 C 625.66,571.73 625.85,572.02 626.04,572.19 C 626.23,572.36 626.12,572.94 626.12,573.19 C 626.12,573.41 627.55,572.86 627.60,572.83 C 628.02,572.64 628.28,572.71 628.54,572.48 C 628.90,572.14 628.66,571.92 629.24,572.05 C 629.68,572.15 629.95,571.92 630.33,571.84 C 630.74,571.74 630.64,571.50 630.64,571.06 C 630.64,570.70 630.64,570.34 630.64,569.99 C 630.64,569.49 630.33,569.58 629.94,569.49 C 629.62,569.42 629.18,569.62 629.00,569.78 C 628.67,570.08 628.58,569.97 628.46,570.42 C 628.34,570.83 628.29,570.88 627.91,571.06 C 627.73,571.14 627.39,570.70 626.98,570.70 C 626.53,570.70 626.36,570.46 626.12,570.34 C 625.77,570.19 625.50,570.13 625.02,570.13 C 624.85,570.13 624.59,570.55 624.24,570.63 C 623.93,570.70 623.33,570.63 623.23,570.63 C 622.91,570.63 623.60,569.86 623.62,569.85 C 624.05,569.65 624.58,569.89 623.70,569.56 C 623.35,569.44 622.87,569.63 622.53,569.63 C 621.96,569.63 621.90,569.71 621.90,570.20 C 621.90,570.69 621.61,570.63 621.12,570.63 C 620.82,570.63 620.95,569.99 620.65,569.92 C 620.17,569.81 620.21,570.23 620.03,569.56 C 619.96,569.30 619.38,569.59 619.17,569.78 C 618.94,569.99 618.43,569.70 619.01,569.56 C 619.52,569.45 618.77,568.99 618.47,568.99 C 617.95,568.99 618.03,569.32 617.77,569.63 C 617.50,569.95 617.12,569.71 616.98,570.20 C 616.92,570.45 616.38,570.51 616.13,570.63 C 615.74,570.81 615.44,570.98 615.11,571.13 C 614.63,571.35 614.03,571.27 613.47,571.27 C 613.18,571.27 613.63,571.79 613.63,572.05 C 613.63,572.41 613.63,572.76 613.63,573.12 C 613.63,573.69 613.55,573.56 613.00,573.68 C 612.71,573.75 612.49,573.40 612.07,573.40 C 611.55,573.40 611.44,573.62 611.44,574.04 C 611.44,574.49 611.01,574.24 610.66,574.39 C 610.23,574.59 609.88,574.68 609.88,574.18 C 609.88,573.81 609.45,573.76 609.10,573.68 C 608.59,573.57 608.59,574.03 608.24,574.18 C 607.86,574.36 607.44,574.30 607.07,574.47 C 606.97,574.51 606.76,573.95 606.53,573.90 C 606.12,573.81 605.57,573.95 605.20,574.04 C 604.75,574.14 604.98,574.47 604.42,574.47 C 603.99,574.47 603.63,574.58 603.40,574.68 C 603.19,574.78 603.75,575.11 602.86,575.11 C 602.28,575.11 602.20,575.16 602.00,575.53 C 601.77,575.95 601.95,576.09 601.30,576.24 C 601.10,576.29 600.72,576.70 600.67,576.88 C 600.59,577.18 599.63,577.14 600.36,577.31 C 600.75,577.40 601.09,577.42 601.53,577.52 C 601.91,577.61 602.37,577.76 602.62,577.88 C 602.88,577.99 603.56,577.84 603.72,577.81 C 604.10,577.72 604.08,577.58 604.57,577.81 C 604.88,577.94 604.83,578.31 605.12,578.44 C 605.40,578.57 606.23,578.52 606.53,578.52 C 606.60,578.52 606.66,579.43 606.68,579.51 C 606.74,579.72 606.84,580.15 606.92,580.43 C 606.94,580.52 607.67,580.83 607.77,580.93 C 607.99,581.13 608.28,581.22 608.55,581.29 C 609.00,581.39 609.18,581.36 609.41,581.57 C 609.65,581.79 609.37,582.21 609.49,582.49 z" />
    </a>
    <path class="border" d="M 211,493 V 548 L 247,593 M 0,425 H 144 L 211,493 H 297 L 350,547 V 593" />
    <path class="border" d="M 559.77,593 L 559.77,515.66 L 682.01,515.66 L 682.01,593 M 632.77,515.66 L 632.77,593 M 559.77,557.52 L 682.01,557.52M 597.89,556.61 L 597.89,593.73" />
    
    
    <path class='border' d='M 78,131.6 178,153.65 278,169.4 378,178.85 478,182 578,178.85 678,169.4 778,153.65 878,131.6'/>
    <path class='border' d='M 78,274.6 178,296.65 278,312.4 378,321.85 478,325 578,321.85 678,312.4 778,296.65 878,274.6'/>
    
    
    <path class='border' d='M 720.48,100 737.8,200 755.12,300 772.44,400'/>    
    <path class='border' d='M 212,100 193,200 174,300 155,400'/>
    
    <!--
    TODO: solve this for lat and long:
      { y == -0.000315 ( x - 478 )^2 - 22 * lat + 1139, 
        x == (-0.01083 * long + 1.045) * ( y + 1300 ) + 478 }
    -->
    
</svg>
